<mxfile host="app.diagrams.net" agent="Mozilla/5.0 (Windows NT 10.0; Win64; x64) AppleWebKit/537.36 (KHTML, like Gecko) Chrome/133.0.0.0 Safari/537.36 Edg/133.0.0.0" version="26.0.16">
  <diagram id="fNCP0mdi87hIaYcDQnJo" name="Page-1">
    <mxGraphModel dx="2852" dy="2610" grid="1" gridSize="10" guides="1" tooltips="1" connect="1" arrows="1" fold="1" page="1" pageScale="1" pageWidth="850" pageHeight="1100" math="0" shadow="0">
      <root>
        <mxCell id="0" />
        <mxCell id="1" parent="0" />
        <mxCell id="97y2HoLwPn8d9Kt8dTyg-118" value="" style="rounded=1;whiteSpace=wrap;html=1;fillColor=#EEEEEE;fontColor=#333333;strokeColor=none;arcSize=7;" vertex="1" parent="1">
          <mxGeometry x="990" y="-10" width="820" height="450" as="geometry" />
        </mxCell>
        <mxCell id="97y2HoLwPn8d9Kt8dTyg-121" value="" style="rounded=1;whiteSpace=wrap;html=1;fillColor=none;dashed=1;strokeWidth=2;" vertex="1" parent="1">
          <mxGeometry x="1000" y="185" width="580" height="120" as="geometry" />
        </mxCell>
        <mxCell id="97y2HoLwPn8d9Kt8dTyg-122" value="" style="rounded=1;whiteSpace=wrap;html=1;fillColor=none;dashed=1;strokeWidth=2;" vertex="1" parent="1">
          <mxGeometry x="1000" y="311" width="580" height="120" as="geometry" />
        </mxCell>
        <mxCell id="97y2HoLwPn8d9Kt8dTyg-590" value="" style="rounded=1;whiteSpace=wrap;html=1;fillColor=light-dark(#d1d1d1, #ededed);" vertex="1" parent="1">
          <mxGeometry x="1012.75" y="319" width="123.25" height="26" as="geometry" />
        </mxCell>
        <mxCell id="97y2HoLwPn8d9Kt8dTyg-589" value="" style="rounded=1;whiteSpace=wrap;html=1;fillColor=light-dark(#d1d1d1, #ededed);" vertex="1" parent="1">
          <mxGeometry x="1011.75" y="192" width="163.25" height="26" as="geometry" />
        </mxCell>
        <mxCell id="97y2HoLwPn8d9Kt8dTyg-119" value="" style="rounded=1;whiteSpace=wrap;html=1;fillColor=none;dashed=1;strokeWidth=2;" vertex="1" parent="1">
          <mxGeometry x="1000" y="57.5" width="580" height="120" as="geometry" />
        </mxCell>
        <mxCell id="97y2HoLwPn8d9Kt8dTyg-585" value="" style="rounded=1;whiteSpace=wrap;html=1;fillColor=light-dark(#d1d1d1, #ededed);" vertex="1" parent="1">
          <mxGeometry x="1013" y="67" width="190" height="26" as="geometry" />
        </mxCell>
        <mxCell id="97y2HoLwPn8d9Kt8dTyg-561" value="" style="rounded=1;whiteSpace=wrap;html=1;fillColor=light-dark(#eeeeee, #1a1a1a);fontColor=#333333;strokeColor=none;" vertex="1" parent="1">
          <mxGeometry x="767.38" y="455" width="223" height="270" as="geometry" />
        </mxCell>
        <mxCell id="97y2HoLwPn8d9Kt8dTyg-45" value="&lt;font face=&quot;Maven Pro&quot;&gt;&lt;span style=&quot;font-size: 20px;&quot;&gt;&lt;b&gt;.filter{ ref_genfrac &amp;amp;&amp;amp; qc_depth }&lt;/b&gt;&lt;/span&gt;&lt;/font&gt;" style="text;html=1;strokeColor=none;fillColor=none;align=center;verticalAlign=middle;whiteSpace=wrap;rounded=0;fontColor=default;" vertex="1" parent="1">
          <mxGeometry x="1359.62" y="366" width="200" height="70" as="geometry" />
        </mxCell>
        <mxCell id="97y2HoLwPn8d9Kt8dTyg-240" value="" style="endArrow=none;html=1;rounded=0;strokeWidth=10;strokeColor=#24B064;exitX=1;exitY=1;exitDx=0;exitDy=0;entryX=0.989;entryY=0.971;entryDx=0;entryDy=0;entryPerimeter=0;" edge="1" parent="1" source="97y2HoLwPn8d9Kt8dTyg-239" target="97y2HoLwPn8d9Kt8dTyg-241">
          <mxGeometry width="50" height="50" relative="1" as="geometry">
            <mxPoint x="824.1500000000001" y="273.424" as="sourcePoint" />
            <mxPoint x="968" y="121.5" as="targetPoint" />
          </mxGeometry>
        </mxCell>
        <mxCell id="97y2HoLwPn8d9Kt8dTyg-99" value="" style="rounded=1;whiteSpace=wrap;html=1;fillColor=#f5f5f5;fontColor=#333333;strokeColor=none;" vertex="1" parent="1">
          <mxGeometry x="450" y="-11" width="520" height="152" as="geometry" />
        </mxCell>
        <mxCell id="97y2HoLwPn8d9Kt8dTyg-150" value="" style="rounded=1;whiteSpace=wrap;html=1;fillColor=#EEEEEE;fontColor=#333333;strokeColor=none;" vertex="1" parent="1">
          <mxGeometry x="1020" y="455" width="779.38" height="270" as="geometry" />
        </mxCell>
        <mxCell id="97y2HoLwPn8d9Kt8dTyg-84" value="" style="group" vertex="1" connectable="0" parent="1">
          <mxGeometry x="681.38" y="528.0000000000001" width="208.25" height="227.4999999999999" as="geometry" />
        </mxCell>
        <mxCell id="97y2HoLwPn8d9Kt8dTyg-65" value="&lt;font face=&quot;Maven Pro&quot;&gt;&lt;span style=&quot;font-size: 20px;&quot;&gt;&lt;b&gt;summaryline.R +&lt;/b&gt;&lt;/span&gt;&lt;/font&gt;&lt;div&gt;&lt;font face=&quot;Maven Pro&quot;&gt;&lt;span style=&quot;font-size: 20px;&quot;&gt;&lt;b&gt;combine-summary.R&lt;/b&gt;&lt;/span&gt;&lt;/font&gt;&lt;/div&gt;" style="text;html=1;strokeColor=none;fillColor=none;align=center;verticalAlign=middle;whiteSpace=wrap;rounded=0;fontColor=default;" vertex="1" parent="97y2HoLwPn8d9Kt8dTyg-84">
          <mxGeometry x="120.5" y="99.99999999999989" width="160" height="60" as="geometry" />
        </mxCell>
        <mxCell id="97y2HoLwPn8d9Kt8dTyg-556" value="" style="endArrow=none;html=1;rounded=0;strokeWidth=10;strokeColor=light-dark(#24b064, #1a9251);entryX=0;entryY=0;entryDx=0;entryDy=0;entryPerimeter=0;" edge="1" parent="97y2HoLwPn8d9Kt8dTyg-84" target="97y2HoLwPn8d9Kt8dTyg-503">
          <mxGeometry width="50" height="50" relative="1" as="geometry">
            <mxPoint x="53" y="42" as="sourcePoint" />
            <mxPoint x="793" y="41.999999999999886" as="targetPoint" />
          </mxGeometry>
        </mxCell>
        <mxCell id="97y2HoLwPn8d9Kt8dTyg-557" value="" style="endArrow=none;html=1;rounded=0;strokeWidth=10;strokeColor=light-dark(#3d95fd, #1a9251);entryX=1;entryY=1;entryDx=0;entryDy=0;entryPerimeter=0;" edge="1" parent="97y2HoLwPn8d9Kt8dTyg-84" target="97y2HoLwPn8d9Kt8dTyg-498">
          <mxGeometry width="50" height="50" relative="1" as="geometry">
            <mxPoint x="53" y="52" as="sourcePoint" />
            <mxPoint x="790" y="51.999999999999886" as="targetPoint" />
          </mxGeometry>
        </mxCell>
        <mxCell id="97y2HoLwPn8d9Kt8dTyg-128" value="&lt;font face=&quot;Maven Pro&quot;&gt;&lt;span style=&quot;font-size: 20px;&quot;&gt;&lt;b&gt;&#39;kitchen-sink&#39; mode&lt;/b&gt;&lt;/span&gt;&lt;/font&gt;" style="text;html=1;strokeColor=none;fillColor=none;align=center;verticalAlign=middle;whiteSpace=wrap;rounded=0;fontColor=default;" vertex="1" parent="1">
          <mxGeometry x="1011.75" y="42.5" width="192" height="70" as="geometry" />
        </mxCell>
        <mxCell id="97y2HoLwPn8d9Kt8dTyg-10" value="" style="group" vertex="1" connectable="0" parent="1">
          <mxGeometry x="210" y="310.0000000000001" width="130" height="132.72999999999988" as="geometry" />
        </mxCell>
        <mxCell id="97y2HoLwPn8d9Kt8dTyg-11" value="" style="shape=image;aspect=fixed;image=data:image/svg+xml,PD94bWwgdmVyc2lvbj0iMS4wIiBlbmNvZGluZz0iVVRGLTgiIHN0YW5kYWxvbmU9Im5vIj8+CjwhLS0gQ3JlYXRlZCB3aXRoIElua3NjYXBlIChodHRwOi8vd3d3Lmlua3NjYXBlLm9yZy8pIC0tPgoKPHN2ZwogICB3aWR0aD0iMjMuODEyNTFtbSIKICAgaGVpZ2h0PSIyNi40NTgzNDltbSIKICAgdmlld0JveD0iMCAwIDIzLjgxMjUxIDI2LjQ1ODM0OSIKICAgdmVyc2lvbj0iMS4xIgogICBpZD0ic3ZnNzM2MiIKICAgeG1sbnM9Imh0dHA6Ly93d3cudzMub3JnLzIwMDAvc3ZnIgogICB4bWxuczpzdmc9Imh0dHA6Ly93d3cudzMub3JnLzIwMDAvc3ZnIj4KICA8ZGVmcwogICAgIGlkPSJkZWZzNzM1OSIgLz4KICA8ZwogICAgIGlkPSJsYXllcjEiCiAgICAgc3R5bGU9ImRpc3BsYXk6aW5saW5lIgogICAgIHRyYW5zZm9ybT0idHJhbnNsYXRlKDM3LjA0MTY2NSwtMTY2LjY4NzUpIj4KICAgIDxnCiAgICAgICBpZD0iZzMtNC05IgogICAgICAgdHJhbnNmb3JtPSJ0cmFuc2xhdGUoLTE5MC40OTk5OSw3MS40Mzc1MDUpIgogICAgICAgc3R5bGU9ImRpc3BsYXk6aW5saW5lIj4KICAgICAgPGcKICAgICAgICAgaWQ9ImcxODQ4OC01NC00MS05IgogICAgICAgICB0cmFuc2Zvcm09InRyYW5zbGF0ZSgyNi40NTgzMzIsMi42NDU4NDQpIj4KICAgICAgICA8cGF0aAogICAgICAgICAgIGlkPSJwYXRoNjI3Ni00LTQtNS0yIgogICAgICAgICAgIHN0eWxlPSJmaWxsOiNmZmZmZmY7c3Ryb2tlLXdpZHRoOjAuMjMwNzAyIgogICAgICAgICAgIGQ9Im0gMTMyLjI5MTY2LDkzLjkyNzA3MiB2IDIxLjE2NjY2OCBoIDE1Ljg3NTAxIFYgOTkuMjE4NzQ4IGwgLTUuMjkxNjgsLTUuMjkxNjc2IHoiIC8+CiAgICAgICAgPHBhdGgKICAgICAgICAgICBpZD0icGF0aDU4NjItMS00LTEiCiAgICAgICAgICAgZD0ibSAxNDkuNDg5NTgsOTcuODk1ODMyIGMgMCwtMC4yNjQ1NzYgLTAuMjY0NTgsLTAuNTI5MTY0IC0wLjUyOTE3LC0wLjc5Mzc1MiBsIC00LjQ5NzkxLC0zLjk2ODc0OCBjIC0wLjI2NDU4LC0wLjI2NDU4OCAtMC41MjkxNywtMC41MjkxNjQgLTAuODI3ODgsLTAuNTI5MTY0IGwgLTQuNzI4MzcsLTJlLTUgLTYuNjE0NTksMmUtNSBjIC0wLjc5Mzc1LDJlLTYgLTEuMzIyOTIsMC41MjkxNjQgLTEuMzIyOTIsMS4zMjI5MTYgdiAyMS4xNjY2NjYgYyAwLDAuNzkzNzUgMC41MjkxNywxLjMyMjkyIDEuMzIyOTIsMS4zMjI5MiBoIDcuOTM3NTEgNy45Mzc1IGMgMC43OTM3NCwwIDEuMzIyOTEsLTAuNTI5MTcgMS4zMjI5MSwtMS4zMjI5MiB6IG0gLTEuMzIyOTEsMTcuMTk3OTE4IEggMTMyLjI5MTY2IFYgOTMuOTI3MDg0IGggMTAuNTgzMzMgdiA0Ljc2MjUgYyAwLDAuMzE3NTA4IDAuMjAzNTMsMC41MjkxNjQgMC41MjkxNywwLjUyOTE2NCBoIDQuNzYyNTEgeiIKICAgICAgICAgICBzdHlsZT0ic3Ryb2tlLXdpZHRoOjAuMjMxNjciIC8+CiAgICAgICAgPHBhdGgKICAgICAgICAgICBpZD0icmVjdDE4MzQ3LTItNy04IgogICAgICAgICAgIHN0eWxlPSJmaWxsLXJ1bGU6ZXZlbm9kZDtzdHJva2Utd2lkdGg6MC4xMjIwMjc7cGFpbnQtb3JkZXI6ZmlsbCBtYXJrZXJzIHN0cm9rZSIKICAgICAgICAgICBkPSJtIDEzMS4wMTc1MiwxMDEuODY0NiBoIDE4LjQyMzI2IGMgMC43NTk5MywwIDEuMzcxNzEsMC40OTcwNiAxLjM3MTcxLDEuMTE0NSBsIDFlLTUsMi44NTQyMSAtMWUtNSwyLjg1NDI2IGMgMCwwLjYxNzQ0IC0wLjYxMTc4LDEuMTE0NSAtMS4zNzE3MSwxLjExNDUgaCAtMTguNDIzMjYgYyAtMC43NTk5MiwwIC0xLjM3MTcsLTAuNDk3MDYgLTEuMzcxNywtMS4xMTQ1IHYgLTIuODU0MjUgLTIuODU0MjIgYyAwLC0wLjYxNzQ0IDAuNjExNzgsLTEuMTE0NSAxLjM3MTcsLTEuMTE0NSB6IiAvPgogICAgICAgIDx0ZXh0CiAgICAgICAgICAgeG1sOnNwYWNlPSJwcmVzZXJ2ZSIKICAgICAgICAgICBzdHlsZT0iZm9udC13ZWlnaHQ6Ym9sZDtmb250LXNpemU6NS4yOTE2N3B4O2ZvbnQtZmFtaWx5OidNYXZlbiBQcm8nOy1pbmtzY2FwZS1mb250LXNwZWNpZmljYXRpb246J01hdmVuIFBybywgQm9sZCc7dGV4dC1hbGlnbjpjZW50ZXI7dGV4dC1vcmllbnRhdGlvbjp1cHJpZ2h0O3RleHQtYW5jaG9yOm1pZGRsZTtmaWxsOiNmZmZmZmY7ZmlsbC1vcGFjaXR5OjE7c3Ryb2tlOm5vbmU7c3Ryb2tlLXdpZHRoOjAuMjI3OTUxO3N0cm9rZS1saW5lY2FwOnJvdW5kO3N0cm9rZS1saW5lam9pbjptaXRlcjtzdHJva2UtbWl0ZXJsaW1pdDowLjY7c3Ryb2tlLWRhc2hhcnJheTpub25lO3N0cm9rZS1kYXNob2Zmc2V0OjIuMDAwMDE7c3Ryb2tlLW9wYWNpdHk6MTtwYWludC1vcmRlcjpmaWxsIG1hcmtlcnMgc3Ryb2tlO3N0b3AtY29sb3I6IzAwMDAwMCIKICAgICAgICAgICB4PSIxNDAuMzM4OTYiCiAgICAgICAgICAgeT0iMTA3LjIxMTgiCiAgICAgICAgICAgaWQ9InRleHQxODU2OS02LTgtNCI+PHRzcGFuCiAgICAgICAgICAgICBpZD0idHNwYW4xODU2Ny00Mi02LTEiCiAgICAgICAgICAgICBzdHlsZT0iZmlsbDojZmZmZmZmO2ZpbGwtb3BhY2l0eToxO3N0cm9rZTpub25lO3N0cm9rZS13aWR0aDowLjIyNzk1MSIKICAgICAgICAgICAgIHg9IjE0MC4zMzg5NiIKICAgICAgICAgICAgIHk9IjEwNy4yMTE4Ij5mYXN0cTwvdHNwYW4+PC90ZXh0PgogICAgICA8L2c+CiAgICAgIDxnCiAgICAgICAgIGlkPSJnMTg0ODgtNTQtOC02LTEiCiAgICAgICAgIHRyYW5zZm9ybT0idHJhbnNsYXRlKDIzLjgxMjUwMiw1LjI5MTY2OTUpIj4KICAgICAgICA8cGF0aAogICAgICAgICAgIGlkPSJwYXRoNjI3Ni00LTQtNi03LTUiCiAgICAgICAgICAgc3R5bGU9ImZpbGw6I2ZmZmZmZjtzdHJva2Utd2lkdGg6MC4yMzA3MDIiCiAgICAgICAgICAgZD0ibSAxMzIuMjkxNjYsOTMuOTI3MDcyIHYgMjEuMTY2NjY4IGggMTUuODc1MDEgViA5OS4yMTg3NDggbCAtNS4yOTE2OCwtNS4yOTE2NzYgeiIgLz4KICAgICAgICA8cGF0aAogICAgICAgICAgIGlkPSJwYXRoNTg2Mi0xLTEtMC02IgogICAgICAgICAgIGQ9Im0gMTQ5LjQ4OTU4LDk3Ljg5NTgzMiBjIDAsLTAuMjY0NTc2IC0wLjI2NDU4LC0wLjUyOTE2NCAtMC41MjkxNywtMC43OTM3NTIgbCAtNC40OTc5MSwtMy45Njg3NDggYyAtMC4yNjQ1OCwtMC4yNjQ1ODggLTAuNTI5MTcsLTAuNTI5MTY0IC0wLjgyNzg4LC0wLjUyOTE2NCBoIC0zLjQwNTQ1IC03LjkzNzUxIGMgLTAuNzkzNzUsMCAtMS4zMjI5MiwwLjUyOTE2NCAtMS4zMjI5MiwxLjMyMjkxNiB2IDIxLjE2NjY2NiBjIDAsMC43OTM3NSAwLjUyOTE3LDEuMzIyOTIgMS4zMjI5MiwxLjMyMjkyIGwgOS4yNjA0MiwtMmUtNSA2LjYxNDU5LDJlLTUgYyAwLjc5Mzc0LDAgMS4zMjI5MSwtMC41MjkxNyAxLjMyMjkxLC0xLjMyMjkyIHogbSAtMS4zMjI5MSwxNy4xOTc5MTggSCAxMzIuMjkxNjYgViA5My45MjcwODQgaCAxMC41ODMzMyB2IDQuNzYyNSBjIDAsMC4zMTc1MDggMC4yMDM1MywwLjUyOTE2NCAwLjUyOTE3LDAuNTI5MTY0IGggNC43NjI1MSB6IgogICAgICAgICAgIHN0eWxlPSJzdHJva2Utd2lkdGg6MC4yMzE2NyIgLz4KICAgICAgICA8cGF0aAogICAgICAgICAgIGlkPSJyZWN0MTgzNDctMi01LTAtMiIKICAgICAgICAgICBzdHlsZT0iZmlsbC1ydWxlOmV2ZW5vZGQ7c3Ryb2tlLXdpZHRoOjAuMTIyMDI3O3BhaW50LW9yZGVyOmZpbGwgbWFya2VycyBzdHJva2UiCiAgICAgICAgICAgZD0ibSAxMzEuMDE3NTIsMTAxLjg2NDYgaCAxOC40MjMyNiBjIDAuNzU5OTMsMCAxLjM3MTcxLDAuNDk3MDYgMS4zNzE3MSwxLjExNDUgdiAyLjg1NDIyIDIuODU0MjUgYyAwLDAuNjE3NDQgLTAuNjExNzgsMS4xMTQ1IC0xLjM3MTcxLDEuMTE0NSBoIC0xOC40MjMyNiBjIC0wLjc1OTkyLDAgLTEuMzcxNywtMC40OTcwNiAtMS4zNzE3LC0xLjExNDUgbCAxZS01LC01LjUwMDA4IC0xZS01LC0wLjIwODM5IGMgLTJlLTUsLTAuNjE3NDQgMC42MTE3OCwtMS4xMTQ1IDEuMzcxNywtMS4xMTQ1IHoiIC8+CiAgICAgIDwvZz4KICAgIDwvZz4KICA8L2c+Cjwvc3ZnPgo=;imageBackground=default;" vertex="1" parent="97y2HoLwPn8d9Kt8dTyg-10">
          <mxGeometry width="90" height="100" as="geometry" />
        </mxCell>
        <mxCell id="97y2HoLwPn8d9Kt8dTyg-12" value="&lt;font face=&quot;Maven Pro&quot; color=&quot;#ffffff&quot;&gt;&lt;span style=&quot;font-size: 20px;&quot;&gt;&lt;b&gt;FASTA&lt;/b&gt;&lt;/span&gt;&lt;/font&gt;" style="text;html=1;strokeColor=none;fillColor=none;align=center;verticalAlign=middle;whiteSpace=wrap;rounded=0;" vertex="1" parent="97y2HoLwPn8d9Kt8dTyg-10">
          <mxGeometry x="10" y="50" width="60" height="25" as="geometry" />
        </mxCell>
        <mxCell id="97y2HoLwPn8d9Kt8dTyg-572" value="&lt;font face=&quot;Maven Pro&quot;&gt;&lt;span style=&quot;font-size: 20px;&quot;&gt;&lt;b&gt;References&lt;/b&gt;&lt;/span&gt;&lt;/font&gt;" style="text;html=1;strokeColor=none;fillColor=none;align=center;verticalAlign=middle;whiteSpace=wrap;rounded=0;fontColor=default;" vertex="1" parent="97y2HoLwPn8d9Kt8dTyg-10">
          <mxGeometry x="-35" y="99.99999999999989" width="150" height="32.73" as="geometry" />
        </mxCell>
        <mxCell id="97y2HoLwPn8d9Kt8dTyg-3" value="" style="group" vertex="1" connectable="0" parent="1">
          <mxGeometry x="210" y="189" width="80" height="90" as="geometry" />
        </mxCell>
        <mxCell id="97y2HoLwPn8d9Kt8dTyg-4" value="" style="shape=image;aspect=fixed;image=data:image/svg+xml,PD94bWwgdmVyc2lvbj0iMS4wIiBlbmNvZGluZz0iVVRGLTgiIHN0YW5kYWxvbmU9Im5vIj8+CjwhLS0gQ3JlYXRlZCB3aXRoIElua3NjYXBlIChodHRwOi8vd3d3Lmlua3NjYXBlLm9yZy8pIC0tPgoKPHN2ZwogICB3aWR0aD0iMjEuMTY2NjdtbSIKICAgaGVpZ2h0PSIyMy44MTI1MDJtbSIKICAgdmlld0JveD0iMCAwIDIxLjE2NjY3IDIzLjgxMjUwMiIKICAgdmVyc2lvbj0iMS4xIgogICBpZD0ic3ZnNzM2MiIKICAgeG1sbnM9Imh0dHA6Ly93d3cudzMub3JnLzIwMDAvc3ZnIgogICB4bWxuczpzdmc9Imh0dHA6Ly93d3cudzMub3JnLzIwMDAvc3ZnIj4KICA8ZGVmcwogICAgIGlkPSJkZWZzNzM1OSIgLz4KICA8ZwogICAgIGlkPSJsYXllcjEiCiAgICAgc3R5bGU9ImRpc3BsYXk6aW5saW5lIgogICAgIHRyYW5zZm9ybT0idHJhbnNsYXRlKDM3LjA0MTY3MywtMTQwLjIyOTE3KSI+CiAgICA8ZwogICAgICAgaWQ9ImcxODQ4OC0zLTIiCiAgICAgICB0cmFuc2Zvcm09InRyYW5zbGF0ZSgtMTY2LjY4NzQ5LDQ3LjYyNDk5NykiCiAgICAgICBzdHlsZT0iZGlzcGxheTppbmxpbmUiPgogICAgICA8cGF0aAogICAgICAgICBpZD0icGF0aDYyNzYtNC0wLTYiCiAgICAgICAgIHN0eWxlPSJmaWxsOiNmZmZmZmY7c3Ryb2tlLXdpZHRoOjAuMjMwNzAyIgogICAgICAgICBkPSJtIDEzMi4yOTE2Niw5My45MjcwNzIgdiAyMS4xNjY2NjggaCAxNS44NzUwMSBWIDk5LjIxODc0OCBsIC01LjI5MTY4LC01LjI5MTY3NiB6IiAvPgogICAgICA8cGF0aAogICAgICAgICBpZD0icGF0aDU4NjItMy03IgogICAgICAgICBkPSJtIDE0OS40ODk1OCw5Ny44OTU4MzIgYyAwLC0wLjI2NDU3NiAtMC4yNjQ1OCwtMC41MjkxNjQgLTAuNTI5MTcsLTAuNzkzNzUyIGwgLTQuNDk3OTEsLTMuOTY4NzQ4IGMgLTAuMjY0NTgsLTAuMjY0NTg4IC0wLjUyOTE3LC0wLjUyOTE2NCAtMC44Mjc4OCwtMC41MjkxNjQgaCAtMy40MDU0NSAtNy45Mzc1MSBjIC0wLjc5Mzc1LDAgLTEuMzIyOTIsMC41MjkxNjQgLTEuMzIyOTIsMS4zMjI5MTYgMCw3LjA1NTU1NiAwLDE0LjExMTEwNiAwLDIxLjE2NjY2NiAwLDAuNzkzNzUgMC41MjkxNywxLjMyMjkyIDEuMzIyOTIsMS4zMjI5MiBoIDcuOTM3NTEgNy45Mzc1IGMgMC43OTM3NCwwIDEuMzIyOTEsLTAuNTI5MTcgMS4zMjI5MSwtMS4zMjI5MiB6IG0gLTEuMzIyOTEsMTcuMTk3OTE4IEggMTMyLjI5MTY2IFYgOTMuOTI3MDg0IGggMTAuNTgzMzMgdiA0Ljc2MjUgYyAwLDAuMzE3NTA4IDAuMjAzNTMsMC41MjkxNjQgMC41MjkxNywwLjUyOTE2NCBoIDQuNzYyNTEgeiIKICAgICAgICAgc3R5bGU9InN0cm9rZS13aWR0aDowLjIzMTY3IiAvPgogICAgICA8cGF0aAogICAgICAgICBpZD0icmVjdDE4MzQ3LTYtMSIKICAgICAgICAgc3R5bGU9ImZpbGwtcnVsZTpldmVub2RkO3N0cm9rZS13aWR0aDowLjEyMjAyNztwYWludC1vcmRlcjpmaWxsIG1hcmtlcnMgc3Ryb2tlIgogICAgICAgICBkPSJtIDEzMS4wMTc1MiwxMDEuODY0NiBjIDYuMTQxMDksMCAxMi4yODIxNywwIDE4LjQyMzI2LDAgMC43NTk5MywwIDEuMzcxNzEsMC40OTcwNiAxLjM3MTcxLDEuMTE0NSB2IDIuODU0MjIgMi44NTQyNSBjIDAsMC42MTc0NCAtMC42MTE3OCwxLjExNDUgLTEuMzcxNzEsMS4xMTQ1IC02LjE0MTA5LDAgLTEyLjI4MjE3LDAgLTE4LjQyMzI2LDAgLTAuNzU5OTIsMCAtMS4zNzE3LC0wLjQ5NzA2IC0xLjM3MTcsLTEuMTE0NSB2IC0yLjg1NDI1IC0yLjg1NDIyIGMgMCwtMC42MTc0NCAwLjYxMTc4LC0xLjExNDUgMS4zNzE3LC0xLjExNDUgeiIgLz4KICAgIDwvZz4KICA8L2c+Cjwvc3ZnPgo=;" vertex="1" parent="97y2HoLwPn8d9Kt8dTyg-3">
          <mxGeometry width="80" height="90" as="geometry" />
        </mxCell>
        <mxCell id="97y2HoLwPn8d9Kt8dTyg-5" value="&lt;font style=&quot;font-size: 20px;&quot; color=&quot;#ffffff&quot; data-font-src=&quot;https://fonts.googleapis.com/css?family=Maven+Pro&quot; face=&quot;Maven Pro&quot;&gt;&lt;b&gt;fastq&lt;/b&gt;&lt;/font&gt;" style="text;html=1;strokeColor=none;fillColor=none;align=center;verticalAlign=middle;whiteSpace=wrap;rounded=0;" vertex="1" parent="97y2HoLwPn8d9Kt8dTyg-3">
          <mxGeometry x="10" y="35" width="60" height="30" as="geometry" />
        </mxCell>
        <mxCell id="97y2HoLwPn8d9Kt8dTyg-102" value="" style="group;align=left;" vertex="1" connectable="0" parent="1">
          <mxGeometry x="370" y="207" width="480" height="240" as="geometry" />
        </mxCell>
        <mxCell id="97y2HoLwPn8d9Kt8dTyg-130" value="" style="rounded=1;whiteSpace=wrap;html=1;fillColor=#eeeeee;strokeColor=none;" vertex="1" parent="97y2HoLwPn8d9Kt8dTyg-102">
          <mxGeometry x="-50" y="-39" width="500" height="270" as="geometry" />
        </mxCell>
        <mxCell id="97y2HoLwPn8d9Kt8dTyg-431" value="" style="endArrow=none;html=1;rounded=0;strokeWidth=10;strokeColor=light-dark(#24b064, #3480d9);entryX=0.013;entryY=-0.002;entryDx=0;entryDy=0;entryPerimeter=0;" edge="1" parent="97y2HoLwPn8d9Kt8dTyg-102">
          <mxGeometry width="50" height="50" relative="1" as="geometry">
            <mxPoint x="-58" y="44" as="sourcePoint" />
            <mxPoint x="406" y="44" as="targetPoint" />
          </mxGeometry>
        </mxCell>
        <mxCell id="97y2HoLwPn8d9Kt8dTyg-430" value="" style="endArrow=none;html=1;rounded=0;strokeWidth=10;strokeColor=light-dark(#ecdc86, #3480d9);entryX=0.013;entryY=-0.002;entryDx=0;entryDy=0;entryPerimeter=0;" edge="1" parent="97y2HoLwPn8d9Kt8dTyg-102">
          <mxGeometry width="50" height="50" relative="1" as="geometry">
            <mxPoint x="-58" y="36" as="sourcePoint" />
            <mxPoint x="409" y="36" as="targetPoint" />
          </mxGeometry>
        </mxCell>
        <mxCell id="97y2HoLwPn8d9Kt8dTyg-85" value="" style="group" vertex="1" connectable="0" parent="97y2HoLwPn8d9Kt8dTyg-102">
          <mxGeometry width="150" height="120" as="geometry" />
        </mxCell>
        <mxCell id="97y2HoLwPn8d9Kt8dTyg-429" value="" style="endArrow=none;html=1;rounded=0;strokeWidth=10;strokeColor=light-dark(#fa6863, #3480d9);entryX=0.013;entryY=-0.002;entryDx=0;entryDy=0;entryPerimeter=0;" edge="1" parent="97y2HoLwPn8d9Kt8dTyg-85">
          <mxGeometry width="50" height="50" relative="1" as="geometry">
            <mxPoint x="-58" y="26" as="sourcePoint" />
            <mxPoint x="409" y="26" as="targetPoint" />
          </mxGeometry>
        </mxCell>
        <mxCell id="97y2HoLwPn8d9Kt8dTyg-428" value="" style="endArrow=none;html=1;rounded=0;strokeWidth=10;strokeColor=light-dark(#ae63fa, #3480d9);entryX=0.013;entryY=-0.002;entryDx=0;entryDy=0;entryPerimeter=0;" edge="1" parent="97y2HoLwPn8d9Kt8dTyg-85">
          <mxGeometry width="50" height="50" relative="1" as="geometry">
            <mxPoint x="-58" y="16" as="sourcePoint" />
            <mxPoint x="409" y="16" as="targetPoint" />
          </mxGeometry>
        </mxCell>
        <mxCell id="97y2HoLwPn8d9Kt8dTyg-14" value="" style="shape=image;verticalLabelPosition=bottom;verticalAlign=top;imageAspect=0;aspect=fixed;image=data:image/svg+xml,PHN2ZyB4bWxucz0iaHR0cDovL3d3dy53My5vcmcvMjAwMC9zdmciIGlkPSJzdmc3MzYyIiB2ZXJzaW9uPSIxLjEiIHZpZXdCb3g9IjAgMCA3LjkzNzQ5ODEgMTUuODc1IiBoZWlnaHQ9IjE1Ljg3NW1tIiB3aWR0aD0iNy45Mzc0OTgxbW0iPiYjeGE7ICAmI3hhOyAgICAmI3hhOyAgJiN4YTsgIDxkZWZzIGlkPSJkZWZzNzM1OSIvPiYjeGE7ICA8ZyB0cmFuc2Zvcm09InRyYW5zbGF0ZSgtMjIuNTEwMjYyLC0zMy4wNzI5MTMpIiBpZD0ibGF5ZXI1Ij4mI3hhOyAgICA8ZyBpZD0ibGF5ZXI2Ij4mI3hhOyAgICAgIDxyZWN0IHRyYW5zZm9ybT0ic2NhbGUoLTEpIiByeT0iMi42NDU4MzMzIiB5PSItNDcuNjI0OTk2IiB4PSItMjkuMTI0ODQ2IiBoZWlnaHQ9IjEzLjIyOTE2NiIgd2lkdGg9IjUuMjkxNjY3OSIgaWQ9InJlY3Q5MTgiIHN0eWxlPSJmaWxsOiNmZmZmZmY7c3Ryb2tlOiMwMDAwMDA7c3Ryb2tlLXdpZHRoOjIuNjQ1ODM7c3Ryb2tlLWxpbmVjYXA6cm91bmQ7c3Ryb2tlLWRhc2hhcnJheTpub25lO3BhaW50LW9yZGVyOnN0cm9rZSBtYXJrZXJzIGZpbGw7c3RvcC1jb2xvcjojMDAwMDAwIi8+JiN4YTsgICAgPC9nPiYjeGE7ICA8L2c+JiN4YTs8L3N2Zz4=" vertex="1" parent="97y2HoLwPn8d9Kt8dTyg-85">
          <mxGeometry x="16.25" width="32.5" height="65" as="geometry" />
        </mxCell>
        <mxCell id="97y2HoLwPn8d9Kt8dTyg-16" value="&lt;font face=&quot;Maven Pro&quot;&gt;&lt;span style=&quot;font-size: 20px;&quot;&gt;&lt;b&gt;Seqtk sample&lt;/b&gt;&lt;/span&gt;&lt;/font&gt;" style="text;html=1;strokeColor=none;fillColor=none;align=center;verticalAlign=middle;whiteSpace=wrap;rounded=0;fontColor=default;" vertex="1" parent="97y2HoLwPn8d9Kt8dTyg-85">
          <mxGeometry x="-42.5" y="65" width="150" height="32.73" as="geometry" />
        </mxCell>
        <mxCell id="97y2HoLwPn8d9Kt8dTyg-86" value="" style="group" vertex="1" connectable="0" parent="97y2HoLwPn8d9Kt8dTyg-102">
          <mxGeometry x="172.03999999999996" width="60" height="99.99999999999989" as="geometry" />
        </mxCell>
        <mxCell id="97y2HoLwPn8d9Kt8dTyg-101" value="" style="group" vertex="1" connectable="0" parent="97y2HoLwPn8d9Kt8dTyg-86">
          <mxGeometry width="60" height="99.99999999999989" as="geometry" />
        </mxCell>
        <mxCell id="97y2HoLwPn8d9Kt8dTyg-17" value="" style="shape=image;verticalLabelPosition=bottom;verticalAlign=top;imageAspect=0;aspect=fixed;image=data:image/svg+xml,PHN2ZyB4bWxucz0iaHR0cDovL3d3dy53My5vcmcvMjAwMC9zdmciIGlkPSJzdmc3MzYyIiB2ZXJzaW9uPSIxLjEiIHZpZXdCb3g9IjAgMCA3LjkzNzQ5ODEgMTUuODc1IiBoZWlnaHQ9IjE1Ljg3NW1tIiB3aWR0aD0iNy45Mzc0OTgxbW0iPiYjeGE7ICAmI3hhOyAgICAmI3hhOyAgJiN4YTsgIDxkZWZzIGlkPSJkZWZzNzM1OSIvPiYjeGE7ICA8ZyB0cmFuc2Zvcm09InRyYW5zbGF0ZSgtMjIuNTEwMjYyLC0zMy4wNzI5MTMpIiBpZD0ibGF5ZXI1Ij4mI3hhOyAgICA8ZyBpZD0ibGF5ZXI2Ij4mI3hhOyAgICAgIDxyZWN0IHRyYW5zZm9ybT0ic2NhbGUoLTEpIiByeT0iMi42NDU4MzMzIiB5PSItNDcuNjI0OTk2IiB4PSItMjkuMTI0ODQ2IiBoZWlnaHQ9IjEzLjIyOTE2NiIgd2lkdGg9IjUuMjkxNjY3OSIgaWQ9InJlY3Q5MTgiIHN0eWxlPSJmaWxsOiNmZmZmZmY7c3Ryb2tlOiMwMDAwMDA7c3Ryb2tlLXdpZHRoOjIuNjQ1ODM7c3Ryb2tlLWxpbmVjYXA6cm91bmQ7c3Ryb2tlLWRhc2hhcnJheTpub25lO3BhaW50LW9yZGVyOnN0cm9rZSBtYXJrZXJzIGZpbGw7c3RvcC1jb2xvcjojMDAwMDAwIi8+JiN4YTsgICAgPC9nPiYjeGE7ICA8L2c+JiN4YTs8L3N2Zz4=" vertex="1" parent="97y2HoLwPn8d9Kt8dTyg-101">
          <mxGeometry x="16" width="30" height="60" as="geometry" />
        </mxCell>
        <mxCell id="97y2HoLwPn8d9Kt8dTyg-18" value="&lt;font face=&quot;Maven Pro&quot;&gt;&lt;span style=&quot;font-size: 20px;&quot;&gt;&lt;b&gt;FastQC&lt;/b&gt;&lt;/span&gt;&lt;/font&gt;" style="text;html=1;strokeColor=none;fillColor=none;align=center;verticalAlign=middle;whiteSpace=wrap;rounded=0;fontColor=default;" vertex="1" parent="97y2HoLwPn8d9Kt8dTyg-101">
          <mxGeometry y="69.99999999999989" width="60" height="30" as="geometry" />
        </mxCell>
        <mxCell id="97y2HoLwPn8d9Kt8dTyg-87" value="" style="group" vertex="1" connectable="0" parent="97y2HoLwPn8d9Kt8dTyg-102">
          <mxGeometry x="360" width="100" height="99.99999999999989" as="geometry" />
        </mxCell>
        <mxCell id="97y2HoLwPn8d9Kt8dTyg-100" value="" style="group" vertex="1" connectable="0" parent="97y2HoLwPn8d9Kt8dTyg-87">
          <mxGeometry width="100" height="99.99999999999989" as="geometry" />
        </mxCell>
        <mxCell id="97y2HoLwPn8d9Kt8dTyg-19" value="" style="shape=image;verticalLabelPosition=bottom;verticalAlign=top;imageAspect=0;aspect=fixed;image=data:image/svg+xml,PHN2ZyB4bWxucz0iaHR0cDovL3d3dy53My5vcmcvMjAwMC9zdmciIGlkPSJzdmc3MzYyIiB2ZXJzaW9uPSIxLjEiIHZpZXdCb3g9IjAgMCA3LjkzNzQ5ODEgMTUuODc1IiBoZWlnaHQ9IjE1Ljg3NW1tIiB3aWR0aD0iNy45Mzc0OTgxbW0iPiYjeGE7ICAmI3hhOyAgICAmI3hhOyAgJiN4YTsgIDxkZWZzIGlkPSJkZWZzNzM1OSIvPiYjeGE7ICA8ZyB0cmFuc2Zvcm09InRyYW5zbGF0ZSgtMjIuNTEwMjYyLC0zMy4wNzI5MTMpIiBpZD0ibGF5ZXI1Ij4mI3hhOyAgICA8ZyBpZD0ibGF5ZXI2Ij4mI3hhOyAgICAgIDxyZWN0IHRyYW5zZm9ybT0ic2NhbGUoLTEpIiByeT0iMi42NDU4MzMzIiB5PSItNDcuNjI0OTk2IiB4PSItMjkuMTI0ODQ2IiBoZWlnaHQ9IjEzLjIyOTE2NiIgd2lkdGg9IjUuMjkxNjY3OSIgaWQ9InJlY3Q5MTgiIHN0eWxlPSJmaWxsOiNmZmZmZmY7c3Ryb2tlOiMwMDAwMDA7c3Ryb2tlLXdpZHRoOjIuNjQ1ODM7c3Ryb2tlLWxpbmVjYXA6cm91bmQ7c3Ryb2tlLWRhc2hhcnJheTpub25lO3BhaW50LW9yZGVyOnN0cm9rZSBtYXJrZXJzIGZpbGw7c3RvcC1jb2xvcjojMDAwMDAwIi8+JiN4YTsgICAgPC9nPiYjeGE7ICA8L2c+JiN4YTs8L3N2Zz4=" vertex="1" parent="97y2HoLwPn8d9Kt8dTyg-100">
          <mxGeometry x="15" width="30" height="60" as="geometry" />
        </mxCell>
        <mxCell id="97y2HoLwPn8d9Kt8dTyg-20" value="&lt;font face=&quot;Maven Pro&quot;&gt;&lt;span style=&quot;font-size: 20px;&quot;&gt;&lt;b&gt;Fastp&lt;/b&gt;&lt;/span&gt;&lt;/font&gt;" style="text;html=1;strokeColor=none;fillColor=none;align=center;verticalAlign=middle;whiteSpace=wrap;rounded=0;fontColor=default;" vertex="1" parent="97y2HoLwPn8d9Kt8dTyg-100">
          <mxGeometry y="69.99999999999989" width="60" height="30" as="geometry" />
        </mxCell>
        <mxCell id="97y2HoLwPn8d9Kt8dTyg-206" value="" style="shape=stencil(vZXdcoMgEIWfhltGlkiSy45N34MaUpkacNAk5u2Dgqn1JzN1sDPeeJb9WM4yLKJJmfFCIIh4WYi0QvQdAVy5kfwztzLYSOZEYHgT7ygFp94m1bIy+lvc5LHyWVJlwsiqidIDit7smuajSaqVshtKrcpfkV7cwrhUNjeqHSxym9z9H4bYCYXd4iwqYVyAOBXBx1JyKCxZr+AnK3TNIzJZyWQczIyhzQFdXs3kf/J4u5rJ4cg/rPA2b1fymSzH0sQqc88fTU7aiC+jL+o4WcxJ5rl7ZV9UXPDm/R0FuvBZX0XfpOGliV750UFyqXoQhhlpBgEsQaUX4woi3jiKAfaEMQ8jA1oNk8Pn7uUYt8nMt76m06u9TPZ4t6HdPfnLmYfASXWuRVaf6ZKdyXP9bdNGF6RV3RxvhQc=);whiteSpace=wrap;html=1;strokeWidth=10;fillColor=none;strokeColor=light-dark(#ae63fa, #ededed);points=[[0,0,0,0,0],[1,1,0,0,0]];flipV=1;" vertex="1" parent="97y2HoLwPn8d9Kt8dTyg-100">
          <mxGeometry x="45" y="-19" width="51" height="35" as="geometry" />
        </mxCell>
        <mxCell id="97y2HoLwPn8d9Kt8dTyg-223" value="" style="shape=stencil(nZPBkoMgDIafhisDARWPO273PVhLV2YtOGhb+/YFoR1ta2e7Dhe/JH9CEhCr+kZ2CgGRfafqAbFPBHCUTsvv1mPwliZCCpjxAgIK9BQpCAzhY5H2g7O/6qS3Q4rSplFOD8HKNoh8eJ9wWFVbY3xCbU2/sMzsXkxq42PJGMVITHJe/HVef68G5VKZkSL4+rMsXcjSd2RZ5cnaVVi1s079OHsw26fF7HTbxo69qLiToZcPhqt5b49q1iFMCJS85NmyVZi8astVq9VmplVgkolMcPofqfrgYl009Y9jSjkAT2L0Tm2E5FdiTgm5JU2Y4QwYyUVavpGl7eM4L4u8EMk7YYEFLYQo4f1L3+3z+enur43K85Vp+Xe2Nucp7GFRJhrf5gQu);whiteSpace=wrap;html=1;strokeWidth=10;fillColor=none;strokeColor=#FA6863;flipV=1;" vertex="1" parent="97y2HoLwPn8d9Kt8dTyg-100">
          <mxGeometry x="45" y="14" width="50" height="12" as="geometry" />
        </mxCell>
        <mxCell id="97y2HoLwPn8d9Kt8dTyg-181" value="" style="endArrow=none;html=1;rounded=0;strokeWidth=10;strokeColor=#ECDC86;entryX=0;entryY=0;entryDx=0;entryDy=0;exitX=1;exitY=0.5;exitDx=0;exitDy=0;entryPerimeter=0;" edge="1" parent="97y2HoLwPn8d9Kt8dTyg-100" target="97y2HoLwPn8d9Kt8dTyg-436">
          <mxGeometry width="50" height="50" relative="1" as="geometry">
            <mxPoint x="45" y="36" as="sourcePoint" />
            <mxPoint x="745" y="34" as="targetPoint" />
          </mxGeometry>
        </mxCell>
        <mxCell id="97y2HoLwPn8d9Kt8dTyg-239" value="" style="shape=stencil(nZPBkoMgDIafhisDARWPO273PVhLV2YtOGhb+/YFoR1ta2e7Dhe/JH9CEhCr+kZ2CgGRfafqAbFPBHCUTsvv1mPwliZCCpjxAgIK9BQpCAzhY5H2g7O/6qS3Q4rSplFOD8HKNoh8eJ9wWFVbY3xCbU2/sMzsXkxq42PJGMVITHJe/HVef68G5VKZkSL4+rMsXcjSd2RZ5cnaVVi1s079OHsw26fF7HTbxo69qLiToZcPhqt5b49q1iFMCJS85NmyVZi8astVq9VmplVgkolMcPofqfrgYl009Y9jSjkAT2L0Tm2E5FdiTgm5JU2Y4QwYyUVavpGl7eM4L4u8EMk7YYEFLYQo4f1L3+3z+enur43K85Vp+Xe2Nucp7GFRJhrf5gQu);whiteSpace=wrap;html=1;strokeWidth=10;fillColor=none;strokeColor=#24B064;flipV=0;" vertex="1" parent="97y2HoLwPn8d9Kt8dTyg-100">
          <mxGeometry x="45" y="44" width="55" height="12" as="geometry" />
        </mxCell>
        <mxCell id="97y2HoLwPn8d9Kt8dTyg-88" value="" style="group" vertex="1" connectable="0" parent="97y2HoLwPn8d9Kt8dTyg-102">
          <mxGeometry x="148" y="94.00000000000011" width="332" height="139.9999999999999" as="geometry" />
        </mxCell>
        <mxCell id="97y2HoLwPn8d9Kt8dTyg-195" value="" style="group" vertex="1" connectable="0" parent="97y2HoLwPn8d9Kt8dTyg-88">
          <mxGeometry x="-179" y="-40.000000000000114" width="511" height="180" as="geometry" />
        </mxCell>
        <mxCell id="97y2HoLwPn8d9Kt8dTyg-258" value="" style="shape=stencil(nZPBkoMgDIafhisDARWPO273PVhLV2YtOGhb+/YFoR1ta2e7Dhe/JH9CEhCr+kZ2CgGRfafqAbFPBHCUTsvv1mPwliZCCpjxAgIK9BQpCAzhY5H2g7O/6qS3Q4rSplFOD8HKNoh8eJ9wWFVbY3xCbU2/sMzsXkxq42PJGMVITHJe/HVef68G5VKZkSL4+rMsXcjSd2RZ5cnaVVi1s079OHsw26fF7HTbxo69qLiToZcPhqt5b49q1iFMCJS85NmyVZi8astVq9VmplVgkolMcPofqfrgYl009Y9jSjkAT2L0Tm2E5FdiTgm5JU2Y4QwYyUVavpGl7eM4L4u8EMk7YYEFLYQo4f1L3+3z+enur43K85Vp+Xe2Nucp7GFRJhrf5gQu);whiteSpace=wrap;html=1;strokeWidth=10;fillColor=none;strokeColor=#3D95FD;flipV=1;" vertex="1" parent="97y2HoLwPn8d9Kt8dTyg-195">
          <mxGeometry x="447" y="82.5" width="45.5" height="15" as="geometry" />
        </mxCell>
        <mxCell id="97y2HoLwPn8d9Kt8dTyg-426" value="" style="endArrow=none;html=1;rounded=0;strokeWidth=10;strokeColor=#3D95FD;entryX=0.013;entryY=-0.002;entryDx=0;entryDy=0;entryPerimeter=0;" edge="1" parent="97y2HoLwPn8d9Kt8dTyg-195" target="97y2HoLwPn8d9Kt8dTyg-258">
          <mxGeometry width="50" height="50" relative="1" as="geometry">
            <mxPoint x="-24" y="98" as="sourcePoint" />
            <mxPoint x="401" y="93" as="targetPoint" />
          </mxGeometry>
        </mxCell>
        <mxCell id="97y2HoLwPn8d9Kt8dTyg-68" value="&lt;font face=&quot;Maven Pro&quot;&gt;&lt;span style=&quot;font-size: 20px;&quot;&gt;&lt;b&gt;Format References&lt;/b&gt;&lt;/span&gt;&lt;/font&gt;" style="text;html=1;strokeColor=none;fillColor=none;align=center;verticalAlign=middle;whiteSpace=wrap;rounded=0;fontColor=default;" vertex="1" parent="97y2HoLwPn8d9Kt8dTyg-102">
          <mxGeometry x="125.78999999999999" y="164" width="152.5" height="70" as="geometry" />
        </mxCell>
        <mxCell id="97y2HoLwPn8d9Kt8dTyg-159" value="" style="group" vertex="1" connectable="0" parent="1">
          <mxGeometry x="1626" y="187.0000000000001" width="170" height="155.9999999999999" as="geometry" />
        </mxCell>
        <mxCell id="97y2HoLwPn8d9Kt8dTyg-445" value="" style="group" vertex="1" connectable="0" parent="97y2HoLwPn8d9Kt8dTyg-159">
          <mxGeometry x="55" y="40" width="115" height="70" as="geometry" />
        </mxCell>
        <mxCell id="97y2HoLwPn8d9Kt8dTyg-319" value="" style="shape=stencil(vZXdcoMgEIWfhltGlkiSy45N34MaUpkacNAk5u2Dgqn1JzN1sDPeeJb9WM4yLKJJmfFCIIh4WYi0QvQdAVy5kfwztzLYSOZEYHgT7ygFp94m1bIy+lvc5LHyWVJlwsiqidIDit7smuajSaqVshtKrcpfkV7cwrhUNjeqHSxym9z9H4bYCYXd4iwqYVyAOBXBx1JyKCxZr+AnK3TNIzJZyWQczIyhzQFdXs3kf/J4u5rJ4cg/rPA2b1fymSzH0sQqc88fTU7aiC+jL+o4WcxJ5rl7ZV9UXPDm/R0FuvBZX0XfpOGliV750UFyqXoQhhlpBgEsQaUX4woi3jiKAfaEMQ8jA1oNk8Pn7uUYt8nMt76m06u9TPZ4t6HdPfnLmYfASXWuRVaf6ZKdyXP9bdNGF6RV3RxvhQc=);whiteSpace=wrap;html=1;strokeWidth=10;fillColor=none;strokeColor=light-dark(#ae63fa, #3480d9);points=[[0,0,0,0,0],[1,1,0,0,0]];" vertex="1" parent="97y2HoLwPn8d9Kt8dTyg-445">
          <mxGeometry x="40" width="75" height="70" as="geometry" />
        </mxCell>
        <mxCell id="97y2HoLwPn8d9Kt8dTyg-433" value="" style="shape=stencil(vZXdcoMgEIWfhltGlkiSy45N34MaUpkacNAk5u2Dgqn1JzN1sDPeeJb9WM4yLKJJmfFCIIh4WYi0QvQdAVy5kfwztzLYSOZEYHgT7ygFp94m1bIy+lvc5LHyWVJlwsiqidIDit7smuajSaqVshtKrcpfkV7cwrhUNjeqHSxym9z9H4bYCYXd4iwqYVyAOBXBx1JyKCxZr+AnK3TNIzJZyWQczIyhzQFdXs3kf/J4u5rJ4cg/rPA2b1fymSzH0sQqc88fTU7aiC+jL+o4WcxJ5rl7ZV9UXPDm/R0FuvBZX0XfpOGliV750UFyqXoQhhlpBgEsQaUX4woi3jiKAfaEMQ8jA1oNk8Pn7uUYt8nMt76m06u9TPZ4t6HdPfnLmYfASXWuRVaf6ZKdyXP9bdNGF6RV3RxvhQc=);whiteSpace=wrap;html=1;strokeWidth=10;fillColor=none;strokeColor=light-dark(#fa6863, #3480d9);points=[[0,0,0,0,0],[1,1,0,0,0]];" vertex="1" parent="97y2HoLwPn8d9Kt8dTyg-445">
          <mxGeometry x="44" y="10" width="62" height="60" as="geometry" />
        </mxCell>
        <mxCell id="97y2HoLwPn8d9Kt8dTyg-436" value="" style="shape=stencil(vZXdcoMgEIWfhltGlkiSy45N34MaUpkacNAk5u2Dgqn1JzN1sDPeeJb9WM4yLKJJmfFCIIh4WYi0QvQdAVy5kfwztzLYSOZEYHgT7ygFp94m1bIy+lvc5LHyWVJlwsiqidIDit7smuajSaqVshtKrcpfkV7cwrhUNjeqHSxym9z9H4bYCYXd4iwqYVyAOBXBx1JyKCxZr+AnK3TNIzJZyWQczIyhzQFdXs3kf/J4u5rJ4cg/rPA2b1fymSzH0sQqc88fTU7aiC+jL+o4WcxJ5rl7ZV9UXPDm/R0FuvBZX0XfpOGliV750UFyqXoQhhlpBgEsQaUX4woi3jiKAfaEMQ8jA1oNk8Pn7uUYt8nMt76m06u9TPZ4t6HdPfnLmYfASXWuRVaf6ZKdyXP9bdNGF6RV3RxvhQc=);whiteSpace=wrap;html=1;strokeWidth=10;fillColor=none;strokeColor=light-dark(#ecdc86, #3480d9);points=[[0,0,0,0,0],[1,1,0,0,0]];" vertex="1" parent="97y2HoLwPn8d9Kt8dTyg-445">
          <mxGeometry x="54" y="20" width="42" height="50" as="geometry" />
        </mxCell>
        <mxCell id="97y2HoLwPn8d9Kt8dTyg-438" value="" style="shape=stencil(vZXdcoMgEIWfhltGlkiSy45N34MaUpkacNAk5u2Dgqn1JzN1sDPeeJb9WM4yLKJJmfFCIIh4WYi0QvQdAVy5kfwztzLYSOZEYHgT7ygFp94m1bIy+lvc5LHyWVJlwsiqidIDit7smuajSaqVshtKrcpfkV7cwrhUNjeqHSxym9z9H4bYCYXd4iwqYVyAOBXBx1JyKCxZr+AnK3TNIzJZyWQczIyhzQFdXs3kf/J4u5rJ4cg/rPA2b1fymSzH0sQqc88fTU7aiC+jL+o4WcxJ5rl7ZV9UXPDm/R0FuvBZX0XfpOGliV750UFyqXoQhhlpBgEsQaUX4woi3jiKAfaEMQ8jA1oNk8Pn7uUYt8nMt76m06u9TPZ4t6HdPfnLmYfASXWuRVaf6ZKdyXP9bdNGF6RV3RxvhQc=);whiteSpace=wrap;html=1;strokeWidth=10;fillColor=none;strokeColor=light-dark(#3d95fd, #3480d9);points=[[0,0,0,0,0],[1,1,0,0,0]];" vertex="1" parent="97y2HoLwPn8d9Kt8dTyg-445">
          <mxGeometry x="55" y="30" width="32" height="40" as="geometry" />
        </mxCell>
        <mxCell id="97y2HoLwPn8d9Kt8dTyg-440" value="" style="shape=stencil(vZXdcoMgEIWfhltGlkiSy45N34MaUpkacNAk5u2Dgqn1JzN1sDPeeJb9WM4yLKJJmfFCIIh4WYi0QvQdAVy5kfwztzLYSOZEYHgT7ygFp94m1bIy+lvc5LHyWVJlwsiqidIDit7smuajSaqVshtKrcpfkV7cwrhUNjeqHSxym9z9H4bYCYXd4iwqYVyAOBXBx1JyKCxZr+AnK3TNIzJZyWQczIyhzQFdXs3kf/J4u5rJ4cg/rPA2b1fymSzH0sQqc88fTU7aiC+jL+o4WcxJ5rl7ZV9UXPDm/R0FuvBZX0XfpOGliV750UFyqXoQhhlpBgEsQaUX4woi3jiKAfaEMQ8jA1oNk8Pn7uUYt8nMt76m06u9TPZ4t6HdPfnLmYfASXWuRVaf6ZKdyXP9bdNGF6RV3RxvhQc=);whiteSpace=wrap;html=1;strokeWidth=10;fillColor=none;strokeColor=light-dark(#24b064, #3480d9);points=[[0,0,0,0,0],[1,1,0,0,0]];" vertex="1" parent="97y2HoLwPn8d9Kt8dTyg-445">
          <mxGeometry x="61" y="40" width="16" height="30" as="geometry" />
        </mxCell>
        <mxCell id="97y2HoLwPn8d9Kt8dTyg-441" value="" style="endArrow=none;html=1;rounded=0;strokeWidth=10;strokeColor=light-dark(#24b064, #3480d9);exitX=0.006;exitY=-0.004;exitDx=0;exitDy=0;entryX=0;entryY=0;entryDx=0;entryDy=0;entryPerimeter=0;exitPerimeter=0;" edge="1" parent="97y2HoLwPn8d9Kt8dTyg-445" target="97y2HoLwPn8d9Kt8dTyg-440">
          <mxGeometry width="50" height="50" relative="1" as="geometry">
            <mxPoint x="-0.4619999999999891" y="38.887999999999806" as="sourcePoint" />
            <mxPoint x="54" y="19.999999999999886" as="targetPoint" />
          </mxGeometry>
        </mxCell>
        <mxCell id="97y2HoLwPn8d9Kt8dTyg-443" value="" style="endArrow=none;html=1;rounded=0;strokeWidth=10;strokeColor=light-dark(#f18046, #3480d9);exitX=0.006;exitY=-0.004;exitDx=0;exitDy=0;entryX=0;entryY=0;entryDx=0;entryDy=0;entryPerimeter=0;exitPerimeter=0;" edge="1" parent="97y2HoLwPn8d9Kt8dTyg-445" target="97y2HoLwPn8d9Kt8dTyg-442">
          <mxGeometry width="50" height="50" relative="1" as="geometry">
            <mxPoint y="49" as="sourcePoint" />
            <mxPoint x="61" y="49.999999999999886" as="targetPoint" />
          </mxGeometry>
        </mxCell>
        <mxCell id="97y2HoLwPn8d9Kt8dTyg-442" value="" style="shape=stencil(vZXdcoMgEIWfhltGlkiSy45N34MaUpkacNAk5u2Dgqn1JzN1sDPeeJb9WM4yLKJJmfFCIIh4WYi0QvQdAVy5kfwztzLYSOZEYHgT7ygFp94m1bIy+lvc5LHyWVJlwsiqidIDit7smuajSaqVshtKrcpfkV7cwrhUNjeqHSxym9z9H4bYCYXd4iwqYVyAOBXBx1JyKCxZr+AnK3TNIzJZyWQczIyhzQFdXs3kf/J4u5rJ4cg/rPA2b1fymSzH0sQqc88fTU7aiC+jL+o4WcxJ5rl7ZV9UXPDm/R0FuvBZX0XfpOGliV750UFyqXoQhhlpBgEsQaUX4woi3jiKAfaEMQ8jA1oNk8Pn7uUYt8nMt76m06u9TPZ4t6HdPfnLmYfASXWuRVaf6ZKdyXP9bdNGF6RV3RxvhQc=);whiteSpace=wrap;html=1;strokeWidth=10;fillColor=none;strokeColor=light-dark(#f18046, #3480d9);points=[[0,0,0,0,0],[1,1,0,0,0]];" vertex="1" parent="97y2HoLwPn8d9Kt8dTyg-445">
          <mxGeometry x="63" y="50" width="4" height="20" as="geometry" />
        </mxCell>
        <mxCell id="97y2HoLwPn8d9Kt8dTyg-156" value="&lt;font face=&quot;Maven Pro&quot;&gt;&lt;span style=&quot;font-size: 20px;&quot;&gt;&lt;b&gt;Finalize References&lt;/b&gt;&lt;/span&gt;&lt;/font&gt;" style="text;html=1;strokeColor=none;fillColor=none;align=center;verticalAlign=middle;whiteSpace=wrap;rounded=0;fontColor=default;" vertex="1" parent="97y2HoLwPn8d9Kt8dTyg-159">
          <mxGeometry x="-10" y="95.99999999999989" width="140" height="60" as="geometry" />
        </mxCell>
        <mxCell id="97y2HoLwPn8d9Kt8dTyg-167" value="" style="shape=image;verticalLabelPosition=bottom;verticalAlign=top;imageAspect=0;aspect=fixed;image=data:image/svg+xml,PHN2ZyB4bWxucz0iaHR0cDovL3d3dy53My5vcmcvMjAwMC9zdmciIGlkPSJzdmc3MzYyIiB2ZXJzaW9uPSIxLjEiIHZpZXdCb3g9IjAgMCA3LjkzNzQ5NjcgNy45Mzc0OTYyIiBoZWlnaHQ9IjcuOTM3NDk2Mm1tIiB3aWR0aD0iNy45Mzc0OTY3bW0iPiYjeGE7ICAmI3hhOyAgICAmI3hhOyAgJiN4YTsgIDxkZWZzIGlkPSJkZWZzNzM1OSIvPiYjeGE7ICA8ZyB0cmFuc2Zvcm09InRyYW5zbGF0ZSgtMy45ODk0MzAzLC0zMy4wNzI5MjEpIiBpZD0ibGF5ZXI1Ij4mI3hhOyAgICA8ZyBpZD0ibGF5ZXI2Ij4mI3hhOyAgICAgIDxjaXJjbGUgcj0iMi42NDU4MzMzIiBjeT0iMzcuMDQxNjY4IiBjeD0iNy45NTgxNzg1IiBpZD0icGF0aDM0NDciIHN0eWxlPSJmaWxsOiNmZmZmZmY7c3Ryb2tlOiMwMDAwMDA7c3Ryb2tlLXdpZHRoOjIuNjQ1ODM7c3Ryb2tlLWxpbmVjYXA6cm91bmQ7c3Ryb2tlLW1pdGVybGltaXQ6NDtzdHJva2UtZGFzaGFycmF5Om5vbmU7cGFpbnQtb3JkZXI6c3Ryb2tlIG1hcmtlcnMgZmlsbDtzdG9wLWNvbG9yOiMwMDAwMDAiLz4mI3hhOyAgICA8L2c+JiN4YTsgIDwvZz4mI3hhOzwvc3ZnPg==" vertex="1" parent="1">
          <mxGeometry x="870" y="24" width="30" height="30" as="geometry" />
        </mxCell>
        <mxCell id="97y2HoLwPn8d9Kt8dTyg-80" value="" style="group" vertex="1" connectable="0" parent="1">
          <mxGeometry x="1549.38" y="623.5000000000001" width="280" height="124.99999999999989" as="geometry" />
        </mxCell>
        <mxCell id="97y2HoLwPn8d9Kt8dTyg-285" value="" style="shape=stencil(nZPBkoMgDIafhisDARWPO273PVhLV2YtOGhb+/YFoR1ta2e7Dhe/JH9CEhCr+kZ2CgGRfafqAbFPBHCUTsvv1mPwliZCCpjxAgIK9BQpCAzhY5H2g7O/6qS3Q4rSplFOD8HKNoh8eJ9wWFVbY3xCbU2/sMzsXkxq42PJGMVITHJe/HVef68G5VKZkSL4+rMsXcjSd2RZ5cnaVVi1s079OHsw26fF7HTbxo69qLiToZcPhqt5b49q1iFMCJS85NmyVZi8astVq9VmplVgkolMcPofqfrgYl009Y9jSjkAT2L0Tm2E5FdiTgm5JU2Y4QwYyUVavpGl7eM4L4u8EMk7YYEFLYQo4f1L3+3z+enur43K85Vp+Xe2Nucp7GFRJhrf5gQu);whiteSpace=wrap;html=1;strokeWidth=10;fillColor=none;strokeColor=light-dark(#b067fa, #be5d2b);rotation=-180;flipV=0;flipH=1;" vertex="1" parent="97y2HoLwPn8d9Kt8dTyg-80">
          <mxGeometry x="38" y="-133" width="201" height="182" as="geometry" />
        </mxCell>
        <mxCell id="97y2HoLwPn8d9Kt8dTyg-480" value="" style="shape=stencil(nZPBkoMgDIafhisDARWPO273PVhLV2YtOGhb+/YFoR1ta2e7Dhe/JH9CEhCr+kZ2CgGRfafqAbFPBHCUTsvv1mPwliZCCpjxAgIK9BQpCAzhY5H2g7O/6qS3Q4rSplFOD8HKNoh8eJ9wWFVbY3xCbU2/sMzsXkxq42PJGMVITHJe/HVef68G5VKZkSL4+rMsXcjSd2RZ5cnaVVi1s079OHsw26fF7HTbxo69qLiToZcPhqt5b49q1iFMCJS85NmyVZi8astVq9VmplVgkolMcPofqfrgYl009Y9jSjkAT2L0Tm2E5FdiTgm5JU2Y4QwYyUVavpGl7eM4L4u8EMk7YYEFLYQo4f1L3+3z+enur43K85Vp+Xe2Nucp7GFRJhrf5gQu);whiteSpace=wrap;html=1;strokeWidth=10;fillColor=none;strokeColor=light-dark(#fa6863, #be5d2b);rotation=-180;flipV=0;flipH=1;" vertex="1" parent="97y2HoLwPn8d9Kt8dTyg-80">
          <mxGeometry x="38" y="-142.5" width="195" height="182" as="geometry" />
        </mxCell>
        <mxCell id="97y2HoLwPn8d9Kt8dTyg-481" value="" style="shape=stencil(nZPBkoMgDIafhisDARWPO273PVhLV2YtOGhb+/YFoR1ta2e7Dhe/JH9CEhCr+kZ2CgGRfafqAbFPBHCUTsvv1mPwliZCCpjxAgIK9BQpCAzhY5H2g7O/6qS3Q4rSplFOD8HKNoh8eJ9wWFVbY3xCbU2/sMzsXkxq42PJGMVITHJe/HVef68G5VKZkSL4+rMsXcjSd2RZ5cnaVVi1s079OHsw26fF7HTbxo69qLiToZcPhqt5b49q1iFMCJS85NmyVZi8astVq9VmplVgkolMcPofqfrgYl009Y9jSjkAT2L0Tm2E5FdiTgm5JU2Y4QwYyUVavpGl7eM4L4u8EMk7YYEFLYQo4f1L3+3z+enur43K85Vp+Xe2Nucp7GFRJhrf5gQu);whiteSpace=wrap;html=1;strokeWidth=10;fillColor=none;strokeColor=light-dark(#ecdc86, #be5d2b);rotation=-180;flipV=0;flipH=1;" vertex="1" parent="97y2HoLwPn8d9Kt8dTyg-80">
          <mxGeometry x="38" y="-152.5" width="189" height="182" as="geometry" />
        </mxCell>
        <mxCell id="97y2HoLwPn8d9Kt8dTyg-482" value="" style="shape=stencil(nZPBkoMgDIafhisDARWPO273PVhLV2YtOGhb+/YFoR1ta2e7Dhe/JH9CEhCr+kZ2CgGRfafqAbFPBHCUTsvv1mPwliZCCpjxAgIK9BQpCAzhY5H2g7O/6qS3Q4rSplFOD8HKNoh8eJ9wWFVbY3xCbU2/sMzsXkxq42PJGMVITHJe/HVef68G5VKZkSL4+rMsXcjSd2RZ5cnaVVi1s079OHsw26fF7HTbxo69qLiToZcPhqt5b49q1iFMCJS85NmyVZi8astVq9VmplVgkolMcPofqfrgYl009Y9jSjkAT2L0Tm2E5FdiTgm5JU2Y4QwYyUVavpGl7eM4L4u8EMk7YYEFLYQo4f1L3+3z+enur43K85Vp+Xe2Nucp7GFRJhrf5gQu);whiteSpace=wrap;html=1;strokeWidth=10;fillColor=none;strokeColor=light-dark(#3d95fd, #be5d2b);rotation=-180;flipV=0;flipH=1;" vertex="1" parent="97y2HoLwPn8d9Kt8dTyg-80">
          <mxGeometry x="36" y="-162.5" width="182" height="182" as="geometry" />
        </mxCell>
        <mxCell id="97y2HoLwPn8d9Kt8dTyg-483" value="" style="shape=stencil(nZPBkoMgDIafhisDARWPO273PVhLV2YtOGhb+/YFoR1ta2e7Dhe/JH9CEhCr+kZ2CgGRfafqAbFPBHCUTsvv1mPwliZCCpjxAgIK9BQpCAzhY5H2g7O/6qS3Q4rSplFOD8HKNoh8eJ9wWFVbY3xCbU2/sMzsXkxq42PJGMVITHJe/HVef68G5VKZkSL4+rMsXcjSd2RZ5cnaVVi1s079OHsw26fF7HTbxo69qLiToZcPhqt5b49q1iFMCJS85NmyVZi8astVq9VmplVgkolMcPofqfrgYl009Y9jSjkAT2L0Tm2E5FdiTgm5JU2Y4QwYyUVavpGl7eM4L4u8EMk7YYEFLYQo4f1L3+3z+enur43K85Vp+Xe2Nucp7GFRJhrf5gQu);whiteSpace=wrap;html=1;strokeWidth=10;fillColor=none;strokeColor=light-dark(#24b064, #be5d2b);rotation=-180;flipV=0;flipH=1;" vertex="1" parent="97y2HoLwPn8d9Kt8dTyg-80">
          <mxGeometry x="37" y="-172.5" width="173" height="182" as="geometry" />
        </mxCell>
        <mxCell id="97y2HoLwPn8d9Kt8dTyg-484" value="" style="shape=stencil(nZPBkoMgDIafhisDARWPO273PVhLV2YtOGhb+/YFoR1ta2e7Dhe/JH9CEhCr+kZ2CgGRfafqAbFPBHCUTsvv1mPwliZCCpjxAgIK9BQpCAzhY5H2g7O/6qS3Q4rSplFOD8HKNoh8eJ9wWFVbY3xCbU2/sMzsXkxq42PJGMVITHJe/HVef68G5VKZkSL4+rMsXcjSd2RZ5cnaVVi1s079OHsw26fF7HTbxo69qLiToZcPhqt5b49q1iFMCJS85NmyVZi8astVq9VmplVgkolMcPofqfrgYl009Y9jSjkAT2L0Tm2E5FdiTgm5JU2Y4QwYyUVavpGl7eM4L4u8EMk7YYEFLYQo4f1L3+3z+enur43K85Vp+Xe2Nucp7GFRJhrf5gQu);whiteSpace=wrap;html=1;strokeWidth=10;fillColor=none;strokeColor=light-dark(#f18046, #be5d2b);rotation=-180;flipV=0;flipH=1;" vertex="1" parent="97y2HoLwPn8d9Kt8dTyg-80">
          <mxGeometry x="37" y="-182" width="165" height="182" as="geometry" />
        </mxCell>
        <mxCell id="97y2HoLwPn8d9Kt8dTyg-82" value="" style="group" vertex="1" connectable="0" parent="1">
          <mxGeometry x="1160.38" y="551.0000000000001" width="160" height="124.99999999999989" as="geometry" />
        </mxCell>
        <mxCell id="97y2HoLwPn8d9Kt8dTyg-61" value="&lt;font face=&quot;Maven Pro&quot;&gt;&lt;span style=&quot;font-size: 20px;&quot;&gt;&lt;b&gt;vaper-condense.py&lt;/b&gt;&lt;/span&gt;&lt;/font&gt;" style="text;html=1;strokeColor=none;fillColor=none;align=center;verticalAlign=middle;whiteSpace=wrap;rounded=0;fontColor=default;" vertex="1" parent="97y2HoLwPn8d9Kt8dTyg-82">
          <mxGeometry y="64.99999999999989" width="160" height="60" as="geometry" />
        </mxCell>
        <mxCell id="97y2HoLwPn8d9Kt8dTyg-155" value="" style="group" vertex="1" connectable="0" parent="1">
          <mxGeometry x="1320" y="550.0000000000001" width="210" height="124.99999999999989" as="geometry" />
        </mxCell>
        <mxCell id="97y2HoLwPn8d9Kt8dTyg-558" value="" style="endArrow=none;html=1;rounded=0;strokeWidth=10;strokeColor=light-dark(#ecdc86, #1a9251);entryX=1;entryY=1;entryDx=0;entryDy=0;entryPerimeter=0;" edge="1" parent="97y2HoLwPn8d9Kt8dTyg-155" target="97y2HoLwPn8d9Kt8dTyg-497">
          <mxGeometry width="50" height="50" relative="1" as="geometry">
            <mxPoint x="-586" y="40" as="sourcePoint" />
            <mxPoint x="151" y="44.5" as="targetPoint" />
          </mxGeometry>
        </mxCell>
        <mxCell id="97y2HoLwPn8d9Kt8dTyg-559" value="" style="endArrow=none;html=1;rounded=0;strokeWidth=10;strokeColor=light-dark(#fa6863, #1a9251);entryX=1;entryY=1;entryDx=0;entryDy=0;entryPerimeter=0;" edge="1" parent="97y2HoLwPn8d9Kt8dTyg-155" target="97y2HoLwPn8d9Kt8dTyg-496">
          <mxGeometry width="50" height="50" relative="1" as="geometry">
            <mxPoint x="-586" y="50" as="sourcePoint" />
            <mxPoint x="151" y="50" as="targetPoint" />
          </mxGeometry>
        </mxCell>
        <mxCell id="97y2HoLwPn8d9Kt8dTyg-83" value="" style="group" vertex="1" connectable="0" parent="1">
          <mxGeometry x="1009.38" y="552.5000000000001" width="160" height="124.99999999999989" as="geometry" />
        </mxCell>
        <mxCell id="97y2HoLwPn8d9Kt8dTyg-63" value="&lt;font face=&quot;Maven Pro&quot;&gt;&lt;span style=&quot;font-size: 20px;&quot;&gt;&lt;b&gt;Nextclade&lt;/b&gt;&lt;/span&gt;&lt;/font&gt;" style="text;html=1;strokeColor=none;fillColor=none;align=center;verticalAlign=middle;whiteSpace=wrap;rounded=0;fontColor=default;" vertex="1" parent="97y2HoLwPn8d9Kt8dTyg-83">
          <mxGeometry y="64.99999999999989" width="160" height="60" as="geometry" />
        </mxCell>
        <mxCell id="97y2HoLwPn8d9Kt8dTyg-560" value="" style="endArrow=none;html=1;rounded=0;strokeWidth=10;strokeColor=light-dark(#ae63fa, #1a9251);entryX=1;entryY=1;entryDx=0;entryDy=0;entryPerimeter=0;" edge="1" parent="97y2HoLwPn8d9Kt8dTyg-83" target="97y2HoLwPn8d9Kt8dTyg-495">
          <mxGeometry width="50" height="50" relative="1" as="geometry">
            <mxPoint x="-270" y="57.499999999999886" as="sourcePoint" />
            <mxPoint x="481" y="52.5" as="targetPoint" />
          </mxGeometry>
        </mxCell>
        <mxCell id="97y2HoLwPn8d9Kt8dTyg-204" value="" style="endArrow=none;html=1;rounded=0;strokeWidth=10;strokeColor=#AE63FA;entryX=0;entryY=0;entryDx=0;entryDy=0;exitX=1;exitY=1;exitDx=0;exitDy=0;exitPerimeter=0;" edge="1" parent="1" source="97y2HoLwPn8d9Kt8dTyg-227">
          <mxGeometry width="50" height="50" relative="1" as="geometry">
            <mxPoint x="870" y="110" as="sourcePoint" />
            <mxPoint x="1450.8500000000004" y="107.49999999999977" as="targetPoint" />
          </mxGeometry>
        </mxCell>
        <mxCell id="97y2HoLwPn8d9Kt8dTyg-210" value="" style="shape=stencil(vZXdcoMgEIWfhltGlkiSy45N34MaUpkacNAk5u2Dgqn1JzN1sDPeeJb9WM4yLKJJmfFCIIh4WYi0QvQdAVy5kfwztzLYSOZEYHgT7ygFp94m1bIy+lvc5LHyWVJlwsiqidIDit7smuajSaqVshtKrcpfkV7cwrhUNjeqHSxym9z9H4bYCYXd4iwqYVyAOBXBx1JyKCxZr+AnK3TNIzJZyWQczIyhzQFdXs3kf/J4u5rJ4cg/rPA2b1fymSzH0sQqc88fTU7aiC+jL+o4WcxJ5rl7ZV9UXPDm/R0FuvBZX0XfpOGliV750UFyqXoQhhlpBgEsQaUX4woi3jiKAfaEMQ8jA1oNk8Pn7uUYt8nMt76m06u9TPZ4t6HdPfnLmYfASXWuRVaf6ZKdyXP9bdNGF6RV3RxvhQc=);whiteSpace=wrap;html=1;strokeWidth=10;fillColor=none;strokeColor=light-dark(#ae63fa, #ededed);points=[[0,0,0,0,0],[1,1,0,0,0]];flipV=0;flipH=1;" vertex="1" parent="1">
          <mxGeometry x="425" y="38" width="35" height="35" as="geometry" />
        </mxCell>
        <mxCell id="97y2HoLwPn8d9Kt8dTyg-213" value="" style="endArrow=none;html=1;rounded=0;strokeWidth=10;strokeColor=light-dark(#ae63fa, #ededed);exitX=1;exitY=1;exitDx=0;exitDy=0;exitPerimeter=0;entryX=1;entryY=1;entryDx=0;entryDy=0;entryPerimeter=0;" edge="1" parent="1" source="97y2HoLwPn8d9Kt8dTyg-210" target="97y2HoLwPn8d9Kt8dTyg-214">
          <mxGeometry width="50" height="50" relative="1" as="geometry">
            <mxPoint x="595" y="55" as="sourcePoint" />
            <mxPoint x="425" y="155" as="targetPoint" />
          </mxGeometry>
        </mxCell>
        <mxCell id="97y2HoLwPn8d9Kt8dTyg-214" value="" style="shape=stencil(vZXdcoMgEIWfhltGlkiSy45N34MaUpkacNAk5u2Dgqn1JzN1sDPeeJb9WM4yLKJJmfFCIIh4WYi0QvQdAVy5kfwztzLYSOZEYHgT7ygFp94m1bIy+lvc5LHyWVJlwsiqidIDit7smuajSaqVshtKrcpfkV7cwrhUNjeqHSxym9z9H4bYCYXd4iwqYVyAOBXBx1JyKCxZr+AnK3TNIzJZyWQczIyhzQFdXs3kf/J4u5rJ4cg/rPA2b1fymSzH0sQqc88fTU7aiC+jL+o4WcxJ5rl7ZV9UXPDm/R0FuvBZX0XfpOGliV750UFyqXoQhhlpBgEsQaUX4woi3jiKAfaEMQ8jA1oNk8Pn7uUYt8nMt76m06u9TPZ4t6HdPfnLmYfASXWuRVaf6ZKdyXP9bdNGF6RV3RxvhQc=);whiteSpace=wrap;html=1;strokeWidth=10;fillColor=none;strokeColor=light-dark(#ae63fa, #ededed);points=[[0,0,0,0,0],[1,1,0,0,0]];flipH=1;flipV=1;" vertex="1" parent="1">
          <mxGeometry x="425" y="120" width="35" height="35" as="geometry" />
        </mxCell>
        <mxCell id="97y2HoLwPn8d9Kt8dTyg-215" value="" style="endArrow=none;html=1;rounded=0;strokeWidth=10;strokeColor=light-dark(#ae63fa, #ededed);exitX=0;exitY=0;exitDx=0;exitDy=0;exitPerimeter=0;entryX=1;entryY=1;entryDx=0;entryDy=0;entryPerimeter=0;" edge="1" parent="1" source="97y2HoLwPn8d9Kt8dTyg-214" target="97y2HoLwPn8d9Kt8dTyg-216">
          <mxGeometry width="50" height="50" relative="1" as="geometry">
            <mxPoint x="435" y="74" as="sourcePoint" />
            <mxPoint x="790" y="150" as="targetPoint" />
          </mxGeometry>
        </mxCell>
        <mxCell id="97y2HoLwPn8d9Kt8dTyg-216" value="" style="shape=stencil(vZXdcoMgEIWfhltGlkiSy45N34MaUpkacNAk5u2Dgqn1JzN1sDPeeJb9WM4yLKJJmfFCIIh4WYi0QvQdAVy5kfwztzLYSOZEYHgT7ygFp94m1bIy+lvc5LHyWVJlwsiqidIDit7smuajSaqVshtKrcpfkV7cwrhUNjeqHSxym9z9H4bYCYXd4iwqYVyAOBXBx1JyKCxZr+AnK3TNIzJZyWQczIyhzQFdXs3kf/J4u5rJ4cg/rPA2b1fymSzH0sQqc88fTU7aiC+jL+o4WcxJ5rl7ZV9UXPDm/R0FuvBZX0XfpOGliV750UFyqXoQhhlpBgEsQaUX4woi3jiKAfaEMQ8jA1oNk8Pn7uUYt8nMt76m06u9TPZ4t6HdPfnLmYfASXWuRVaf6ZKdyXP9bdNGF6RV3RxvhQc=);whiteSpace=wrap;html=1;strokeWidth=10;fillColor=none;strokeColor=light-dark(#ae63fa, #ededed);points=[[0,0,0,0,0],[1,1,0,0,0]];flipV=1;rotation=-90;" vertex="1" parent="1">
          <mxGeometry x="790.5" y="155.5" width="36" height="35" as="geometry" />
        </mxCell>
        <mxCell id="97y2HoLwPn8d9Kt8dTyg-217" value="" style="endArrow=none;html=1;rounded=0;strokeWidth=10;strokeColor=light-dark(#ae63fa, #ededed);exitX=1;exitY=1;exitDx=0;exitDy=0;exitPerimeter=0;entryX=0;entryY=0;entryDx=0;entryDy=0;entryPerimeter=0;" edge="1" parent="1" source="97y2HoLwPn8d9Kt8dTyg-206" target="97y2HoLwPn8d9Kt8dTyg-216">
          <mxGeometry width="50" height="50" relative="1" as="geometry">
            <mxPoint x="575" y="125" as="sourcePoint" />
            <mxPoint x="810" y="160" as="targetPoint" />
          </mxGeometry>
        </mxCell>
        <mxCell id="97y2HoLwPn8d9Kt8dTyg-232" value="" style="endArrow=none;html=1;rounded=0;strokeWidth=10;strokeColor=#FA6863;exitX=0.983;exitY=0.952;exitDx=0;exitDy=0;exitPerimeter=0;entryX=0.989;entryY=0.971;entryDx=0;entryDy=0;entryPerimeter=0;" edge="1" parent="1" source="97y2HoLwPn8d9Kt8dTyg-223" target="97y2HoLwPn8d9Kt8dTyg-233">
          <mxGeometry width="50" height="50" relative="1" as="geometry">
            <mxPoint x="820" y="227" as="sourcePoint" />
            <mxPoint x="970" y="110" as="targetPoint" />
          </mxGeometry>
        </mxCell>
        <mxCell id="97y2HoLwPn8d9Kt8dTyg-259" value="" style="shape=stencil(nZPBkoMgDIafhisDARWPO273PVhLV2YtOGhb+/YFoR1ta2e7Dhe/JH9CEhCr+kZ2CgGRfafqAbFPBHCUTsvv1mPwliZCCpjxAgIK9BQpCAzhY5H2g7O/6qS3Q4rSplFOD8HKNoh8eJ9wWFVbY3xCbU2/sMzsXkxq42PJGMVITHJe/HVef68G5VKZkSL4+rMsXcjSd2RZ5cnaVVi1s079OHsw26fF7HTbxo69qLiToZcPhqt5b49q1iFMCJS85NmyVZi8astVq9VmplVgkolMcPofqfrgYl009Y9jSjkAT2L0Tm2E5FdiTgm5JU2Y4QwYyUVavpGl7eM4L4u8EMk7YYEFLYQo4f1L3+3z+enur43K85Vp+Xe2Nucp7GFRJhrf5gQu);whiteSpace=wrap;html=1;strokeWidth=10;fillColor=none;strokeColor=light-dark(#3D95FD,#BE5D2B);flipV=0;flipH=1;" vertex="1" parent="1">
          <mxGeometry x="905" y="252.5" width="123" height="35" as="geometry" />
        </mxCell>
        <mxCell id="97y2HoLwPn8d9Kt8dTyg-260" value="" style="endArrow=none;html=1;rounded=0;strokeWidth=10;strokeColor=#3D95FD;entryX=0.989;entryY=0.993;entryDx=0;entryDy=0;entryPerimeter=0;exitX=0.985;exitY=1.003;exitDx=0;exitDy=0;exitPerimeter=0;" edge="1" parent="1" source="97y2HoLwPn8d9Kt8dTyg-258" target="97y2HoLwPn8d9Kt8dTyg-259">
          <mxGeometry width="50" height="50" relative="1" as="geometry">
            <mxPoint x="830" y="350" as="sourcePoint" />
            <mxPoint x="1041" y="100" as="targetPoint" />
          </mxGeometry>
        </mxCell>
        <mxCell id="97y2HoLwPn8d9Kt8dTyg-178" value="" style="endArrow=none;html=1;rounded=0;strokeWidth=10;strokeColor=#FA6863;exitX=0.004;exitY=-0.001;exitDx=0;exitDy=0;exitPerimeter=0;entryX=0;entryY=0;entryDx=0;entryDy=0;" edge="1" parent="1">
          <mxGeometry width="50" height="50" relative="1" as="geometry">
            <mxPoint x="1029.8" y="117.73649999999998" as="sourcePoint" />
            <mxPoint x="1451" y="117" as="targetPoint" />
          </mxGeometry>
        </mxCell>
        <mxCell id="97y2HoLwPn8d9Kt8dTyg-409" value="" style="group" vertex="1" connectable="0" parent="1">
          <mxGeometry x="1030" y="97.5" width="160" height="102.5" as="geometry" />
        </mxCell>
        <mxCell id="97y2HoLwPn8d9Kt8dTyg-405" value="" style="shape=image;verticalLabelPosition=bottom;verticalAlign=top;imageAspect=0;aspect=fixed;image=data:image/svg+xml,PHN2ZyB4bWxucz0iaHR0cDovL3d3dy53My5vcmcvMjAwMC9zdmciIGlkPSJzdmc3MzYyIiB2ZXJzaW9uPSIxLjEiIHZpZXdCb3g9IjAgMCA3LjkzNzQ5NjcgNy45Mzc0OTYyIiBoZWlnaHQ9IjcuOTM3NDk2Mm1tIiB3aWR0aD0iNy45Mzc0OTY3bW0iPiYjeGE7ICAmI3hhOyAgICAmI3hhOyAgJiN4YTsgIDxkZWZzIGlkPSJkZWZzNzM1OSIvPiYjeGE7ICA8ZyB0cmFuc2Zvcm09InRyYW5zbGF0ZSgtMy45ODk0MzAzLC0zMy4wNzI5MjEpIiBpZD0ibGF5ZXI1Ij4mI3hhOyAgICA8ZyBpZD0ibGF5ZXI2Ij4mI3hhOyAgICAgIDxjaXJjbGUgcj0iMi42NDU4MzMzIiBjeT0iMzcuMDQxNjY4IiBjeD0iNy45NTgxNzg1IiBpZD0icGF0aDM0NDciIHN0eWxlPSJmaWxsOiNmZmZmZmY7c3Ryb2tlOiMwMDAwMDA7c3Ryb2tlLXdpZHRoOjIuNjQ1ODM7c3Ryb2tlLWxpbmVjYXA6cm91bmQ7c3Ryb2tlLW1pdGVybGltaXQ6NDtzdHJva2UtZGFzaGFycmF5Om5vbmU7cGFpbnQtb3JkZXI6c3Ryb2tlIG1hcmtlcnMgZmlsbDtzdG9wLWNvbG9yOiMwMDAwMDAiLz4mI3hhOyAgICA8L2c+JiN4YTsgIDwvZz4mI3hhOzwvc3ZnPg==" vertex="1" parent="97y2HoLwPn8d9Kt8dTyg-409">
          <mxGeometry x="53" width="30" height="30" as="geometry" />
        </mxCell>
        <mxCell id="97y2HoLwPn8d9Kt8dTyg-46" value="&lt;font face=&quot;Maven Pro&quot;&gt;&lt;span style=&quot;font-size: 20px;&quot;&gt;&lt;b&gt;NCBI Datasets&lt;/b&gt;&lt;/span&gt;&lt;/font&gt;" style="text;html=1;strokeColor=none;fillColor=none;align=center;verticalAlign=middle;whiteSpace=wrap;rounded=0;fontColor=default;" vertex="1" parent="97y2HoLwPn8d9Kt8dTyg-409">
          <mxGeometry y="30" width="136" height="30" as="geometry" />
        </mxCell>
        <mxCell id="97y2HoLwPn8d9Kt8dTyg-412" value="" style="group" vertex="1" connectable="0" parent="1">
          <mxGeometry x="1310" y="97.5" width="372" height="140" as="geometry" />
        </mxCell>
        <mxCell id="97y2HoLwPn8d9Kt8dTyg-594" value="" style="shape=stencil(nVTbboMwDP0aHhs5NiHwOLHtP1ibrtFoQIFe9vczJGiL2m5rrbxwbB/7OCYZ1cOu6U2G0Ay9WY8ZPWeIx8bb5q1lGNmzC6DMhWSDPKCngGIpcDIZ0GH03Yc52c0Ys6zbGW/HyUsvGTxxzHSoXnfOcUHbuSHx/PAzWWMd58I5kEEo8hkbCl898+/NaHyCZvj6b1qZ0MI9tFQzcksK1dvOm3ffHdzmajNb27ZhYr903DfTLC8ci3vfHc23lFzoIi/LiswKdDqt9PquV1tIW+tSUqCiosf51gcfupQhWYtCapCoIqW8ynnGCINQJbHF6AWWQqsK8zJGU0qiIBrGNFpqg5qtivaIAMkKiOcsUwEoSMkyX7ZlEYAgNCpQMhWwAgFASuWFTiUgCaZRUqedc/j9l7f8oOnt/UE1r/WNxeMn49bKzmkXOz+j4ZmZgS8=);whiteSpace=wrap;html=1;strokeWidth=10;fillColor=none;strokeColor=light-dark(#fa6863, #dd5f5b);flipV=1;" vertex="1" parent="97y2HoLwPn8d9Kt8dTyg-412">
          <mxGeometry x="138.49459459459456" y="19.5" width="229.48378378378376" height="120.5" as="geometry" />
        </mxCell>
        <mxCell id="97y2HoLwPn8d9Kt8dTyg-596" value="" style="shape=stencil(nVTbboMwDP0aHhs5NiHwOLHtP1ibrtFoQIFe9vczJGiL2m5rrbxwbB/7OCYZ1cOu6U2G0Ay9WY8ZPWeIx8bb5q1lGNmzC6DMhWSDPKCngGIpcDIZ0GH03Yc52c0Ys6zbGW/HyUsvGTxxzHSoXnfOcUHbuSHx/PAzWWMd58I5kEEo8hkbCl898+/NaHyCZvj6b1qZ0MI9tFQzcksK1dvOm3ffHdzmajNb27ZhYr903DfTLC8ci3vfHc23lFzoIi/LiswKdDqt9PquV1tIW+tSUqCiosf51gcfupQhWYtCapCoIqW8ynnGCINQJbHF6AWWQqsK8zJGU0qiIBrGNFpqg5qtivaIAMkKiOcsUwEoSMkyX7ZlEYAgNCpQMhWwAgFASuWFTiUgCaZRUqedc/j9l7f8oOnt/UE1r/WNxeMn49bKzmkXOz+j4ZmZgS8=);whiteSpace=wrap;html=1;strokeWidth=10;fillColor=none;strokeColor=light-dark(#ae63fa, #dd5f5b);flipV=1;" vertex="1" parent="97y2HoLwPn8d9Kt8dTyg-412">
          <mxGeometry x="141.5108108108108" y="9.75" width="229.48378378378376" height="120.5" as="geometry" />
        </mxCell>
        <mxCell id="97y2HoLwPn8d9Kt8dTyg-233" value="" style="shape=stencil(nZPBkoMgDIafhisDARWPO273PVhLV2YtOGhb+/YFoR1ta2e7Dhe/JH9CEhCr+kZ2CgGRfafqAbFPBHCUTsvv1mPwliZCCpjxAgIK9BQpCAzhY5H2g7O/6qS3Q4rSplFOD8HKNoh8eJ9wWFVbY3xCbU2/sMzsXkxq42PJGMVITHJe/HVef68G5VKZkSL4+rMsXcjSd2RZ5cnaVVi1s079OHsw26fF7HTbxo69qLiToZcPhqt5b49q1iFMCJS85NmyVZi8astVq9VmplVgkolMcPofqfrgYl009Y9jSjkAT2L0Tm2E5FdiTgm5JU2Y4QwYyUVavpGl7eM4L4u8EMk7YYEFLYQo4f1L3+3z+enur43K85Vp+Xe2Nucp7GFRJhrf5gQu);whiteSpace=wrap;html=1;strokeWidth=10;fillColor=none;strokeColor=#FA6863;flipV=0;flipH=1;" vertex="1" parent="1">
          <mxGeometry x="980" y="117.75" width="50" height="13.5" as="geometry" />
        </mxCell>
        <mxCell id="97y2HoLwPn8d9Kt8dTyg-125" value="&lt;font face=&quot;Maven Pro&quot;&gt;&lt;span style=&quot;font-size: 20px;&quot;&gt;&lt;b&gt;&#39;fast&#39; mode&lt;/b&gt;&lt;/span&gt;&lt;/font&gt;" style="text;html=1;strokeColor=none;fillColor=none;align=center;verticalAlign=middle;whiteSpace=wrap;rounded=0;fontColor=default;" vertex="1" parent="1">
          <mxGeometry x="994" y="295" width="152.5" height="70" as="geometry" />
        </mxCell>
        <mxCell id="97y2HoLwPn8d9Kt8dTyg-127" value="&lt;font face=&quot;Maven Pro&quot;&gt;&lt;span style=&quot;font-size: 20px;&quot;&gt;&lt;b&gt;&#39;accurate&#39; mode&lt;/b&gt;&lt;/span&gt;&lt;/font&gt;" style="text;html=1;strokeColor=none;fillColor=none;align=center;verticalAlign=middle;whiteSpace=wrap;rounded=0;fontColor=default;" vertex="1" parent="1">
          <mxGeometry x="1014" y="169" width="152.5" height="70" as="geometry" />
        </mxCell>
        <mxCell id="97y2HoLwPn8d9Kt8dTyg-262" value="" style="endArrow=none;html=1;rounded=0;strokeWidth=10;strokeColor=#3D95FD;exitX=0.003;exitY=0.003;exitDx=0;exitDy=0;exitPerimeter=0;entryX=0;entryY=0;entryDx=0;entryDy=0;entryPerimeter=0;" edge="1" parent="1" target="97y2HoLwPn8d9Kt8dTyg-438">
          <mxGeometry width="50" height="50" relative="1" as="geometry">
            <mxPoint x="1027.6309999999999" y="252.60500000000002" as="sourcePoint" />
            <mxPoint x="1720" y="260" as="targetPoint" />
          </mxGeometry>
        </mxCell>
        <mxCell id="97y2HoLwPn8d9Kt8dTyg-22" value="&lt;font face=&quot;Maven Pro&quot;&gt;&lt;span style=&quot;font-size: 20px;&quot;&gt;&lt;b&gt;Shovill&lt;/b&gt;&lt;/span&gt;&lt;/font&gt;" style="text;html=1;strokeColor=none;fillColor=none;align=center;verticalAlign=middle;whiteSpace=wrap;rounded=0;fontColor=default;" vertex="1" parent="1">
          <mxGeometry x="1060" y="266.4999999999999" width="60" height="30" as="geometry" />
        </mxCell>
        <mxCell id="97y2HoLwPn8d9Kt8dTyg-346" value="" style="shape=image;verticalLabelPosition=bottom;verticalAlign=top;imageAspect=0;aspect=fixed;image=data:image/svg+xml,PHN2ZyB4bWxucz0iaHR0cDovL3d3dy53My5vcmcvMjAwMC9zdmciIGlkPSJzdmc3MzYyIiB2ZXJzaW9uPSIxLjEiIHZpZXdCb3g9IjAgMCA3LjkzNzQ5NjcgNy45Mzc0OTYyIiBoZWlnaHQ9IjcuOTM3NDk2Mm1tIiB3aWR0aD0iNy45Mzc0OTY3bW0iPiYjeGE7ICAmI3hhOyAgICAmI3hhOyAgJiN4YTsgIDxkZWZzIGlkPSJkZWZzNzM1OSIvPiYjeGE7ICA8ZyB0cmFuc2Zvcm09InRyYW5zbGF0ZSgtMy45ODk0MzAzLC0zMy4wNzI5MjEpIiBpZD0ibGF5ZXI1Ij4mI3hhOyAgICA8ZyBpZD0ibGF5ZXI2Ij4mI3hhOyAgICAgIDxjaXJjbGUgcj0iMi42NDU4MzMzIiBjeT0iMzcuMDQxNjY4IiBjeD0iNy45NTgxNzg1IiBpZD0icGF0aDM0NDciIHN0eWxlPSJmaWxsOiNmZmZmZmY7c3Ryb2tlOiMwMDAwMDA7c3Ryb2tlLXdpZHRoOjIuNjQ1ODM7c3Ryb2tlLWxpbmVjYXA6cm91bmQ7c3Ryb2tlLW1pdGVybGltaXQ6NDtzdHJva2UtZGFzaGFycmF5Om5vbmU7cGFpbnQtb3JkZXI6c3Ryb2tlIG1hcmtlcnMgZmlsbDtzdG9wLWNvbG9yOiMwMDAwMDAiLz4mI3hhOyAgICA8L2c+JiN4YTsgIDwvZz4mI3hhOzwvc3ZnPg==" vertex="1" parent="1">
          <mxGeometry x="1074" y="235.5" width="30" height="30" as="geometry" />
        </mxCell>
        <mxCell id="97y2HoLwPn8d9Kt8dTyg-34" value="&lt;font face=&quot;Maven Pro&quot;&gt;&lt;span style=&quot;font-size: 20px;&quot;&gt;&lt;b&gt;Minimap2&lt;/b&gt;&lt;/span&gt;&lt;/font&gt;" style="text;html=1;strokeColor=none;fillColor=none;align=center;verticalAlign=middle;whiteSpace=wrap;rounded=0;fontColor=default;" vertex="1" parent="1">
          <mxGeometry x="1238" y="267.5" width="60" height="30" as="geometry" />
        </mxCell>
        <mxCell id="97y2HoLwPn8d9Kt8dTyg-351" value="" style="shape=image;verticalLabelPosition=bottom;verticalAlign=top;imageAspect=0;aspect=fixed;image=data:image/svg+xml,PHN2ZyB4bWxucz0iaHR0cDovL3d3dy53My5vcmcvMjAwMC9zdmciIGlkPSJzdmc3MzYyIiB2ZXJzaW9uPSIxLjEiIHZpZXdCb3g9IjAgMCA3LjkzNzQ5NjcgNy45Mzc0OTYyIiBoZWlnaHQ9IjcuOTM3NDk2Mm1tIiB3aWR0aD0iNy45Mzc0OTY3bW0iPiYjeGE7ICAmI3hhOyAgICAmI3hhOyAgJiN4YTsgIDxkZWZzIGlkPSJkZWZzNzM1OSIvPiYjeGE7ICA8ZyB0cmFuc2Zvcm09InRyYW5zbGF0ZSgtMy45ODk0MzAzLC0zMy4wNzI5MjEpIiBpZD0ibGF5ZXI1Ij4mI3hhOyAgICA8ZyBpZD0ibGF5ZXI2Ij4mI3hhOyAgICAgIDxjaXJjbGUgcj0iMi42NDU4MzMzIiBjeT0iMzcuMDQxNjY4IiBjeD0iNy45NTgxNzg1IiBpZD0icGF0aDM0NDciIHN0eWxlPSJmaWxsOiNmZmZmZmY7c3Ryb2tlOiMwMDAwMDA7c3Ryb2tlLXdpZHRoOjIuNjQ1ODM7c3Ryb2tlLWxpbmVjYXA6cm91bmQ7c3Ryb2tlLW1pdGVybGltaXQ6NDtzdHJva2UtZGFzaGFycmF5Om5vbmU7cGFpbnQtb3JkZXI6c3Ryb2tlIG1hcmtlcnMgZmlsbDtzdG9wLWNvbG9yOiMwMDAwMDAiLz4mI3hhOyAgICA8L2c+JiN4YTsgIDwvZz4mI3hhOzwvc3ZnPg==" vertex="1" parent="1">
          <mxGeometry x="1256" y="234.5" width="30" height="30" as="geometry" />
        </mxCell>
        <mxCell id="97y2HoLwPn8d9Kt8dTyg-36" value="&lt;font face=&quot;Maven Pro&quot;&gt;&lt;span style=&quot;font-size: 20px;&quot;&gt;&lt;b&gt;ref-select_accurate.R&lt;/b&gt;&lt;/span&gt;&lt;/font&gt;" style="text;html=1;strokeColor=none;fillColor=none;align=center;verticalAlign=middle;whiteSpace=wrap;rounded=0;fontColor=default;" vertex="1" parent="1">
          <mxGeometry x="1360" y="266.5" width="210" height="30" as="geometry" />
        </mxCell>
        <mxCell id="97y2HoLwPn8d9Kt8dTyg-359" value="" style="shape=image;verticalLabelPosition=bottom;verticalAlign=top;imageAspect=0;aspect=fixed;image=data:image/svg+xml,PHN2ZyB4bWxucz0iaHR0cDovL3d3dy53My5vcmcvMjAwMC9zdmciIGlkPSJzdmc3MzYyIiB2ZXJzaW9uPSIxLjEiIHZpZXdCb3g9IjAgMCA3LjkzNzQ5NjcgNy45Mzc0OTYyIiBoZWlnaHQ9IjcuOTM3NDk2Mm1tIiB3aWR0aD0iNy45Mzc0OTY3bW0iPiYjeGE7ICAmI3hhOyAgICAmI3hhOyAgJiN4YTsgIDxkZWZzIGlkPSJkZWZzNzM1OSIvPiYjeGE7ICA8ZyB0cmFuc2Zvcm09InRyYW5zbGF0ZSgtMy45ODk0MzAzLC0zMy4wNzI5MjEpIiBpZD0ibGF5ZXI1Ij4mI3hhOyAgICA8ZyBpZD0ibGF5ZXI2Ij4mI3hhOyAgICAgIDxjaXJjbGUgcj0iMi42NDU4MzMzIiBjeT0iMzcuMDQxNjY4IiBjeD0iNy45NTgxNzg1IiBpZD0icGF0aDM0NDciIHN0eWxlPSJmaWxsOiNmZmZmZmY7c3Ryb2tlOiMwMDAwMDA7c3Ryb2tlLXdpZHRoOjIuNjQ1ODM7c3Ryb2tlLWxpbmVjYXA6cm91bmQ7c3Ryb2tlLW1pdGVybGltaXQ6NDtzdHJva2UtZGFzaGFycmF5Om5vbmU7cGFpbnQtb3JkZXI6c3Ryb2tlIG1hcmtlcnMgZmlsbDtzdG9wLWNvbG9yOiMwMDAwMDAiLz4mI3hhOyAgICA8L2c+JiN4YTsgIDwvZz4mI3hhOzwvc3ZnPg==" vertex="1" parent="1">
          <mxGeometry x="1446.62" y="233.5" width="30" height="30" as="geometry" />
        </mxCell>
        <mxCell id="97y2HoLwPn8d9Kt8dTyg-241" value="" style="shape=stencil(nZPBkoMgDIafhisDARWPO273PVhLV2YtOGhb+/YFoR1ta2e7Dhe/JH9CEhCr+kZ2CgGRfafqAbFPBHCUTsvv1mPwliZCCpjxAgIK9BQpCAzhY5H2g7O/6qS3Q4rSplFOD8HKNoh8eJ9wWFVbY3xCbU2/sMzsXkxq42PJGMVITHJe/HVef68G5VKZkSL4+rMsXcjSd2RZ5cnaVVi1s079OHsw26fF7HTbxo69qLiToZcPhqt5b49q1iFMCJS85NmyVZi8astVq9VmplVgkolMcPofqfrgYl009Y9jSjkAT2L0Tm2E5FdiTgm5JU2Y4QwYyUVavpGl7eM4L4u8EMk7YYEFLYQo4f1L3+3z+enur43K85Vp+Xe2Nucp7GFRJhrf5gQu);whiteSpace=wrap;html=1;strokeWidth=10;fillColor=none;strokeColor=#24B064;flipV=1;flipH=1;" vertex="1" parent="1">
          <mxGeometry x="966" y="336.5" width="100" height="22" as="geometry" />
        </mxCell>
        <mxCell id="97y2HoLwPn8d9Kt8dTyg-242" value="" style="endArrow=none;html=1;rounded=0;strokeWidth=10;strokeColor=#F18046;entryX=0.562;entryY=0.019;entryDx=0;entryDy=0;entryPerimeter=0;exitX=0.098;exitY=0.618;exitDx=0;exitDy=0;exitPerimeter=0;" edge="1" parent="1" source="97y2HoLwPn8d9Kt8dTyg-344" target="97y2HoLwPn8d9Kt8dTyg-45">
          <mxGeometry width="50" height="50" relative="1" as="geometry">
            <mxPoint x="770" y="360" as="sourcePoint" />
            <mxPoint x="1480" y="430" as="targetPoint" />
          </mxGeometry>
        </mxCell>
        <mxCell id="97y2HoLwPn8d9Kt8dTyg-425" value="" style="endArrow=none;html=1;rounded=0;strokeWidth=10;strokeColor=#24B064;exitX=1;exitY=1;exitDx=0;exitDy=0;entryX=0.004;entryY=-0.009;entryDx=0;entryDy=0;entryPerimeter=0;" edge="1" parent="1">
          <mxGeometry width="50" height="50" relative="1" as="geometry">
            <mxPoint x="1066" y="358.5" as="sourcePoint" />
            <mxPoint x="1507.324" y="360.02650000000017" as="targetPoint" />
          </mxGeometry>
        </mxCell>
        <mxCell id="97y2HoLwPn8d9Kt8dTyg-434" value="" style="endArrow=none;html=1;rounded=0;strokeWidth=10;strokeColor=#AE63FA;entryX=0;entryY=0;entryDx=0;entryDy=0;exitX=0;exitY=0;exitDx=0;exitDy=0;entryPerimeter=0;" edge="1" parent="1" target="97y2HoLwPn8d9Kt8dTyg-319">
          <mxGeometry width="50" height="50" relative="1" as="geometry">
            <mxPoint x="1680.9999999999995" y="227.00000000000023" as="sourcePoint" />
            <mxPoint x="1624" y="218" as="targetPoint" />
          </mxGeometry>
        </mxCell>
        <mxCell id="97y2HoLwPn8d9Kt8dTyg-435" value="" style="endArrow=none;html=1;rounded=0;strokeWidth=10;strokeColor=light-dark(#fa6863, #3480d9);exitX=0;exitY=0;exitDx=0;exitDy=0;entryX=0;entryY=0;entryDx=0;entryDy=0;entryPerimeter=0;" edge="1" parent="1" target="97y2HoLwPn8d9Kt8dTyg-433">
          <mxGeometry width="50" height="50" relative="1" as="geometry">
            <mxPoint x="1681.0000000000005" y="237" as="sourcePoint" />
            <mxPoint x="1726" y="237" as="targetPoint" />
          </mxGeometry>
        </mxCell>
        <mxCell id="97y2HoLwPn8d9Kt8dTyg-38" value="&lt;font face=&quot;Maven Pro&quot;&gt;&lt;span style=&quot;font-size: 20px;&quot;&gt;&lt;b&gt;Sourmash sketch + gather&lt;/b&gt;&lt;/span&gt;&lt;/font&gt;" style="text;html=1;strokeColor=none;fillColor=none;align=center;verticalAlign=middle;whiteSpace=wrap;rounded=0;fontColor=default;" vertex="1" parent="1">
          <mxGeometry x="1011.75" y="368" width="152.5" height="70" as="geometry" />
        </mxCell>
        <mxCell id="97y2HoLwPn8d9Kt8dTyg-447" value="&lt;font face=&quot;Maven Pro&quot;&gt;&lt;span style=&quot;font-size: 20px;&quot;&gt;&lt;b&gt;REFERENCE SELECTION&lt;/b&gt;&lt;/span&gt;&lt;/font&gt;" style="text;html=1;strokeColor=none;fillColor=none;align=left;verticalAlign=middle;whiteSpace=wrap;rounded=0;fontColor=default;" vertex="1" parent="1">
          <mxGeometry x="1006.75" y="-21" width="268.25" height="70" as="geometry" />
        </mxCell>
        <mxCell id="97y2HoLwPn8d9Kt8dTyg-162" value="" style="endArrow=none;html=1;rounded=0;strokeWidth=10;strokeColor=#AE63FA;entryX=0;entryY=0.5;entryDx=0;entryDy=0;exitX=0;exitY=0;exitDx=0;exitDy=0;exitPerimeter=0;" edge="1" parent="1" source="97y2HoLwPn8d9Kt8dTyg-210" target="97y2HoLwPn8d9Kt8dTyg-167">
          <mxGeometry width="50" height="50" relative="1" as="geometry">
            <mxPoint x="510" y="39" as="sourcePoint" />
            <mxPoint x="900.03" y="43.50999999999998" as="targetPoint" />
          </mxGeometry>
        </mxCell>
        <mxCell id="97y2HoLwPn8d9Kt8dTyg-164" value="" style="shape=image;verticalLabelPosition=bottom;verticalAlign=top;imageAspect=0;aspect=fixed;image=data:image/svg+xml,PHN2ZyB4bWxucz0iaHR0cDovL3d3dy53My5vcmcvMjAwMC9zdmciIGlkPSJzdmc3MzYyIiB2ZXJzaW9uPSIxLjEiIHZpZXdCb3g9IjAgMCA3LjkzNzQ5NjcgNy45Mzc0OTYyIiBoZWlnaHQ9IjcuOTM3NDk2Mm1tIiB3aWR0aD0iNy45Mzc0OTY3bW0iPiYjeGE7ICAmI3hhOyAgICAmI3hhOyAgJiN4YTsgIDxkZWZzIGlkPSJkZWZzNzM1OSIvPiYjeGE7ICA8ZyB0cmFuc2Zvcm09InRyYW5zbGF0ZSgtMy45ODk0MzAzLC0zMy4wNzI5MjEpIiBpZD0ibGF5ZXI1Ij4mI3hhOyAgICA8ZyBpZD0ibGF5ZXI2Ij4mI3hhOyAgICAgIDxjaXJjbGUgcj0iMi42NDU4MzMzIiBjeT0iMzcuMDQxNjY4IiBjeD0iNy45NTgxNzg1IiBpZD0icGF0aDM0NDciIHN0eWxlPSJmaWxsOiNmZmZmZmY7c3Ryb2tlOiMwMDAwMDA7c3Ryb2tlLXdpZHRoOjIuNjQ1ODM7c3Ryb2tlLWxpbmVjYXA6cm91bmQ7c3Ryb2tlLW1pdGVybGltaXQ6NDtzdHJva2UtZGFzaGFycmF5Om5vbmU7cGFpbnQtb3JkZXI6c3Ryb2tlIG1hcmtlcnMgZmlsbDtzdG9wLWNvbG9yOiMwMDAwMDAiLz4mI3hhOyAgICA8L2c+JiN4YTsgIDwvZz4mI3hhOzwvc3ZnPg==" vertex="1" parent="1">
          <mxGeometry x="509" y="23" width="30" height="30" as="geometry" />
        </mxCell>
        <mxCell id="97y2HoLwPn8d9Kt8dTyg-98" value="" style="group" vertex="1" connectable="0" parent="1">
          <mxGeometry x="450" y="-18" width="480.29999999999995" height="146" as="geometry" />
        </mxCell>
        <mxCell id="97y2HoLwPn8d9Kt8dTyg-92" value="" style="group" vertex="1" connectable="0" parent="97y2HoLwPn8d9Kt8dTyg-98">
          <mxGeometry y="16" width="273" height="130" as="geometry" />
        </mxCell>
        <mxCell id="97y2HoLwPn8d9Kt8dTyg-24" value="&lt;font face=&quot;Maven Pro&quot;&gt;&lt;span style=&quot;font-size: 20px;&quot;&gt;&lt;b&gt;Sourmash&lt;/b&gt;&lt;/span&gt;&lt;/font&gt;&lt;div&gt;&lt;font face=&quot;Maven Pro&quot;&gt;&lt;span style=&quot;font-size: 20px;&quot;&gt;&lt;b&gt;sketch + gather&lt;/b&gt;&lt;/span&gt;&lt;/font&gt;&lt;/div&gt;" style="text;html=1;strokeColor=none;fillColor=none;align=center;verticalAlign=middle;whiteSpace=wrap;rounded=0;fontColor=default;" vertex="1" parent="97y2HoLwPn8d9Kt8dTyg-92">
          <mxGeometry y="41" width="160" height="80" as="geometry" />
        </mxCell>
        <mxCell id="97y2HoLwPn8d9Kt8dTyg-448" value="&lt;font face=&quot;Maven Pro&quot;&gt;&lt;span style=&quot;font-size: 20px;&quot;&gt;&lt;b&gt;METAGENOMIC ANALYSIS&lt;/b&gt;&lt;/span&gt;&lt;/font&gt;" style="text;html=1;strokeColor=none;fillColor=none;align=left;verticalAlign=middle;whiteSpace=wrap;rounded=0;fontColor=default;" vertex="1" parent="97y2HoLwPn8d9Kt8dTyg-92">
          <mxGeometry x="11.75" y="-8" width="268.25" height="41" as="geometry" />
        </mxCell>
        <mxCell id="97y2HoLwPn8d9Kt8dTyg-93" value="" style="group" vertex="1" connectable="0" parent="97y2HoLwPn8d9Kt8dTyg-98">
          <mxGeometry x="178" y="17" width="167" height="130" as="geometry" />
        </mxCell>
        <mxCell id="97y2HoLwPn8d9Kt8dTyg-43" value="&lt;font face=&quot;Maven Pro&quot;&gt;&lt;span style=&quot;font-size: 20px;&quot;&gt;&lt;b&gt;Sourmash&lt;/b&gt;&lt;/span&gt;&lt;/font&gt;&lt;div&gt;&lt;font face=&quot;Maven Pro&quot;&gt;&lt;span style=&quot;font-size: 20px;&quot;&gt;&lt;b&gt;metagenome&lt;/b&gt;&lt;/span&gt;&lt;/font&gt;&lt;/div&gt;" style="text;html=1;strokeColor=none;fillColor=none;align=center;verticalAlign=middle;whiteSpace=wrap;rounded=0;fontColor=default;" vertex="1" parent="97y2HoLwPn8d9Kt8dTyg-93">
          <mxGeometry y="40" width="160" height="80" as="geometry" />
        </mxCell>
        <mxCell id="97y2HoLwPn8d9Kt8dTyg-197" value="" style="shape=stencil(vZXdcoMgEIWfhltGlkiSy45N34MaUpkacNAk5u2Dgqn1JzN1sDPeeJb9WM4yLKJJmfFCIIh4WYi0QvQdAVy5kfwztzLYSOZEYHgT7ygFp94m1bIy+lvc5LHyWVJlwsiqidIDit7smuajSaqVshtKrcpfkV7cwrhUNjeqHSxym9z9H4bYCYXd4iwqYVyAOBXBx1JyKCxZr+AnK3TNIzJZyWQczIyhzQFdXs3kf/J4u5rJ4cg/rPA2b1fymSzH0sQqc88fTU7aiC+jL+o4WcxJ5rl7ZV9UXPDm/R0FuvBZX0XfpOGliV750UFyqXoQhhlpBgEsQaUX4woi3jiKAfaEMQ8jA1oNk8Pn7uUYt8nMt76m06u9TPZ4t6HdPfnLmYfASXWuRVaf6ZKdyXP9bdNGF6RV3RxvhQc=);whiteSpace=wrap;html=1;strokeWidth=10;fillColor=none;strokeColor=#AE63FA;points=[[0,0,0,0,0],[1,1,0,0,0]];" vertex="1" parent="97y2HoLwPn8d9Kt8dTyg-93">
          <mxGeometry x="85" y="40" width="81" height="40" as="geometry" />
        </mxCell>
        <mxCell id="97y2HoLwPn8d9Kt8dTyg-166" value="" style="shape=image;verticalLabelPosition=bottom;verticalAlign=top;imageAspect=0;aspect=fixed;image=data:image/svg+xml,PHN2ZyB4bWxucz0iaHR0cDovL3d3dy53My5vcmcvMjAwMC9zdmciIGlkPSJzdmc3MzYyIiB2ZXJzaW9uPSIxLjEiIHZpZXdCb3g9IjAgMCA3LjkzNzQ5NjcgNy45Mzc0OTYyIiBoZWlnaHQ9IjcuOTM3NDk2Mm1tIiB3aWR0aD0iNy45Mzc0OTY3bW0iPiYjeGE7ICAmI3hhOyAgICAmI3hhOyAgJiN4YTsgIDxkZWZzIGlkPSJkZWZzNzM1OSIvPiYjeGE7ICA8ZyB0cmFuc2Zvcm09InRyYW5zbGF0ZSgtMy45ODk0MzAzLC0zMy4wNzI5MjEpIiBpZD0ibGF5ZXI1Ij4mI3hhOyAgICA8ZyBpZD0ibGF5ZXI2Ij4mI3hhOyAgICAgIDxjaXJjbGUgcj0iMi42NDU4MzMzIiBjeT0iMzcuMDQxNjY4IiBjeD0iNy45NTgxNzg1IiBpZD0icGF0aDM0NDciIHN0eWxlPSJmaWxsOiNmZmZmZmY7c3Ryb2tlOiMwMDAwMDA7c3Ryb2tlLXdpZHRoOjIuNjQ1ODM7c3Ryb2tlLWxpbmVjYXA6cm91bmQ7c3Ryb2tlLW1pdGVybGltaXQ6NDtzdHJva2UtZGFzaGFycmF5Om5vbmU7cGFpbnQtb3JkZXI6c3Ryb2tlIG1hcmtlcnMgZmlsbDtzdG9wLWNvbG9yOiMwMDAwMDAiLz4mI3hhOyAgICA8L2c+JiN4YTsgIDwvZz4mI3hhOzwvc3ZnPg==" vertex="1" parent="97y2HoLwPn8d9Kt8dTyg-93">
          <mxGeometry x="65" y="25" width="30" height="30" as="geometry" />
        </mxCell>
        <mxCell id="97y2HoLwPn8d9Kt8dTyg-227" value="" style="shape=stencil(vZXdcoMgEIWfhltGlkiSy45N34MaUpkacNAk5u2Dgqn1JzN1sDPeeJb9WM4yLKJJmfFCIIh4WYi0QvQdAVy5kfwztzLYSOZEYHgT7ygFp94m1bIy+lvc5LHyWVJlwsiqidIDit7smuajSaqVshtKrcpfkV7cwrhUNjeqHSxym9z9H4bYCYXd4iwqYVyAOBXBx1JyKCxZr+AnK3TNIzJZyWQczIyhzQFdXs3kf/J4u5rJ4cg/rPA2b1fymSzH0sQqc88fTU7aiC+jL+o4WcxJ5rl7ZV9UXPDm/R0FuvBZX0XfpOGliV750UFyqXoQhhlpBgEsQaUX4woi3jiKAfaEMQ8jA1oNk8Pn7uUYt8nMt76m06u9TPZ4t6HdPfnLmYfASXWuRVaf6ZKdyXP9bdNGF6RV3RxvhQc=);whiteSpace=wrap;html=1;strokeWidth=10;fillColor=none;strokeColor=#AE63FA;points=[[0,0,0,0,0],[1,1,0,0,0]];flipV=0;rotation=-90;flipH=1;" vertex="1" parent="97y2HoLwPn8d9Kt8dTyg-98">
          <mxGeometry x="347" y="93.5" width="30" height="35" as="geometry" />
        </mxCell>
        <mxCell id="97y2HoLwPn8d9Kt8dTyg-96" value="" style="group" vertex="1" connectable="0" parent="97y2HoLwPn8d9Kt8dTyg-98">
          <mxGeometry x="390.29999999999995" y="21" width="90" height="110" as="geometry" />
        </mxCell>
        <mxCell id="97y2HoLwPn8d9Kt8dTyg-94" value="" style="group" vertex="1" connectable="0" parent="97y2HoLwPn8d9Kt8dTyg-96">
          <mxGeometry width="90" height="100" as="geometry" />
        </mxCell>
        <mxCell id="97y2HoLwPn8d9Kt8dTyg-95" value="" style="group" vertex="1" connectable="0" parent="97y2HoLwPn8d9Kt8dTyg-94">
          <mxGeometry width="90" height="100" as="geometry" />
        </mxCell>
        <mxCell id="97y2HoLwPn8d9Kt8dTyg-26" value="&lt;font face=&quot;Maven Pro&quot;&gt;&lt;span style=&quot;font-size: 20px;&quot;&gt;&lt;b&gt;Krona + sm_summar.R&lt;/b&gt;&lt;/span&gt;&lt;/font&gt;" style="text;html=1;strokeColor=none;fillColor=none;align=center;verticalAlign=middle;whiteSpace=wrap;rounded=0;fontColor=default;" vertex="1" parent="97y2HoLwPn8d9Kt8dTyg-95">
          <mxGeometry x="4" y="59" width="90" height="30" as="geometry" />
        </mxCell>
        <mxCell id="97y2HoLwPn8d9Kt8dTyg-452" value="&lt;font face=&quot;Maven Pro&quot;&gt;&lt;span style=&quot;font-size: 20px;&quot;&gt;&lt;b&gt;GENOME ASSEMBLY&lt;/b&gt;&lt;/span&gt;&lt;/font&gt;" style="text;html=1;strokeColor=none;fillColor=none;align=left;verticalAlign=middle;whiteSpace=wrap;rounded=0;fontColor=default;" vertex="1" parent="1">
          <mxGeometry x="1032.26" y="451" width="268.25" height="70" as="geometry" />
        </mxCell>
        <mxCell id="97y2HoLwPn8d9Kt8dTyg-454" value="" style="group;rotation=90;" vertex="1" connectable="0" parent="1">
          <mxGeometry x="1703.5" y="465.0000000000001" width="115" height="70" as="geometry" />
        </mxCell>
        <mxCell id="97y2HoLwPn8d9Kt8dTyg-455" value="" style="shape=stencil(vZXdcoMgEIWfhltGlkiSy45N34MaUpkacNAk5u2Dgqn1JzN1sDPeeJb9WM4yLKJJmfFCIIh4WYi0QvQdAVy5kfwztzLYSOZEYHgT7ygFp94m1bIy+lvc5LHyWVJlwsiqidIDit7smuajSaqVshtKrcpfkV7cwrhUNjeqHSxym9z9H4bYCYXd4iwqYVyAOBXBx1JyKCxZr+AnK3TNIzJZyWQczIyhzQFdXs3kf/J4u5rJ4cg/rPA2b1fymSzH0sQqc88fTU7aiC+jL+o4WcxJ5rl7ZV9UXPDm/R0FuvBZX0XfpOGliV750UFyqXoQhhlpBgEsQaUX4woi3jiKAfaEMQ8jA1oNk8Pn7uUYt8nMt76m06u9TPZ4t6HdPfnLmYfASXWuRVaf6ZKdyXP9bdNGF6RV3RxvhQc=);whiteSpace=wrap;html=1;strokeWidth=10;fillColor=none;strokeColor=light-dark(#ae63fa, #3480d9);points=[[0,0,0,0,0],[1,1,0,0,0]];rotation=90;" vertex="1" parent="97y2HoLwPn8d9Kt8dTyg-454">
          <mxGeometry x="19.38" y="-15" width="75" height="70" as="geometry" />
        </mxCell>
        <mxCell id="97y2HoLwPn8d9Kt8dTyg-456" value="" style="shape=stencil(vZXdcoMgEIWfhltGlkiSy45N34MaUpkacNAk5u2Dgqn1JzN1sDPeeJb9WM4yLKJJmfFCIIh4WYi0QvQdAVy5kfwztzLYSOZEYHgT7ygFp94m1bIy+lvc5LHyWVJlwsiqidIDit7smuajSaqVshtKrcpfkV7cwrhUNjeqHSxym9z9H4bYCYXd4iwqYVyAOBXBx1JyKCxZr+AnK3TNIzJZyWQczIyhzQFdXs3kf/J4u5rJ4cg/rPA2b1fymSzH0sQqc88fTU7aiC+jL+o4WcxJ5rl7ZV9UXPDm/R0FuvBZX0XfpOGliV750UFyqXoQhhlpBgEsQaUX4woi3jiKAfaEMQ8jA1oNk8Pn7uUYt8nMt76m06u9TPZ4t6HdPfnLmYfASXWuRVaf6ZKdyXP9bdNGF6RV3RxvhQc=);whiteSpace=wrap;html=1;strokeWidth=10;fillColor=none;strokeColor=light-dark(#fa6863, #3480d9);points=[[0,0,0,0,0],[1,1,0,0,0]];rotation=90;" vertex="1" parent="97y2HoLwPn8d9Kt8dTyg-454">
          <mxGeometry x="21.38" y="-12" width="62" height="60" as="geometry" />
        </mxCell>
        <mxCell id="97y2HoLwPn8d9Kt8dTyg-457" value="" style="shape=stencil(vZXdcoMgEIWfhltGlkiSy45N34MaUpkacNAk5u2Dgqn1JzN1sDPeeJb9WM4yLKJJmfFCIIh4WYi0QvQdAVy5kfwztzLYSOZEYHgT7ygFp94m1bIy+lvc5LHyWVJlwsiqidIDit7smuajSaqVshtKrcpfkV7cwrhUNjeqHSxym9z9H4bYCYXd4iwqYVyAOBXBx1JyKCxZr+AnK3TNIzJZyWQczIyhzQFdXs3kf/J4u5rJ4cg/rPA2b1fymSzH0sQqc88fTU7aiC+jL+o4WcxJ5rl7ZV9UXPDm/R0FuvBZX0XfpOGliV750UFyqXoQhhlpBgEsQaUX4woi3jiKAfaEMQ8jA1oNk8Pn7uUYt8nMt76m06u9TPZ4t6HdPfnLmYfASXWuRVaf6ZKdyXP9bdNGF6RV3RxvhQc=);whiteSpace=wrap;html=1;strokeWidth=10;fillColor=none;strokeColor=light-dark(#ecdc86, #3480d9);points=[[0,0,0,0,0],[1,1,0,0,0]];rotation=90;" vertex="1" parent="97y2HoLwPn8d9Kt8dTyg-454">
          <mxGeometry x="26.38" y="-7" width="42" height="50" as="geometry" />
        </mxCell>
        <mxCell id="97y2HoLwPn8d9Kt8dTyg-458" value="" style="shape=stencil(vZXdcoMgEIWfhltGlkiSy45N34MaUpkacNAk5u2Dgqn1JzN1sDPeeJb9WM4yLKJJmfFCIIh4WYi0QvQdAVy5kfwztzLYSOZEYHgT7ygFp94m1bIy+lvc5LHyWVJlwsiqidIDit7smuajSaqVshtKrcpfkV7cwrhUNjeqHSxym9z9H4bYCYXd4iwqYVyAOBXBx1JyKCxZr+AnK3TNIzJZyWQczIyhzQFdXs3kf/J4u5rJ4cg/rPA2b1fymSzH0sQqc88fTU7aiC+jL+o4WcxJ5rl7ZV9UXPDm/R0FuvBZX0XfpOGliV750UFyqXoQhhlpBgEsQaUX4woi3jiKAfaEMQ8jA1oNk8Pn7uUYt8nMt76m06u9TPZ4t6HdPfnLmYfASXWuRVaf6ZKdyXP9bdNGF6RV3RxvhQc=);whiteSpace=wrap;html=1;strokeWidth=10;fillColor=none;strokeColor=light-dark(#3d95fd, #3480d9);points=[[0,0,0,0,0],[1,1,0,0,0]];rotation=90;" vertex="1" parent="97y2HoLwPn8d9Kt8dTyg-454">
          <mxGeometry x="26.38" y="-6" width="32" height="40" as="geometry" />
        </mxCell>
        <mxCell id="97y2HoLwPn8d9Kt8dTyg-459" value="" style="shape=stencil(vZXdcoMgEIWfhltGlkiSy45N34MaUpkacNAk5u2Dgqn1JzN1sDPeeJb9WM4yLKJJmfFCIIh4WYi0QvQdAVy5kfwztzLYSOZEYHgT7ygFp94m1bIy+lvc5LHyWVJlwsiqidIDit7smuajSaqVshtKrcpfkV7cwrhUNjeqHSxym9z9H4bYCYXd4iwqYVyAOBXBx1JyKCxZr+AnK3TNIzJZyWQczIyhzQFdXs3kf/J4u5rJ4cg/rPA2b1fymSzH0sQqc88fTU7aiC+jL+o4WcxJ5rl7ZV9UXPDm/R0FuvBZX0XfpOGliV750UFyqXoQhhlpBgEsQaUX4woi3jiKAfaEMQ8jA1oNk8Pn7uUYt8nMt76m06u9TPZ4t6HdPfnLmYfASXWuRVaf6ZKdyXP9bdNGF6RV3RxvhQc=);whiteSpace=wrap;html=1;strokeWidth=10;fillColor=none;strokeColor=light-dark(#24b064, #3480d9);points=[[0,0,0,0,0],[1,1,0,0,0]];rotation=90;" vertex="1" parent="97y2HoLwPn8d9Kt8dTyg-454">
          <mxGeometry x="29.38" y="-3" width="16" height="30" as="geometry" />
        </mxCell>
        <mxCell id="97y2HoLwPn8d9Kt8dTyg-462" value="" style="shape=stencil(vZXdcoMgEIWfhltGlkiSy45N34MaUpkacNAk5u2Dgqn1JzN1sDPeeJb9WM4yLKJJmfFCIIh4WYi0QvQdAVy5kfwztzLYSOZEYHgT7ygFp94m1bIy+lvc5LHyWVJlwsiqidIDit7smuajSaqVshtKrcpfkV7cwrhUNjeqHSxym9z9H4bYCYXd4iwqYVyAOBXBx1JyKCxZr+AnK3TNIzJZyWQczIyhzQFdXs3kf/J4u5rJ4cg/rPA2b1fymSzH0sQqc88fTU7aiC+jL+o4WcxJ5rl7ZV9UXPDm/R0FuvBZX0XfpOGliV750UFyqXoQhhlpBgEsQaUX4woi3jiKAfaEMQ8jA1oNk8Pn7uUYt8nMt76m06u9TPZ4t6HdPfnLmYfASXWuRVaf6ZKdyXP9bdNGF6RV3RxvhQc=);whiteSpace=wrap;html=1;strokeWidth=10;fillColor=none;strokeColor=light-dark(#f18046, #3480d9);points=[[0,0,0,0,0],[1,1,0,0,0]];rotation=90;" vertex="1" parent="97y2HoLwPn8d9Kt8dTyg-454">
          <mxGeometry x="30.38" y="-2" width="4" height="20" as="geometry" />
        </mxCell>
        <mxCell id="97y2HoLwPn8d9Kt8dTyg-473" value="" style="endArrow=none;html=1;rounded=0;strokeWidth=10;strokeColor=light-dark(#f18046, #1a9251);entryX=1;entryY=1;entryDx=0;entryDy=0;entryPerimeter=0;exitX=0;exitY=0;exitDx=0;exitDy=0;exitPerimeter=0;" edge="1" parent="1" source="97y2HoLwPn8d9Kt8dTyg-462" target="97y2HoLwPn8d9Kt8dTyg-442">
          <mxGeometry width="50" height="50" relative="1" as="geometry">
            <mxPoint x="1796" y="463" as="sourcePoint" />
            <mxPoint x="1776" y="313" as="targetPoint" />
          </mxGeometry>
        </mxCell>
        <mxCell id="97y2HoLwPn8d9Kt8dTyg-474" value="" style="endArrow=none;html=1;rounded=0;strokeWidth=10;strokeColor=#24b064;entryX=1;entryY=1;entryDx=0;entryDy=0;entryPerimeter=0;exitX=0;exitY=0;exitDx=0;exitDy=0;exitPerimeter=0;" edge="1" parent="1" source="97y2HoLwPn8d9Kt8dTyg-459" target="97y2HoLwPn8d9Kt8dTyg-440">
          <mxGeometry width="50" height="50" relative="1" as="geometry">
            <mxPoint x="1759" y="516" as="sourcePoint" />
            <mxPoint x="1758" y="307" as="targetPoint" />
          </mxGeometry>
        </mxCell>
        <mxCell id="97y2HoLwPn8d9Kt8dTyg-475" value="" style="endArrow=none;html=1;rounded=0;strokeWidth=10;strokeColor=light-dark(#3d95fd, #1a9251);entryX=1;entryY=1;entryDx=0;entryDy=0;entryPerimeter=0;exitX=0;exitY=0;exitDx=0;exitDy=0;exitPerimeter=0;" edge="1" parent="1" source="97y2HoLwPn8d9Kt8dTyg-458" target="97y2HoLwPn8d9Kt8dTyg-438">
          <mxGeometry width="50" height="50" relative="1" as="geometry">
            <mxPoint x="1768" y="514" as="sourcePoint" />
            <mxPoint x="1768" y="307" as="targetPoint" />
          </mxGeometry>
        </mxCell>
        <mxCell id="97y2HoLwPn8d9Kt8dTyg-476" value="" style="endArrow=none;html=1;rounded=0;strokeWidth=10;strokeColor=light-dark(#ecdc86, #1a9251);entryX=1;entryY=1;entryDx=0;entryDy=0;entryPerimeter=0;exitX=0;exitY=0;exitDx=0;exitDy=0;exitPerimeter=0;" edge="1" parent="1" source="97y2HoLwPn8d9Kt8dTyg-457" target="97y2HoLwPn8d9Kt8dTyg-436">
          <mxGeometry width="50" height="50" relative="1" as="geometry">
            <mxPoint x="1778" y="524" as="sourcePoint" />
            <mxPoint x="1778" y="317" as="targetPoint" />
          </mxGeometry>
        </mxCell>
        <mxCell id="97y2HoLwPn8d9Kt8dTyg-477" value="" style="endArrow=none;html=1;rounded=0;strokeWidth=10;strokeColor=light-dark(#fa6863, #1a9251);entryX=1;entryY=1;entryDx=0;entryDy=0;entryPerimeter=0;exitX=0;exitY=0;exitDx=0;exitDy=0;exitPerimeter=0;" edge="1" parent="1" source="97y2HoLwPn8d9Kt8dTyg-456" target="97y2HoLwPn8d9Kt8dTyg-433">
          <mxGeometry width="50" height="50" relative="1" as="geometry">
            <mxPoint x="1788" y="534" as="sourcePoint" />
            <mxPoint x="1788" y="327" as="targetPoint" />
          </mxGeometry>
        </mxCell>
        <mxCell id="97y2HoLwPn8d9Kt8dTyg-478" value="" style="endArrow=none;html=1;rounded=0;strokeWidth=10;strokeColor=light-dark(#ae63fa, #1a9251);entryX=1;entryY=1;entryDx=0;entryDy=0;entryPerimeter=0;exitX=0;exitY=0;exitDx=0;exitDy=0;exitPerimeter=0;" edge="1" parent="1" source="97y2HoLwPn8d9Kt8dTyg-455" target="97y2HoLwPn8d9Kt8dTyg-319">
          <mxGeometry width="50" height="50" relative="1" as="geometry">
            <mxPoint x="1798" y="544" as="sourcePoint" />
            <mxPoint x="1798" y="337" as="targetPoint" />
          </mxGeometry>
        </mxCell>
        <mxCell id="97y2HoLwPn8d9Kt8dTyg-486" value="" style="group;rotation=-90;" vertex="1" connectable="0" parent="1">
          <mxGeometry x="1410.38" y="498.0000000000001" width="115" height="70" as="geometry" />
        </mxCell>
        <mxCell id="97y2HoLwPn8d9Kt8dTyg-487" value="" style="shape=stencil(vZXdcoMgEIWfhltGlkiSy45N34MaUpkacNAk5u2Dgqn1JzN1sDPeeJb9WM4yLKJJmfFCIIh4WYi0QvQdAVy5kfwztzLYSOZEYHgT7ygFp94m1bIy+lvc5LHyWVJlwsiqidIDit7smuajSaqVshtKrcpfkV7cwrhUNjeqHSxym9z9H4bYCYXd4iwqYVyAOBXBx1JyKCxZr+AnK3TNIzJZyWQczIyhzQFdXs3kf/J4u5rJ4cg/rPA2b1fymSzH0sQqc88fTU7aiC+jL+o4WcxJ5rl7ZV9UXPDm/R0FuvBZX0XfpOGliV750UFyqXoQhhlpBgEsQaUX4woi3jiKAfaEMQ8jA1oNk8Pn7uUYt8nMt76m06u9TPZ4t6HdPfnLmYfASXWuRVaf6ZKdyXP9bdNGF6RV3RxvhQc=);whiteSpace=wrap;html=1;strokeWidth=10;fillColor=none;strokeColor=light-dark(#f18046, #3480d9);points=[[0,0,0,0,0],[1,1,0,0,0]];rotation=-90;" vertex="1" parent="97y2HoLwPn8d9Kt8dTyg-486">
          <mxGeometry x="20" y="-20" width="75" height="70" as="geometry" />
        </mxCell>
        <mxCell id="97y2HoLwPn8d9Kt8dTyg-488" value="" style="shape=stencil(vZXdcoMgEIWfhltGlkiSy45N34MaUpkacNAk5u2Dgqn1JzN1sDPeeJb9WM4yLKJJmfFCIIh4WYi0QvQdAVy5kfwztzLYSOZEYHgT7ygFp94m1bIy+lvc5LHyWVJlwsiqidIDit7smuajSaqVshtKrcpfkV7cwrhUNjeqHSxym9z9H4bYCYXd4iwqYVyAOBXBx1JyKCxZr+AnK3TNIzJZyWQczIyhzQFdXs3kf/J4u5rJ4cg/rPA2b1fymSzH0sQqc88fTU7aiC+jL+o4WcxJ5rl7ZV9UXPDm/R0FuvBZX0XfpOGliV750UFyqXoQhhlpBgEsQaUX4woi3jiKAfaEMQ8jA1oNk8Pn7uUYt8nMt76m06u9TPZ4t6HdPfnLmYfASXWuRVaf6ZKdyXP9bdNGF6RV3RxvhQc=);whiteSpace=wrap;html=1;strokeWidth=10;fillColor=none;strokeColor=light-dark(#24b064, #3480d9);points=[[0,0,0,0,0],[1,1,0,0,0]];rotation=-90;" vertex="1" parent="97y2HoLwPn8d9Kt8dTyg-486">
          <mxGeometry x="32" y="-13" width="62" height="60" as="geometry" />
        </mxCell>
        <mxCell id="97y2HoLwPn8d9Kt8dTyg-489" value="" style="shape=stencil(vZXdcoMgEIWfhltGlkiSy45N34MaUpkacNAk5u2Dgqn1JzN1sDPeeJb9WM4yLKJJmfFCIIh4WYi0QvQdAVy5kfwztzLYSOZEYHgT7ygFp94m1bIy+lvc5LHyWVJlwsiqidIDit7smuajSaqVshtKrcpfkV7cwrhUNjeqHSxym9z9H4bYCYXd4iwqYVyAOBXBx1JyKCxZr+AnK3TNIzJZyWQczIyhzQFdXs3kf/J4u5rJ4cg/rPA2b1fymSzH0sQqc88fTU7aiC+jL+o4WcxJ5rl7ZV9UXPDm/R0FuvBZX0XfpOGliV750UFyqXoQhhlpBgEsQaUX4woi3jiKAfaEMQ8jA1oNk8Pn7uUYt8nMt76m06u9TPZ4t6HdPfnLmYfASXWuRVaf6ZKdyXP9bdNGF6RV3RxvhQc=);whiteSpace=wrap;html=1;strokeWidth=10;fillColor=none;strokeColor=light-dark(#3d95fd, #3480d9);points=[[0,0,0,0,0],[1,1,0,0,0]];rotation=-90;" vertex="1" parent="97y2HoLwPn8d9Kt8dTyg-486">
          <mxGeometry x="47" y="-8" width="42" height="50" as="geometry" />
        </mxCell>
        <mxCell id="97y2HoLwPn8d9Kt8dTyg-490" value="" style="shape=stencil(vZXdcoMgEIWfhltGlkiSy45N34MaUpkacNAk5u2Dgqn1JzN1sDPeeJb9WM4yLKJJmfFCIIh4WYi0QvQdAVy5kfwztzLYSOZEYHgT7ygFp94m1bIy+lvc5LHyWVJlwsiqidIDit7smuajSaqVshtKrcpfkV7cwrhUNjeqHSxym9z9H4bYCYXd4iwqYVyAOBXBx1JyKCxZr+AnK3TNIzJZyWQczIyhzQFdXs3kf/J4u5rJ4cg/rPA2b1fymSzH0sQqc88fTU7aiC+jL+o4WcxJ5rl7ZV9UXPDm/R0FuvBZX0XfpOGliV750UFyqXoQhhlpBgEsQaUX4woi3jiKAfaEMQ8jA1oNk8Pn7uUYt8nMt76m06u9TPZ4t6HdPfnLmYfASXWuRVaf6ZKdyXP9bdNGF6RV3RxvhQc=);whiteSpace=wrap;html=1;strokeWidth=10;fillColor=none;strokeColor=light-dark(#ecdc86, #3480d9);points=[[0,0,0,0,0],[1,1,0,0,0]];rotation=-90;" vertex="1" parent="97y2HoLwPn8d9Kt8dTyg-486">
          <mxGeometry x="57" y="1" width="32" height="40" as="geometry" />
        </mxCell>
        <mxCell id="97y2HoLwPn8d9Kt8dTyg-491" value="" style="shape=stencil(vZXdcoMgEIWfhltGlkiSy45N34MaUpkacNAk5u2Dgqn1JzN1sDPeeJb9WM4yLKJJmfFCIIh4WYi0QvQdAVy5kfwztzLYSOZEYHgT7ygFp94m1bIy+lvc5LHyWVJlwsiqidIDit7smuajSaqVshtKrcpfkV7cwrhUNjeqHSxym9z9H4bYCYXd4iwqYVyAOBXBx1JyKCxZr+AnK3TNIzJZyWQczIyhzQFdXs3kf/J4u5rJ4cg/rPA2b1fymSzH0sQqc88fTU7aiC+jL+o4WcxJ5rl7ZV9UXPDm/R0FuvBZX0XfpOGliV750UFyqXoQhhlpBgEsQaUX4woi3jiKAfaEMQ8jA1oNk8Pn7uUYt8nMt76m06u9TPZ4t6HdPfnLmYfASXWuRVaf6ZKdyXP9bdNGF6RV3RxvhQc=);whiteSpace=wrap;html=1;strokeWidth=10;fillColor=none;strokeColor=light-dark(#fa6863, #3480d9);points=[[0,0,0,0,0],[1,1,0,0,0]];rotation=-90;" vertex="1" parent="97y2HoLwPn8d9Kt8dTyg-486">
          <mxGeometry x="70" y="8" width="16" height="30" as="geometry" />
        </mxCell>
        <mxCell id="97y2HoLwPn8d9Kt8dTyg-492" value="" style="shape=stencil(vZXdcoMgEIWfhltGlkiSy45N34MaUpkacNAk5u2Dgqn1JzN1sDPeeJb9WM4yLKJJmfFCIIh4WYi0QvQdAVy5kfwztzLYSOZEYHgT7ygFp94m1bIy+lvc5LHyWVJlwsiqidIDit7smuajSaqVshtKrcpfkV7cwrhUNjeqHSxym9z9H4bYCYXd4iwqYVyAOBXBx1JyKCxZr+AnK3TNIzJZyWQczIyhzQFdXs3kf/J4u5rJ4cg/rPA2b1fymSzH0sQqc88fTU7aiC+jL+o4WcxJ5rl7ZV9UXPDm/R0FuvBZX0XfpOGliV750UFyqXoQhhlpBgEsQaUX4woi3jiKAfaEMQ8jA1oNk8Pn7uUYt8nMt76m06u9TPZ4t6HdPfnLmYfASXWuRVaf6ZKdyXP9bdNGF6RV3RxvhQc=);whiteSpace=wrap;html=1;strokeWidth=10;fillColor=none;strokeColor=light-dark(#ae63fa, #3480d9);points=[[0,0,0,0,0],[1,1,0,0,0]];rotation=-90;" vertex="1" parent="97y2HoLwPn8d9Kt8dTyg-486">
          <mxGeometry x="81" y="17" width="3" height="20" as="geometry" />
        </mxCell>
        <mxCell id="97y2HoLwPn8d9Kt8dTyg-494" value="" style="group;rotation=90;" vertex="1" connectable="0" parent="1">
          <mxGeometry x="1391.38" y="515.0000000000001" width="115" height="70" as="geometry" />
        </mxCell>
        <mxCell id="97y2HoLwPn8d9Kt8dTyg-495" value="" style="shape=stencil(vZXdcoMgEIWfhltGlkiSy45N34MaUpkacNAk5u2Dgqn1JzN1sDPeeJb9WM4yLKJJmfFCIIh4WYi0QvQdAVy5kfwztzLYSOZEYHgT7ygFp94m1bIy+lvc5LHyWVJlwsiqidIDit7smuajSaqVshtKrcpfkV7cwrhUNjeqHSxym9z9H4bYCYXd4iwqYVyAOBXBx1JyKCxZr+AnK3TNIzJZyWQczIyhzQFdXs3kf/J4u5rJ4cg/rPA2b1fymSzH0sQqc88fTU7aiC+jL+o4WcxJ5rl7ZV9UXPDm/R0FuvBZX0XfpOGliV750UFyqXoQhhlpBgEsQaUX4woi3jiKAfaEMQ8jA1oNk8Pn7uUYt8nMt76m06u9TPZ4t6HdPfnLmYfASXWuRVaf6ZKdyXP9bdNGF6RV3RxvhQc=);whiteSpace=wrap;html=1;strokeWidth=10;fillColor=none;strokeColor=light-dark(#ae63fa, #3480d9);points=[[0,0,0,0,0],[1,1,0,0,0]];rotation=90;" vertex="1" parent="97y2HoLwPn8d9Kt8dTyg-494">
          <mxGeometry x="19" y="20" width="75" height="70" as="geometry" />
        </mxCell>
        <mxCell id="97y2HoLwPn8d9Kt8dTyg-496" value="" style="shape=stencil(vZXdcoMgEIWfhltGlkiSy45N34MaUpkacNAk5u2Dgqn1JzN1sDPeeJb9WM4yLKJJmfFCIIh4WYi0QvQdAVy5kfwztzLYSOZEYHgT7ygFp94m1bIy+lvc5LHyWVJlwsiqidIDit7smuajSaqVshtKrcpfkV7cwrhUNjeqHSxym9z9H4bYCYXd4iwqYVyAOBXBx1JyKCxZr+AnK3TNIzJZyWQczIyhzQFdXs3kf/J4u5rJ4cg/rPA2b1fymSzH0sQqc88fTU7aiC+jL+o4WcxJ5rl7ZV9UXPDm/R0FuvBZX0XfpOGliV750UFyqXoQhhlpBgEsQaUX4woi3jiKAfaEMQ8jA1oNk8Pn7uUYt8nMt76m06u9TPZ4t6HdPfnLmYfASXWuRVaf6ZKdyXP9bdNGF6RV3RxvhQc=);whiteSpace=wrap;html=1;strokeWidth=10;fillColor=none;strokeColor=light-dark(#fa6863, #3480d9);points=[[0,0,0,0,0],[1,1,0,0,0]];rotation=90;" vertex="1" parent="97y2HoLwPn8d9Kt8dTyg-494">
          <mxGeometry x="21" y="23" width="62" height="60" as="geometry" />
        </mxCell>
        <mxCell id="97y2HoLwPn8d9Kt8dTyg-497" value="" style="shape=stencil(vZXdcoMgEIWfhltGlkiSy45N34MaUpkacNAk5u2Dgqn1JzN1sDPeeJb9WM4yLKJJmfFCIIh4WYi0QvQdAVy5kfwztzLYSOZEYHgT7ygFp94m1bIy+lvc5LHyWVJlwsiqidIDit7smuajSaqVshtKrcpfkV7cwrhUNjeqHSxym9z9H4bYCYXd4iwqYVyAOBXBx1JyKCxZr+AnK3TNIzJZyWQczIyhzQFdXs3kf/J4u5rJ4cg/rPA2b1fymSzH0sQqc88fTU7aiC+jL+o4WcxJ5rl7ZV9UXPDm/R0FuvBZX0XfpOGliV750UFyqXoQhhlpBgEsQaUX4woi3jiKAfaEMQ8jA1oNk8Pn7uUYt8nMt76m06u9TPZ4t6HdPfnLmYfASXWuRVaf6ZKdyXP9bdNGF6RV3RxvhQc=);whiteSpace=wrap;html=1;strokeWidth=10;fillColor=none;strokeColor=light-dark(#ecdc86, #3480d9);points=[[0,0,0,0,0],[1,1,0,0,0]];rotation=90;" vertex="1" parent="97y2HoLwPn8d9Kt8dTyg-494">
          <mxGeometry x="26" y="28" width="42" height="50" as="geometry" />
        </mxCell>
        <mxCell id="97y2HoLwPn8d9Kt8dTyg-498" value="" style="shape=stencil(vZXdcoMgEIWfhltGlkiSy45N34MaUpkacNAk5u2Dgqn1JzN1sDPeeJb9WM4yLKJJmfFCIIh4WYi0QvQdAVy5kfwztzLYSOZEYHgT7ygFp94m1bIy+lvc5LHyWVJlwsiqidIDit7smuajSaqVshtKrcpfkV7cwrhUNjeqHSxym9z9H4bYCYXd4iwqYVyAOBXBx1JyKCxZr+AnK3TNIzJZyWQczIyhzQFdXs3kf/J4u5rJ4cg/rPA2b1fymSzH0sQqc88fTU7aiC+jL+o4WcxJ5rl7ZV9UXPDm/R0FuvBZX0XfpOGliV750UFyqXoQhhlpBgEsQaUX4woi3jiKAfaEMQ8jA1oNk8Pn7uUYt8nMt76m06u9TPZ4t6HdPfnLmYfASXWuRVaf6ZKdyXP9bdNGF6RV3RxvhQc=);whiteSpace=wrap;html=1;strokeWidth=10;fillColor=none;strokeColor=light-dark(#3d95fd, #3480d9);points=[[0,0,0,0,0],[1,1,0,0,0]];rotation=90;" vertex="1" parent="97y2HoLwPn8d9Kt8dTyg-494">
          <mxGeometry x="26" y="29" width="32" height="40" as="geometry" />
        </mxCell>
        <mxCell id="97y2HoLwPn8d9Kt8dTyg-499" value="" style="shape=stencil(vZXdcoMgEIWfhltGlkiSy45N34MaUpkacNAk5u2Dgqn1JzN1sDPeeJb9WM4yLKJJmfFCIIh4WYi0QvQdAVy5kfwztzLYSOZEYHgT7ygFp94m1bIy+lvc5LHyWVJlwsiqidIDit7smuajSaqVshtKrcpfkV7cwrhUNjeqHSxym9z9H4bYCYXd4iwqYVyAOBXBx1JyKCxZr+AnK3TNIzJZyWQczIyhzQFdXs3kf/J4u5rJ4cg/rPA2b1fymSzH0sQqc88fTU7aiC+jL+o4WcxJ5rl7ZV9UXPDm/R0FuvBZX0XfpOGliV750UFyqXoQhhlpBgEsQaUX4woi3jiKAfaEMQ8jA1oNk8Pn7uUYt8nMt76m06u9TPZ4t6HdPfnLmYfASXWuRVaf6ZKdyXP9bdNGF6RV3RxvhQc=);whiteSpace=wrap;html=1;strokeWidth=10;fillColor=none;strokeColor=light-dark(#24b064, #3480d9);points=[[0,0,0,0,0],[1,1,0,0,0]];rotation=90;" vertex="1" parent="97y2HoLwPn8d9Kt8dTyg-494">
          <mxGeometry x="29" y="32" width="16" height="30" as="geometry" />
        </mxCell>
        <mxCell id="97y2HoLwPn8d9Kt8dTyg-500" value="" style="shape=stencil(vZXdcoMgEIWfhltGlkiSy45N34MaUpkacNAk5u2Dgqn1JzN1sDPeeJb9WM4yLKJJmfFCIIh4WYi0QvQdAVy5kfwztzLYSOZEYHgT7ygFp94m1bIy+lvc5LHyWVJlwsiqidIDit7smuajSaqVshtKrcpfkV7cwrhUNjeqHSxym9z9H4bYCYXd4iwqYVyAOBXBx1JyKCxZr+AnK3TNIzJZyWQczIyhzQFdXs3kf/J4u5rJ4cg/rPA2b1fymSzH0sQqc88fTU7aiC+jL+o4WcxJ5rl7ZV9UXPDm/R0FuvBZX0XfpOGliV750UFyqXoQhhlpBgEsQaUX4woi3jiKAfaEMQ8jA1oNk8Pn7uUYt8nMt76m06u9TPZ4t6HdPfnLmYfASXWuRVaf6ZKdyXP9bdNGF6RV3RxvhQc=);whiteSpace=wrap;html=1;strokeWidth=10;fillColor=none;strokeColor=light-dark(#f18046, #3480d9);points=[[0,0,0,0,0],[1,1,0,0,0]];rotation=90;" vertex="1" parent="97y2HoLwPn8d9Kt8dTyg-494">
          <mxGeometry x="30" y="33" width="4" height="20" as="geometry" />
        </mxCell>
        <mxCell id="97y2HoLwPn8d9Kt8dTyg-501" value="" style="group;rotation=0;" vertex="1" connectable="0" parent="1">
          <mxGeometry x="1371.38" y="560.0000000000001" width="183" height="111" as="geometry" />
        </mxCell>
        <mxCell id="97y2HoLwPn8d9Kt8dTyg-502" value="" style="shape=stencil(vZXdcoMgEIWfhltGlkiSy45N34MaUpkacNAk5u2Dgqn1JzN1sDPeeJb9WM4yLKJJmfFCIIh4WYi0QvQdAVy5kfwztzLYSOZEYHgT7ygFp94m1bIy+lvc5LHyWVJlwsiqidIDit7smuajSaqVshtKrcpfkV7cwrhUNjeqHSxym9z9H4bYCYXd4iwqYVyAOBXBx1JyKCxZr+AnK3TNIzJZyWQczIyhzQFdXs3kf/J4u5rJ4cg/rPA2b1fymSzH0sQqc88fTU7aiC+jL+o4WcxJ5rl7ZV9UXPDm/R0FuvBZX0XfpOGliV750UFyqXoQhhlpBgEsQaUX4woi3jiKAfaEMQ8jA1oNk8Pn7uUYt8nMt76m06u9TPZ4t6HdPfnLmYfASXWuRVaf6ZKdyXP9bdNGF6RV3RxvhQc=);whiteSpace=wrap;html=1;strokeWidth=10;fillColor=none;strokeColor=light-dark(#f18046, #3480d9);points=[[0,0,0,0,0],[1,1,0,0,0]];rotation=0;" vertex="1" parent="97y2HoLwPn8d9Kt8dTyg-501">
          <mxGeometry x="41" width="75" height="70" as="geometry" />
        </mxCell>
        <mxCell id="97y2HoLwPn8d9Kt8dTyg-503" value="" style="shape=stencil(vZXdcoMgEIWfhltGlkiSy45N34MaUpkacNAk5u2Dgqn1JzN1sDPeeJb9WM4yLKJJmfFCIIh4WYi0QvQdAVy5kfwztzLYSOZEYHgT7ygFp94m1bIy+lvc5LHyWVJlwsiqidIDit7smuajSaqVshtKrcpfkV7cwrhUNjeqHSxym9z9H4bYCYXd4iwqYVyAOBXBx1JyKCxZr+AnK3TNIzJZyWQczIyhzQFdXs3kf/J4u5rJ4cg/rPA2b1fymSzH0sQqc88fTU7aiC+jL+o4WcxJ5rl7ZV9UXPDm/R0FuvBZX0XfpOGliV750UFyqXoQhhlpBgEsQaUX4woi3jiKAfaEMQ8jA1oNk8Pn7uUYt8nMt76m06u9TPZ4t6HdPfnLmYfASXWuRVaf6ZKdyXP9bdNGF6RV3RxvhQc=);whiteSpace=wrap;html=1;strokeWidth=10;fillColor=none;strokeColor=light-dark(#24b064, #3480d9);points=[[0,0,0,0,0],[1,1,0,0,0]];rotation=0;" vertex="1" parent="97y2HoLwPn8d9Kt8dTyg-501">
          <mxGeometry x="45" y="10" width="62" height="60" as="geometry" />
        </mxCell>
        <mxCell id="97y2HoLwPn8d9Kt8dTyg-504" value="" style="shape=stencil(vZXdcoMgEIWfhltGlkiSy45N34MaUpkacNAk5u2Dgqn1JzN1sDPeeJb9WM4yLKJJmfFCIIh4WYi0QvQdAVy5kfwztzLYSOZEYHgT7ygFp94m1bIy+lvc5LHyWVJlwsiqidIDit7smuajSaqVshtKrcpfkV7cwrhUNjeqHSxym9z9H4bYCYXd4iwqYVyAOBXBx1JyKCxZr+AnK3TNIzJZyWQczIyhzQFdXs3kf/J4u5rJ4cg/rPA2b1fymSzH0sQqc88fTU7aiC+jL+o4WcxJ5rl7ZV9UXPDm/R0FuvBZX0XfpOGliV750UFyqXoQhhlpBgEsQaUX4woi3jiKAfaEMQ8jA1oNk8Pn7uUYt8nMt76m06u9TPZ4t6HdPfnLmYfASXWuRVaf6ZKdyXP9bdNGF6RV3RxvhQc=);whiteSpace=wrap;html=1;strokeWidth=10;fillColor=none;strokeColor=light-dark(#3d95fd, #3480d9);points=[[0,0,0,0,0],[1,1,0,0,0]];rotation=0;" vertex="1" parent="97y2HoLwPn8d9Kt8dTyg-501">
          <mxGeometry x="55" y="20" width="42" height="50" as="geometry" />
        </mxCell>
        <mxCell id="97y2HoLwPn8d9Kt8dTyg-505" value="" style="shape=stencil(vZXdcoMgEIWfhltGlkiSy45N34MaUpkacNAk5u2Dgqn1JzN1sDPeeJb9WM4yLKJJmfFCIIh4WYi0QvQdAVy5kfwztzLYSOZEYHgT7ygFp94m1bIy+lvc5LHyWVJlwsiqidIDit7smuajSaqVshtKrcpfkV7cwrhUNjeqHSxym9z9H4bYCYXd4iwqYVyAOBXBx1JyKCxZr+AnK3TNIzJZyWQczIyhzQFdXs3kf/J4u5rJ4cg/rPA2b1fymSzH0sQqc88fTU7aiC+jL+o4WcxJ5rl7ZV9UXPDm/R0FuvBZX0XfpOGliV750UFyqXoQhhlpBgEsQaUX4woi3jiKAfaEMQ8jA1oNk8Pn7uUYt8nMt76m06u9TPZ4t6HdPfnLmYfASXWuRVaf6ZKdyXP9bdNGF6RV3RxvhQc=);whiteSpace=wrap;html=1;strokeWidth=10;fillColor=none;strokeColor=light-dark(#ecdc86, #3480d9);points=[[0,0,0,0,0],[1,1,0,0,0]];rotation=0;" vertex="1" parent="97y2HoLwPn8d9Kt8dTyg-501">
          <mxGeometry x="57" y="29" width="32" height="40" as="geometry" />
        </mxCell>
        <mxCell id="97y2HoLwPn8d9Kt8dTyg-506" value="" style="shape=stencil(vZXdcoMgEIWfhltGlkiSy45N34MaUpkacNAk5u2Dgqn1JzN1sDPeeJb9WM4yLKJJmfFCIIh4WYi0QvQdAVy5kfwztzLYSOZEYHgT7ygFp94m1bIy+lvc5LHyWVJlwsiqidIDit7smuajSaqVshtKrcpfkV7cwrhUNjeqHSxym9z9H4bYCYXd4iwqYVyAOBXBx1JyKCxZr+AnK3TNIzJZyWQczIyhzQFdXs3kf/J4u5rJ4cg/rPA2b1fymSzH0sQqc88fTU7aiC+jL+o4WcxJ5rl7ZV9UXPDm/R0FuvBZX0XfpOGliV750UFyqXoQhhlpBgEsQaUX4woi3jiKAfaEMQ8jA1oNk8Pn7uUYt8nMt76m06u9TPZ4t6HdPfnLmYfASXWuRVaf6ZKdyXP9bdNGF6RV3RxvhQc=);whiteSpace=wrap;html=1;strokeWidth=10;fillColor=none;strokeColor=light-dark(#fa6863, #3480d9);points=[[0,0,0,0,0],[1,1,0,0,0]];rotation=0;" vertex="1" parent="97y2HoLwPn8d9Kt8dTyg-501">
          <mxGeometry x="66" y="40" width="16" height="30" as="geometry" />
        </mxCell>
        <mxCell id="97y2HoLwPn8d9Kt8dTyg-508" value="" style="group;rotation=-180;" vertex="1" connectable="0" parent="97y2HoLwPn8d9Kt8dTyg-501">
          <mxGeometry x="68" y="43" width="115" height="70" as="geometry" />
        </mxCell>
        <mxCell id="97y2HoLwPn8d9Kt8dTyg-509" value="" style="shape=stencil(vZXdcoMgEIWfhltGlkiSy45N34MaUpkacNAk5u2Dgqn1JzN1sDPeeJb9WM4yLKJJmfFCIIh4WYi0QvQdAVy5kfwztzLYSOZEYHgT7ygFp94m1bIy+lvc5LHyWVJlwsiqidIDit7smuajSaqVshtKrcpfkV7cwrhUNjeqHSxym9z9H4bYCYXd4iwqYVyAOBXBx1JyKCxZr+AnK3TNIzJZyWQczIyhzQFdXs3kf/J4u5rJ4cg/rPA2b1fymSzH0sQqc88fTU7aiC+jL+o4WcxJ5rl7ZV9UXPDm/R0FuvBZX0XfpOGliV750UFyqXoQhhlpBgEsQaUX4woi3jiKAfaEMQ8jA1oNk8Pn7uUYt8nMt76m06u9TPZ4t6HdPfnLmYfASXWuRVaf6ZKdyXP9bdNGF6RV3RxvhQc=);whiteSpace=wrap;html=1;strokeWidth=10;fillColor=none;strokeColor=light-dark(#ae63fa, #3480d9);points=[[0,0,0,0,0],[1,1,0,0,0]];rotation=-180;" vertex="1" parent="97y2HoLwPn8d9Kt8dTyg-508">
          <mxGeometry width="75" height="70" as="geometry" />
        </mxCell>
        <mxCell id="97y2HoLwPn8d9Kt8dTyg-510" value="" style="shape=stencil(vZXdcoMgEIWfhltGlkiSy45N34MaUpkacNAk5u2Dgqn1JzN1sDPeeJb9WM4yLKJJmfFCIIh4WYi0QvQdAVy5kfwztzLYSOZEYHgT7ygFp94m1bIy+lvc5LHyWVJlwsiqidIDit7smuajSaqVshtKrcpfkV7cwrhUNjeqHSxym9z9H4bYCYXd4iwqYVyAOBXBx1JyKCxZr+AnK3TNIzJZyWQczIyhzQFdXs3kf/J4u5rJ4cg/rPA2b1fymSzH0sQqc88fTU7aiC+jL+o4WcxJ5rl7ZV9UXPDm/R0FuvBZX0XfpOGliV750UFyqXoQhhlpBgEsQaUX4woi3jiKAfaEMQ8jA1oNk8Pn7uUYt8nMt76m06u9TPZ4t6HdPfnLmYfASXWuRVaf6ZKdyXP9bdNGF6RV3RxvhQc=);whiteSpace=wrap;html=1;strokeWidth=10;fillColor=none;strokeColor=light-dark(#fa6863, #3480d9);points=[[0,0,0,0,0],[1,1,0,0,0]];rotation=-180;" vertex="1" parent="97y2HoLwPn8d9Kt8dTyg-508">
          <mxGeometry x="9" width="62" height="60" as="geometry" />
        </mxCell>
        <mxCell id="97y2HoLwPn8d9Kt8dTyg-511" value="" style="shape=stencil(vZXdcoMgEIWfhltGlkiSy45N34MaUpkacNAk5u2Dgqn1JzN1sDPeeJb9WM4yLKJJmfFCIIh4WYi0QvQdAVy5kfwztzLYSOZEYHgT7ygFp94m1bIy+lvc5LHyWVJlwsiqidIDit7smuajSaqVshtKrcpfkV7cwrhUNjeqHSxym9z9H4bYCYXd4iwqYVyAOBXBx1JyKCxZr+AnK3TNIzJZyWQczIyhzQFdXs3kf/J4u5rJ4cg/rPA2b1fymSzH0sQqc88fTU7aiC+jL+o4WcxJ5rl7ZV9UXPDm/R0FuvBZX0XfpOGliV750UFyqXoQhhlpBgEsQaUX4woi3jiKAfaEMQ8jA1oNk8Pn7uUYt8nMt76m06u9TPZ4t6HdPfnLmYfASXWuRVaf6ZKdyXP9bdNGF6RV3RxvhQc=);whiteSpace=wrap;html=1;strokeWidth=10;fillColor=none;strokeColor=light-dark(#ecdc86, #3480d9);points=[[0,0,0,0,0],[1,1,0,0,0]];rotation=-180;" vertex="1" parent="97y2HoLwPn8d9Kt8dTyg-508">
          <mxGeometry x="18" width="42" height="50" as="geometry" />
        </mxCell>
        <mxCell id="97y2HoLwPn8d9Kt8dTyg-512" value="" style="shape=stencil(vZXdcoMgEIWfhltGlkiSy45N34MaUpkacNAk5u2Dgqn1JzN1sDPeeJb9WM4yLKJJmfFCIIh4WYi0QvQdAVy5kfwztzLYSOZEYHgT7ygFp94m1bIy+lvc5LHyWVJlwsiqidIDit7smuajSaqVshtKrcpfkV7cwrhUNjeqHSxym9z9H4bYCYXd4iwqYVyAOBXBx1JyKCxZr+AnK3TNIzJZyWQczIyhzQFdXs3kf/J4u5rJ4cg/rPA2b1fymSzH0sQqc88fTU7aiC+jL+o4WcxJ5rl7ZV9UXPDm/R0FuvBZX0XfpOGliV750UFyqXoQhhlpBgEsQaUX4woi3jiKAfaEMQ8jA1oNk8Pn7uUYt8nMt76m06u9TPZ4t6HdPfnLmYfASXWuRVaf6ZKdyXP9bdNGF6RV3RxvhQc=);whiteSpace=wrap;html=1;strokeWidth=10;fillColor=none;strokeColor=light-dark(#3d95fd, #3480d9);points=[[0,0,0,0,0],[1,1,0,0,0]];rotation=-180;" vertex="1" parent="97y2HoLwPn8d9Kt8dTyg-508">
          <mxGeometry x="27" width="32" height="40" as="geometry" />
        </mxCell>
        <mxCell id="97y2HoLwPn8d9Kt8dTyg-513" value="" style="shape=stencil(vZXdcoMgEIWfhltGlkiSy45N34MaUpkacNAk5u2Dgqn1JzN1sDPeeJb9WM4yLKJJmfFCIIh4WYi0QvQdAVy5kfwztzLYSOZEYHgT7ygFp94m1bIy+lvc5LHyWVJlwsiqidIDit7smuajSaqVshtKrcpfkV7cwrhUNjeqHSxym9z9H4bYCYXd4iwqYVyAOBXBx1JyKCxZr+AnK3TNIzJZyWQczIyhzQFdXs3kf/J4u5rJ4cg/rPA2b1fymSzH0sQqc88fTU7aiC+jL+o4WcxJ5rl7ZV9UXPDm/R0FuvBZX0XfpOGliV750UFyqXoQhhlpBgEsQaUX4woi3jiKAfaEMQ8jA1oNk8Pn7uUYt8nMt76m06u9TPZ4t6HdPfnLmYfASXWuRVaf6ZKdyXP9bdNGF6RV3RxvhQc=);whiteSpace=wrap;html=1;strokeWidth=10;fillColor=none;strokeColor=light-dark(#24b064, #3480d9);points=[[0,0,0,0,0],[1,1,0,0,0]];rotation=-180;" vertex="1" parent="97y2HoLwPn8d9Kt8dTyg-508">
          <mxGeometry x="37" width="16" height="30" as="geometry" />
        </mxCell>
        <mxCell id="97y2HoLwPn8d9Kt8dTyg-514" value="" style="shape=stencil(vZXdcoMgEIWfhltGlkiSy45N34MaUpkacNAk5u2Dgqn1JzN1sDPeeJb9WM4yLKJJmfFCIIh4WYi0QvQdAVy5kfwztzLYSOZEYHgT7ygFp94m1bIy+lvc5LHyWVJlwsiqidIDit7smuajSaqVshtKrcpfkV7cwrhUNjeqHSxym9z9H4bYCYXd4iwqYVyAOBXBx1JyKCxZr+AnK3TNIzJZyWQczIyhzQFdXs3kf/J4u5rJ4cg/rPA2b1fymSzH0sQqc88fTU7aiC+jL+o4WcxJ5rl7ZV9UXPDm/R0FuvBZX0XfpOGliV750UFyqXoQhhlpBgEsQaUX4woi3jiKAfaEMQ8jA1oNk8Pn7uUYt8nMt76m06u9TPZ4t6HdPfnLmYfASXWuRVaf6ZKdyXP9bdNGF6RV3RxvhQc=);whiteSpace=wrap;html=1;strokeWidth=10;fillColor=none;strokeColor=light-dark(#f18046, #3480d9);points=[[0,0,0,0,0],[1,1,0,0,0]];rotation=-180;" vertex="1" parent="97y2HoLwPn8d9Kt8dTyg-508">
          <mxGeometry x="47" width="4" height="20" as="geometry" />
        </mxCell>
        <mxCell id="97y2HoLwPn8d9Kt8dTyg-515" value="" style="endArrow=none;html=1;rounded=0;strokeWidth=10;strokeColor=light-dark(#b067fa, #1a9251);entryX=0.011;entryY=0.002;entryDx=0;entryDy=0;entryPerimeter=0;exitX=0;exitY=0;exitDx=0;exitDy=0;exitPerimeter=0;" edge="1" parent="1" source="97y2HoLwPn8d9Kt8dTyg-509" target="97y2HoLwPn8d9Kt8dTyg-285">
          <mxGeometry width="50" height="50" relative="1" as="geometry">
            <mxPoint x="1499.38" y="686.76" as="sourcePoint" />
            <mxPoint x="1549.38" y="685" as="targetPoint" />
          </mxGeometry>
        </mxCell>
        <mxCell id="97y2HoLwPn8d9Kt8dTyg-516" value="" style="endArrow=none;html=1;rounded=0;strokeWidth=10;strokeColor=light-dark(#fa6863, #1a9251);entryX=0.003;entryY=0.004;entryDx=0;entryDy=0;entryPerimeter=0;exitX=0;exitY=0;exitDx=0;exitDy=0;exitPerimeter=0;" edge="1" parent="1" source="97y2HoLwPn8d9Kt8dTyg-510" target="97y2HoLwPn8d9Kt8dTyg-480">
          <mxGeometry width="50" height="50" relative="1" as="geometry">
            <mxPoint x="1519.38" y="676" as="sourcePoint" />
            <mxPoint x="1638.38" y="677" as="targetPoint" />
          </mxGeometry>
        </mxCell>
        <mxCell id="97y2HoLwPn8d9Kt8dTyg-517" value="" style="endArrow=none;html=1;rounded=0;strokeWidth=10;strokeColor=light-dark(#ecdc86, #1a9251);entryX=0.003;entryY=0.002;entryDx=0;entryDy=0;entryPerimeter=0;exitX=0;exitY=0;exitDx=0;exitDy=0;exitPerimeter=0;" edge="1" parent="1" source="97y2HoLwPn8d9Kt8dTyg-511" target="97y2HoLwPn8d9Kt8dTyg-481">
          <mxGeometry width="50" height="50" relative="1" as="geometry">
            <mxPoint x="1521.38" y="671" as="sourcePoint" />
            <mxPoint x="1642.38" y="672" as="targetPoint" />
          </mxGeometry>
        </mxCell>
        <mxCell id="97y2HoLwPn8d9Kt8dTyg-518" value="" style="endArrow=none;html=1;rounded=0;strokeWidth=10;strokeColor=light-dark(#3d95fd, #1a9251);entryX=0.004;entryY=-0.005;entryDx=0;entryDy=0;entryPerimeter=0;exitX=0;exitY=0;exitDx=0;exitDy=0;exitPerimeter=0;" edge="1" parent="1" source="97y2HoLwPn8d9Kt8dTyg-512" target="97y2HoLwPn8d9Kt8dTyg-482">
          <mxGeometry width="50" height="50" relative="1" as="geometry">
            <mxPoint x="1510.38" y="661" as="sourcePoint" />
            <mxPoint x="1641.38" y="663" as="targetPoint" />
          </mxGeometry>
        </mxCell>
        <mxCell id="97y2HoLwPn8d9Kt8dTyg-519" value="" style="endArrow=none;html=1;rounded=0;strokeWidth=10;strokeColor=#24b064;entryX=0.002;entryY=-0.004;entryDx=0;entryDy=0;entryPerimeter=0;exitX=0;exitY=0;exitDx=0;exitDy=0;exitPerimeter=0;" edge="1" parent="1" source="97y2HoLwPn8d9Kt8dTyg-513" target="97y2HoLwPn8d9Kt8dTyg-483">
          <mxGeometry width="50" height="50" relative="1" as="geometry">
            <mxPoint x="1510.38" y="651" as="sourcePoint" />
            <mxPoint x="1640.38" y="655" as="targetPoint" />
          </mxGeometry>
        </mxCell>
        <mxCell id="97y2HoLwPn8d9Kt8dTyg-520" value="" style="endArrow=none;html=1;rounded=0;strokeWidth=10;strokeColor=light-dark(#f18046, #1a9251);entryX=0.001;entryY=-0.003;entryDx=0;entryDy=0;entryPerimeter=0;exitX=0;exitY=0;exitDx=0;exitDy=0;exitPerimeter=0;" edge="1" parent="1" source="97y2HoLwPn8d9Kt8dTyg-514" target="97y2HoLwPn8d9Kt8dTyg-484">
          <mxGeometry width="50" height="50" relative="1" as="geometry">
            <mxPoint x="1504.38" y="640" as="sourcePoint" />
            <mxPoint x="1640.38" y="646" as="targetPoint" />
          </mxGeometry>
        </mxCell>
        <mxCell id="97y2HoLwPn8d9Kt8dTyg-524" value="" style="group" vertex="1" connectable="0" parent="1">
          <mxGeometry x="1559.38" y="615.0000000000001" width="140" height="105.49999999999989" as="geometry" />
        </mxCell>
        <mxCell id="97y2HoLwPn8d9Kt8dTyg-525" value="&lt;font face=&quot;Maven Pro&quot;&gt;&lt;span style=&quot;font-size: 20px;&quot;&gt;&lt;b&gt;IRMA&lt;/b&gt;&lt;/span&gt;&lt;/font&gt;" style="text;html=1;strokeColor=none;fillColor=none;align=center;verticalAlign=middle;whiteSpace=wrap;rounded=0;fontColor=default;" vertex="1" parent="97y2HoLwPn8d9Kt8dTyg-524">
          <mxGeometry x="-40" y="49.499999999999886" width="140" height="60" as="geometry" />
        </mxCell>
        <mxCell id="97y2HoLwPn8d9Kt8dTyg-526" value="" style="shape=image;verticalLabelPosition=bottom;verticalAlign=top;imageAspect=0;aspect=fixed;image=data:image/svg+xml,PHN2ZyB4bWxucz0iaHR0cDovL3d3dy53My5vcmcvMjAwMC9zdmciIGlkPSJzdmc3MzYyIiB2ZXJzaW9uPSIxLjEiIHZpZXdCb3g9IjAgMCA3LjkzNzQ5ODEgMTUuODc1IiBoZWlnaHQ9IjE1Ljg3NW1tIiB3aWR0aD0iNy45Mzc0OTgxbW0iPiYjeGE7ICAmI3hhOyAgICAmI3hhOyAgJiN4YTsgIDxkZWZzIGlkPSJkZWZzNzM1OSIvPiYjeGE7ICA8ZyB0cmFuc2Zvcm09InRyYW5zbGF0ZSgtMjIuNTEwMjYyLC0zMy4wNzI5MTMpIiBpZD0ibGF5ZXI1Ij4mI3hhOyAgICA8ZyBpZD0ibGF5ZXI2Ij4mI3hhOyAgICAgIDxyZWN0IHRyYW5zZm9ybT0ic2NhbGUoLTEpIiByeT0iMi42NDU4MzMzIiB5PSItNDcuNjI0OTk2IiB4PSItMjkuMTI0ODQ2IiBoZWlnaHQ9IjEzLjIyOTE2NiIgd2lkdGg9IjUuMjkxNjY3OSIgaWQ9InJlY3Q5MTgiIHN0eWxlPSJmaWxsOiNmZmZmZmY7c3Ryb2tlOiMwMDAwMDA7c3Ryb2tlLXdpZHRoOjIuNjQ1ODM7c3Ryb2tlLWxpbmVjYXA6cm91bmQ7c3Ryb2tlLWRhc2hhcnJheTpub25lO3BhaW50LW9yZGVyOnN0cm9rZSBtYXJrZXJzIGZpbGw7c3RvcC1jb2xvcjojMDAwMDAwIi8+JiN4YTsgICAgPC9nPiYjeGE7ICA8L2c+JiN4YTs8L3N2Zz4=" vertex="1" parent="97y2HoLwPn8d9Kt8dTyg-524">
          <mxGeometry x="13" y="3" width="30" height="60" as="geometry" />
        </mxCell>
        <mxCell id="97y2HoLwPn8d9Kt8dTyg-527" value="" style="endArrow=none;html=1;rounded=0;strokeWidth=10;strokeColor=light-dark(#ae63fa, #1a9251);exitX=0;exitY=0;exitDx=0;exitDy=0;exitPerimeter=0;entryX=0;entryY=0;entryDx=0;entryDy=0;entryPerimeter=0;" edge="1" parent="1" source="97y2HoLwPn8d9Kt8dTyg-492" target="97y2HoLwPn8d9Kt8dTyg-495">
          <mxGeometry width="50" height="50" relative="1" as="geometry">
            <mxPoint x="1409.38" y="545" as="sourcePoint" />
            <mxPoint x="1489.38" y="545" as="targetPoint" />
          </mxGeometry>
        </mxCell>
        <mxCell id="97y2HoLwPn8d9Kt8dTyg-528" value="" style="endArrow=none;html=1;rounded=0;strokeWidth=10;strokeColor=light-dark(#fa6863, #1a9251);exitX=0;exitY=0;exitDx=0;exitDy=0;exitPerimeter=0;entryX=0;entryY=0;entryDx=0;entryDy=0;entryPerimeter=0;" edge="1" parent="1" source="97y2HoLwPn8d9Kt8dTyg-491" target="97y2HoLwPn8d9Kt8dTyg-496">
          <mxGeometry width="50" height="50" relative="1" as="geometry">
            <mxPoint x="1493.38" y="537" as="sourcePoint" />
            <mxPoint x="1493.38" y="543" as="targetPoint" />
          </mxGeometry>
        </mxCell>
        <mxCell id="97y2HoLwPn8d9Kt8dTyg-529" value="" style="endArrow=none;html=1;rounded=0;strokeWidth=10;strokeColor=light-dark(#ecdc86, #1a9251);exitX=0;exitY=0;exitDx=0;exitDy=0;exitPerimeter=0;entryX=0;entryY=0;entryDx=0;entryDy=0;entryPerimeter=0;" edge="1" parent="1" source="97y2HoLwPn8d9Kt8dTyg-490" target="97y2HoLwPn8d9Kt8dTyg-497">
          <mxGeometry width="50" height="50" relative="1" as="geometry">
            <mxPoint x="1483.38" y="539" as="sourcePoint" />
            <mxPoint x="1483.38" y="547" as="targetPoint" />
          </mxGeometry>
        </mxCell>
        <mxCell id="97y2HoLwPn8d9Kt8dTyg-530" value="" style="endArrow=none;html=1;rounded=0;strokeWidth=10;strokeColor=light-dark(#3d95fd, #1a9251);exitX=0;exitY=0;exitDx=0;exitDy=0;exitPerimeter=0;entryX=0;entryY=0;entryDx=0;entryDy=0;entryPerimeter=0;" edge="1" parent="1" source="97y2HoLwPn8d9Kt8dTyg-489" target="97y2HoLwPn8d9Kt8dTyg-498">
          <mxGeometry width="50" height="50" relative="1" as="geometry">
            <mxPoint x="1473.38" y="545" as="sourcePoint" />
            <mxPoint x="1473.38" y="557" as="targetPoint" />
          </mxGeometry>
        </mxCell>
        <mxCell id="97y2HoLwPn8d9Kt8dTyg-531" value="" style="endArrow=none;html=1;rounded=0;strokeWidth=10;strokeColor=light-dark(#24b064, #1a9251);exitX=0;exitY=0;exitDx=0;exitDy=0;exitPerimeter=0;entryX=0;entryY=0;entryDx=0;entryDy=0;entryPerimeter=0;" edge="1" parent="1" source="97y2HoLwPn8d9Kt8dTyg-488" target="97y2HoLwPn8d9Kt8dTyg-499">
          <mxGeometry width="50" height="50" relative="1" as="geometry">
            <mxPoint x="1463.38" y="546" as="sourcePoint" />
            <mxPoint x="1463.38" y="558" as="targetPoint" />
          </mxGeometry>
        </mxCell>
        <mxCell id="97y2HoLwPn8d9Kt8dTyg-532" value="" style="endArrow=none;html=1;rounded=0;strokeWidth=10;strokeColor=light-dark(#f18046, #1a9251);exitX=0;exitY=0;exitDx=0;exitDy=0;exitPerimeter=0;entryX=0.276;entryY=0.011;entryDx=0;entryDy=0;entryPerimeter=0;" edge="1" parent="1" source="97y2HoLwPn8d9Kt8dTyg-487" target="97y2HoLwPn8d9Kt8dTyg-502">
          <mxGeometry width="50" height="50" relative="1" as="geometry">
            <mxPoint x="1453.38" y="556" as="sourcePoint" />
            <mxPoint x="1453.38" y="564" as="targetPoint" />
          </mxGeometry>
        </mxCell>
        <mxCell id="97y2HoLwPn8d9Kt8dTyg-534" value="" style="endArrow=none;html=1;rounded=0;strokeWidth=10;strokeColor=light-dark(#f18046, #1a9251);entryX=1;entryY=1;entryDx=0;entryDy=0;entryPerimeter=0;exitX=1;exitY=1;exitDx=0;exitDy=0;exitPerimeter=0;" edge="1" parent="1" source="97y2HoLwPn8d9Kt8dTyg-487" target="97y2HoLwPn8d9Kt8dTyg-462">
          <mxGeometry width="50" height="50" relative="1" as="geometry">
            <mxPoint x="1500.38" y="633" as="sourcePoint" />
            <mxPoint x="1640.38" y="636" as="targetPoint" />
          </mxGeometry>
        </mxCell>
        <mxCell id="97y2HoLwPn8d9Kt8dTyg-535" value="" style="endArrow=none;html=1;rounded=0;strokeWidth=10;strokeColor=#24b064;entryX=1;entryY=1;entryDx=0;entryDy=0;entryPerimeter=0;exitX=1;exitY=1;exitDx=0;exitDy=0;exitPerimeter=0;" edge="1" parent="1" source="97y2HoLwPn8d9Kt8dTyg-488" target="97y2HoLwPn8d9Kt8dTyg-459">
          <mxGeometry width="50" height="50" relative="1" as="geometry">
            <mxPoint x="1502.38" y="643" as="sourcePoint" />
            <mxPoint x="1640.38" y="646" as="targetPoint" />
          </mxGeometry>
        </mxCell>
        <mxCell id="97y2HoLwPn8d9Kt8dTyg-537" value="" style="endArrow=none;html=1;rounded=0;strokeWidth=10;strokeColor=light-dark(#3d95fd, #1a9251);entryX=1;entryY=1;entryDx=0;entryDy=0;entryPerimeter=0;exitX=1;exitY=1;exitDx=0;exitDy=0;exitPerimeter=0;" edge="1" parent="1" source="97y2HoLwPn8d9Kt8dTyg-489" target="97y2HoLwPn8d9Kt8dTyg-458">
          <mxGeometry width="50" height="50" relative="1" as="geometry">
            <mxPoint x="1508.38" y="653" as="sourcePoint" />
            <mxPoint x="1640.38" y="655" as="targetPoint" />
          </mxGeometry>
        </mxCell>
        <mxCell id="97y2HoLwPn8d9Kt8dTyg-538" value="" style="endArrow=none;html=1;rounded=0;strokeWidth=10;strokeColor=light-dark(#ecdc86, #1a9251);entryX=1;entryY=1;entryDx=0;entryDy=0;entryPerimeter=0;exitX=1;exitY=1;exitDx=0;exitDy=0;exitPerimeter=0;" edge="1" parent="1" source="97y2HoLwPn8d9Kt8dTyg-490" target="97y2HoLwPn8d9Kt8dTyg-457">
          <mxGeometry width="50" height="50" relative="1" as="geometry">
            <mxPoint x="1509.38" y="663" as="sourcePoint" />
            <mxPoint x="1641.38" y="663" as="targetPoint" />
          </mxGeometry>
        </mxCell>
        <mxCell id="97y2HoLwPn8d9Kt8dTyg-539" value="" style="endArrow=none;html=1;rounded=0;strokeWidth=10;strokeColor=light-dark(#fa6863, #1a9251);entryX=1;entryY=1;entryDx=0;entryDy=0;entryPerimeter=0;exitX=1;exitY=1;exitDx=0;exitDy=0;exitPerimeter=0;" edge="1" parent="1" source="97y2HoLwPn8d9Kt8dTyg-491" target="97y2HoLwPn8d9Kt8dTyg-456">
          <mxGeometry width="50" height="50" relative="1" as="geometry">
            <mxPoint x="1520.38" y="673" as="sourcePoint" />
            <mxPoint x="1642.38" y="672" as="targetPoint" />
          </mxGeometry>
        </mxCell>
        <mxCell id="97y2HoLwPn8d9Kt8dTyg-540" value="" style="endArrow=none;html=1;rounded=0;strokeWidth=10;strokeColor=light-dark(#b067fa, #1a9251);entryX=1;entryY=1;entryDx=0;entryDy=0;entryPerimeter=0;exitX=1;exitY=1;exitDx=0;exitDy=0;exitPerimeter=0;" edge="1" parent="1" source="97y2HoLwPn8d9Kt8dTyg-492" target="97y2HoLwPn8d9Kt8dTyg-455">
          <mxGeometry width="50" height="50" relative="1" as="geometry">
            <mxPoint x="1524.38" y="683" as="sourcePoint" />
            <mxPoint x="1643.38" y="682" as="targetPoint" />
          </mxGeometry>
        </mxCell>
        <mxCell id="97y2HoLwPn8d9Kt8dTyg-541" value="&lt;font face=&quot;Maven Pro&quot;&gt;&lt;span style=&quot;font-size: 20px;&quot;&gt;&lt;b&gt;iVar&lt;/b&gt;&lt;/span&gt;&lt;/font&gt;" style="text;html=1;strokeColor=none;fillColor=none;align=center;verticalAlign=middle;whiteSpace=wrap;rounded=0;fontColor=default;" vertex="1" parent="1">
          <mxGeometry x="1467.38" y="521" width="140" height="60" as="geometry" />
        </mxCell>
        <mxCell id="97y2HoLwPn8d9Kt8dTyg-542" value="" style="shape=image;verticalLabelPosition=bottom;verticalAlign=top;imageAspect=0;aspect=fixed;image=data:image/svg+xml,PHN2ZyB4bWxucz0iaHR0cDovL3d3dy53My5vcmcvMjAwMC9zdmciIGlkPSJzdmc3MzYyIiB2ZXJzaW9uPSIxLjEiIHZpZXdCb3g9IjAgMCA3LjkzNzQ5ODEgMTUuODc1IiBoZWlnaHQ9IjE1Ljg3NW1tIiB3aWR0aD0iNy45Mzc0OTgxbW0iPiYjeGE7ICAmI3hhOyAgICAmI3hhOyAgJiN4YTsgIDxkZWZzIGlkPSJkZWZzNzM1OSIvPiYjeGE7ICA8ZyB0cmFuc2Zvcm09InRyYW5zbGF0ZSgtMjIuNTEwMjYyLC0zMy4wNzI5MTMpIiBpZD0ibGF5ZXI1Ij4mI3hhOyAgICA8ZyBpZD0ibGF5ZXI2Ij4mI3hhOyAgICAgIDxyZWN0IHRyYW5zZm9ybT0ic2NhbGUoLTEpIiByeT0iMi42NDU4MzMzIiB5PSItNDcuNjI0OTk2IiB4PSItMjkuMTI0ODQ2IiBoZWlnaHQ9IjEzLjIyOTE2NiIgd2lkdGg9IjUuMjkxNjY3OSIgaWQ9InJlY3Q5MTgiIHN0eWxlPSJmaWxsOiNmZmZmZmY7c3Ryb2tlOiMwMDAwMDA7c3Ryb2tlLXdpZHRoOjIuNjQ1ODM7c3Ryb2tlLWxpbmVjYXA6cm91bmQ7c3Ryb2tlLWRhc2hhcnJheTpub25lO3BhaW50LW9yZGVyOnN0cm9rZSBtYXJrZXJzIGZpbGw7c3RvcC1jb2xvcjojMDAwMDAwIi8+JiN4YTsgICAgPC9nPiYjeGE7ICA8L2c+JiN4YTs8L3N2Zz4=" vertex="1" parent="1">
          <mxGeometry x="1519.38" y="470.0000000000001" width="30" height="60" as="geometry" />
        </mxCell>
        <mxCell id="97y2HoLwPn8d9Kt8dTyg-543" value="" style="shape=image;verticalLabelPosition=bottom;verticalAlign=top;imageAspect=0;aspect=fixed;image=data:image/svg+xml,PHN2ZyB4bWxucz0iaHR0cDovL3d3dy53My5vcmcvMjAwMC9zdmciIGlkPSJzdmc3MzYyIiB2ZXJzaW9uPSIxLjEiIHZpZXdCb3g9IjAgMCA3LjkzNzQ5ODEgMTUuODc1IiBoZWlnaHQ9IjE1Ljg3NW1tIiB3aWR0aD0iNy45Mzc0OTgxbW0iPiYjeGE7ICAmI3hhOyAgICAmI3hhOyAgJiN4YTsgIDxkZWZzIGlkPSJkZWZzNzM1OSIvPiYjeGE7ICA8ZyB0cmFuc2Zvcm09InRyYW5zbGF0ZSgtMjIuNTEwMjYyLC0zMy4wNzI5MTMpIiBpZD0ibGF5ZXI1Ij4mI3hhOyAgICA8ZyBpZD0ibGF5ZXI2Ij4mI3hhOyAgICAgIDxyZWN0IHRyYW5zZm9ybT0ic2NhbGUoLTEpIiByeT0iMi42NDU4MzMzIiB5PSItNDcuNjI0OTk2IiB4PSItMjkuMTI0ODQ2IiBoZWlnaHQ9IjEzLjIyOTE2NiIgd2lkdGg9IjUuMjkxNjY3OSIgaWQ9InJlY3Q5MTgiIHN0eWxlPSJmaWxsOiNmZmZmZmY7c3Ryb2tlOiMwMDAwMDA7c3Ryb2tlLXdpZHRoOjIuNjQ1ODM7c3Ryb2tlLWxpbmVjYXA6cm91bmQ7c3Ryb2tlLWRhc2hhcnJheTpub25lO3BhaW50LW9yZGVyOnN0cm9rZSBtYXJrZXJzIGZpbGw7c3RvcC1jb2xvcjojMDAwMDAwIi8+JiN4YTsgICAgPC9nPiYjeGE7ICA8L2c+JiN4YTs8L3N2Zz4=" vertex="1" parent="1">
          <mxGeometry x="1645.38" y="471.0000000000001" width="30" height="60" as="geometry" />
        </mxCell>
        <mxCell id="97y2HoLwPn8d9Kt8dTyg-555" value="" style="endArrow=none;html=1;rounded=0;strokeWidth=10;strokeColor=light-dark(#f18046, #1a9251);entryX=0;entryY=0;entryDx=0;entryDy=0;entryPerimeter=0;" edge="1" parent="1">
          <mxGeometry width="50" height="50" relative="1" as="geometry">
            <mxPoint x="734" y="560" as="sourcePoint" />
            <mxPoint x="1430.38" y="560" as="targetPoint" />
          </mxGeometry>
        </mxCell>
        <mxCell id="97y2HoLwPn8d9Kt8dTyg-562" value="&lt;font face=&quot;Maven Pro&quot;&gt;&lt;span style=&quot;font-size: 20px;&quot;&gt;&lt;b&gt;SUMMARIZE&lt;/b&gt;&lt;/span&gt;&lt;/font&gt;" style="text;html=1;strokeColor=none;fillColor=none;align=left;verticalAlign=middle;whiteSpace=wrap;rounded=0;fontColor=default;" vertex="1" parent="1">
          <mxGeometry x="776.13" y="455" width="148.25" height="70" as="geometry" />
        </mxCell>
        <mxCell id="97y2HoLwPn8d9Kt8dTyg-449" value="&lt;font face=&quot;Maven Pro&quot;&gt;&lt;span style=&quot;font-size: 20px;&quot;&gt;&lt;b&gt;PREPARE INPUTS&lt;/b&gt;&lt;/span&gt;&lt;/font&gt;" style="text;html=1;strokeColor=none;fillColor=none;align=left;verticalAlign=middle;whiteSpace=wrap;rounded=0;fontColor=default;" vertex="1" parent="1">
          <mxGeometry x="345" y="171" width="190" height="41" as="geometry" />
        </mxCell>
        <mxCell id="97y2HoLwPn8d9Kt8dTyg-563" value="" style="shape=image;verticalLabelPosition=bottom;verticalAlign=top;imageAspect=0;aspect=fixed;image=data:image/svg+xml,PHN2ZyB4bWxucz0iaHR0cDovL3d3dy53My5vcmcvMjAwMC9zdmciIGlkPSJzdmc3MzYyIiB2ZXJzaW9uPSIxLjEiIHZpZXdCb3g9IjAgMCA3LjkzNzQ5ODEgMTUuODc1IiBoZWlnaHQ9IjE1Ljg3NW1tIiB3aWR0aD0iNy45Mzc0OTgxbW0iPiYjeGE7ICAmI3hhOyAgICAmI3hhOyAgJiN4YTsgIDxkZWZzIGlkPSJkZWZzNzM1OSIvPiYjeGE7ICA8ZyB0cmFuc2Zvcm09InRyYW5zbGF0ZSgtMjIuNTEwMjYyLC0zMy4wNzI5MTMpIiBpZD0ibGF5ZXI1Ij4mI3hhOyAgICA8ZyBpZD0ibGF5ZXI2Ij4mI3hhOyAgICAgIDxyZWN0IHRyYW5zZm9ybT0ic2NhbGUoLTEpIiByeT0iMi42NDU4MzMzIiB5PSItNDcuNjI0OTk2IiB4PSItMjkuMTI0ODQ2IiBoZWlnaHQ9IjEzLjIyOTE2NiIgd2lkdGg9IjUuMjkxNjY3OSIgaWQ9InJlY3Q5MTgiIHN0eWxlPSJmaWxsOiNmZmZmZmY7c3Ryb2tlOiMwMDAwMDA7c3Ryb2tlLXdpZHRoOjIuNjQ1ODM7c3Ryb2tlLWxpbmVjYXA6cm91bmQ7c3Ryb2tlLWRhc2hhcnJheTpub25lO3BhaW50LW9yZGVyOnN0cm9rZSBtYXJrZXJzIGZpbGw7c3RvcC1jb2xvcjojMDAwMDAwIi8+JiN4YTsgICAgPC9nPiYjeGE7ICA8L2c+JiN4YTs8L3N2Zz4=" vertex="1" parent="1">
          <mxGeometry x="861.88" y="553" width="32" height="64" as="geometry" />
        </mxCell>
        <mxCell id="97y2HoLwPn8d9Kt8dTyg-564" value="" style="shape=image;verticalLabelPosition=bottom;verticalAlign=top;imageAspect=0;aspect=fixed;image=data:image/svg+xml,PHN2ZyB4bWxucz0iaHR0cDovL3d3dy53My5vcmcvMjAwMC9zdmciIGlkPSJzdmc3MzYyIiB2ZXJzaW9uPSIxLjEiIHZpZXdCb3g9IjAgMCA3LjkzNzQ5ODEgMTUuODc1IiBoZWlnaHQ9IjE1Ljg3NW1tIiB3aWR0aD0iNy45Mzc0OTgxbW0iPiYjeGE7ICAmI3hhOyAgICAmI3hhOyAgJiN4YTsgIDxkZWZzIGlkPSJkZWZzNzM1OSIvPiYjeGE7ICA8ZyB0cmFuc2Zvcm09InRyYW5zbGF0ZSgtMjIuNTEwMjYyLC0zMy4wNzI5MTMpIiBpZD0ibGF5ZXI1Ij4mI3hhOyAgICA8ZyBpZD0ibGF5ZXI2Ij4mI3hhOyAgICAgIDxyZWN0IHRyYW5zZm9ybT0ic2NhbGUoLTEpIiByeT0iMi42NDU4MzMzIiB5PSItNDcuNjI0OTk2IiB4PSItMjkuMTI0ODQ2IiBoZWlnaHQ9IjEzLjIyOTE2NiIgd2lkdGg9IjUuMjkxNjY3OSIgaWQ9InJlY3Q5MTgiIHN0eWxlPSJmaWxsOiNmZmZmZmY7c3Ryb2tlOiMwMDAwMDA7c3Ryb2tlLXdpZHRoOjIuNjQ1ODM7c3Ryb2tlLWxpbmVjYXA6cm91bmQ7c3Ryb2tlLWRhc2hhcnJheTpub25lO3BhaW50LW9yZGVyOnN0cm9rZSBtYXJrZXJzIGZpbGw7c3RvcC1jb2xvcjojMDAwMDAwIi8+JiN4YTsgICAgPC9nPiYjeGE7ICA8L2c+JiN4YTs8L3N2Zz4=" vertex="1" parent="1">
          <mxGeometry x="1074.38" y="555.5000000000001" width="30" height="60" as="geometry" />
        </mxCell>
        <mxCell id="97y2HoLwPn8d9Kt8dTyg-565" value="" style="shape=image;verticalLabelPosition=bottom;verticalAlign=top;imageAspect=0;aspect=fixed;image=data:image/svg+xml,PHN2ZyB4bWxucz0iaHR0cDovL3d3dy53My5vcmcvMjAwMC9zdmciIGlkPSJzdmc3MzYyIiB2ZXJzaW9uPSIxLjEiIHZpZXdCb3g9IjAgMCA3LjkzNzQ5ODEgMTUuODc1IiBoZWlnaHQ9IjE1Ljg3NW1tIiB3aWR0aD0iNy45Mzc0OTgxbW0iPiYjeGE7ICAmI3hhOyAgICAmI3hhOyAgJiN4YTsgIDxkZWZzIGlkPSJkZWZzNzM1OSIvPiYjeGE7ICA8ZyB0cmFuc2Zvcm09InRyYW5zbGF0ZSgtMjIuNTEwMjYyLC0zMy4wNzI5MTMpIiBpZD0ibGF5ZXI1Ij4mI3hhOyAgICA8ZyBpZD0ibGF5ZXI2Ij4mI3hhOyAgICAgIDxyZWN0IHRyYW5zZm9ybT0ic2NhbGUoLTEpIiByeT0iMi42NDU4MzMzIiB5PSItNDcuNjI0OTk2IiB4PSItMjkuMTI0ODQ2IiBoZWlnaHQ9IjEzLjIyOTE2NiIgd2lkdGg9IjUuMjkxNjY3OSIgaWQ9InJlY3Q5MTgiIHN0eWxlPSJmaWxsOiNmZmZmZmY7c3Ryb2tlOiMwMDAwMDA7c3Ryb2tlLXdpZHRoOjIuNjQ1ODM7c3Ryb2tlLWxpbmVjYXA6cm91bmQ7c3Ryb2tlLWRhc2hhcnJheTpub25lO3BhaW50LW9yZGVyOnN0cm9rZSBtYXJrZXJzIGZpbGw7c3RvcC1jb2xvcjojMDAwMDAwIi8+JiN4YTsgICAgPC9nPiYjeGE7ICA8L2c+JiN4YTs8L3N2Zz4=" vertex="1" parent="1">
          <mxGeometry x="1225.38" y="554.0000000000001" width="30" height="60" as="geometry" />
        </mxCell>
        <mxCell id="97y2HoLwPn8d9Kt8dTyg-571" value="" style="shape=image;verticalLabelPosition=bottom;verticalAlign=top;imageAspect=0;aspect=fixed;image=data:image/svg+xml,PHN2ZyB4bWxucz0iaHR0cDovL3d3dy53My5vcmcvMjAwMC9zdmciIGlkPSJzdmc3MzYyIiB2ZXJzaW9uPSIxLjEiIHZpZXdCb3g9IjAgMCA3LjkzNzQ5ODEgMTUuODc1IiBoZWlnaHQ9IjE1Ljg3NW1tIiB3aWR0aD0iNy45Mzc0OTgxbW0iPiYjeGE7ICAmI3hhOyAgICAmI3hhOyAgJiN4YTsgIDxkZWZzIGlkPSJkZWZzNzM1OSIvPiYjeGE7ICA8ZyB0cmFuc2Zvcm09InRyYW5zbGF0ZSgtMjIuNTEwMjYyLC0zMy4wNzI5MTMpIiBpZD0ibGF5ZXI1Ij4mI3hhOyAgICA8ZyBpZD0ibGF5ZXI2Ij4mI3hhOyAgICAgIDxyZWN0IHRyYW5zZm9ybT0ic2NhbGUoLTEpIiByeT0iMi42NDU4MzMzIiB5PSItNDcuNjI0OTk2IiB4PSItMjkuMTI0ODQ2IiBoZWlnaHQ9IjEzLjIyOTE2NiIgd2lkdGg9IjUuMjkxNjY3OSIgaWQ9InJlY3Q5MTgiIHN0eWxlPSJmaWxsOiNmZmZmZmY7c3Ryb2tlOiMwMDAwMDA7c3Ryb2tlLXdpZHRoOjIuNjQ1ODM7c3Ryb2tlLWxpbmVjYXA6cm91bmQ7c3Ryb2tlLWRhc2hhcnJheTpub25lO3BhaW50LW9yZGVyOnN0cm9rZSBtYXJrZXJzIGZpbGw7c3RvcC1jb2xvcjojMDAwMDAwIi8+JiN4YTsgICAgPC9nPiYjeGE7ICA8L2c+JiN4YTs8L3N2Zz4=" vertex="1" parent="1">
          <mxGeometry x="1385.38" y="553.0000000000001" width="30" height="60" as="geometry" />
        </mxCell>
        <mxCell id="97y2HoLwPn8d9Kt8dTyg-573" value="&lt;font face=&quot;Maven Pro&quot;&gt;&lt;span style=&quot;font-size: 20px;&quot;&gt;&lt;b&gt;Reads&lt;/b&gt;&lt;/span&gt;&lt;/font&gt;" style="text;html=1;strokeColor=none;fillColor=none;align=center;verticalAlign=middle;whiteSpace=wrap;rounded=0;fontColor=default;" vertex="1" parent="1">
          <mxGeometry x="175" y="272.27" width="150" height="32.73" as="geometry" />
        </mxCell>
        <mxCell id="97y2HoLwPn8d9Kt8dTyg-581" value="&lt;font face=&quot;Maven Pro&quot;&gt;&lt;span&gt;DOH-JDJ0303/&lt;/span&gt;&lt;/font&gt;&lt;div&gt;&lt;font face=&quot;Maven Pro&quot;&gt;&lt;span&gt;&lt;b&gt;VAPER&lt;/b&gt;&lt;/span&gt;&lt;/font&gt;&lt;/div&gt;" style="text;html=1;strokeColor=none;fillColor=none;align=left;verticalAlign=middle;whiteSpace=wrap;rounded=0;fontColor=default;fontSize=56;" vertex="1" parent="1">
          <mxGeometry x="196" y="540" width="409" height="130" as="geometry" />
        </mxCell>
        <mxCell id="97y2HoLwPn8d9Kt8dTyg-584" value="" style="shape=image;verticalLabelPosition=bottom;verticalAlign=top;imageAspect=0;aspect=0;image=data:image/svg+xml,PHN2ZyB4bWxucz0iaHR0cDovL3d3dy53My5vcmcvMjAwMC9zdmciIGlkPSJzdmc3MzYyIiB2ZXJzaW9uPSIxLjEiIHZpZXdCb3g9IjAgMCAyLjY0NTgyODIgNy45Mzc1IiBoZWlnaHQ9IjcuOTM3NW1tIiB3aWR0aD0iMi42NDU4MjgybW0iPiYjeGE7ICA8ZGVmcyBpZD0iZGVmczczNTkiLz4mI3hhOyAgPGcgdHJhbnNmb3JtPSJ0cmFuc2xhdGUoLTEwOC40NzkxNiwtNTIuOTE2NjY2KSIgaWQ9ImxheWVyOSI+JiN4YTsgICAgPHBhdGggaWQ9InBhdGgyNTAwLTUtMjItMi03IiBkPSJtIDEwOS44MDIwOCw1Mi45MTY2NjYgdiA3LjkzNzUiIHN0eWxlPSJmaWxsOm5vbmU7c3Ryb2tlOiMwMDAwMDA7c3Ryb2tlLXdpZHRoOjIuNjQ1ODM7c3Ryb2tlLWxpbmVjYXA6YnV0dDtzdHJva2UtbGluZWpvaW46bWl0ZXI7c3Ryb2tlLW1pdGVybGltaXQ6NDtzdHJva2UtZGFzaGFycmF5Om5vbmU7c3Ryb2tlLW9wYWNpdHk6MSIvPiYjeGE7ICA8L2c+JiN4YTs8L3N2Zz4=;points=[[0,0,0,0,0],[0,0.25,0,0,0],[0,0.5,0,0,0],[0,0.75,0,0,0],[0,1,0,0,0],[1,0,0,0,0],[1,0.25,0,0,0],[1,0.5,0,0,0],[1,0.75,0,0,0],[1,1,0,0,0]];" vertex="1" parent="1">
          <mxGeometry x="732.38" y="555" width="10" height="60" as="geometry" />
        </mxCell>
        <mxCell id="97y2HoLwPn8d9Kt8dTyg-545" value="" style="shape=image;aspect=fixed;image=data:image/svg+xml,PD94bWwgdmVyc2lvbj0iMS4wIiBlbmNvZGluZz0iVVRGLTgiIHN0YW5kYWxvbmU9Im5vIj8+CjwhLS0gQ3JlYXRlZCB3aXRoIElua3NjYXBlIChodHRwOi8vd3d3Lmlua3NjYXBlLm9yZy8pIC0tPgoKPHN2ZwogICB3aWR0aD0iMjEuMTY2NjdtbSIKICAgaGVpZ2h0PSIyMy44MTI1MDJtbSIKICAgdmlld0JveD0iMCAwIDIxLjE2NjY3IDIzLjgxMjUwMiIKICAgdmVyc2lvbj0iMS4xIgogICBpZD0ic3ZnNzM2MiIKICAgeG1sbnM9Imh0dHA6Ly93d3cudzMub3JnLzIwMDAvc3ZnIgogICB4bWxuczpzdmc9Imh0dHA6Ly93d3cudzMub3JnLzIwMDAvc3ZnIj4KICA8ZGVmcwogICAgIGlkPSJkZWZzNzM1OSIgLz4KICA8ZwogICAgIGlkPSJsYXllcjEiCiAgICAgc3R5bGU9ImRpc3BsYXk6aW5saW5lIgogICAgIHRyYW5zZm9ybT0idHJhbnNsYXRlKDM3LjA0MTY3MywtMTQwLjIyOTE3KSI+CiAgICA8ZwogICAgICAgaWQ9ImcxODQ4OC0zLTIiCiAgICAgICB0cmFuc2Zvcm09InRyYW5zbGF0ZSgtMTY2LjY4NzQ5LDQ3LjYyNDk5NykiCiAgICAgICBzdHlsZT0iZGlzcGxheTppbmxpbmUiPgogICAgICA8cGF0aAogICAgICAgICBpZD0icGF0aDYyNzYtNC0wLTYiCiAgICAgICAgIHN0eWxlPSJmaWxsOiNmZmZmZmY7c3Ryb2tlLXdpZHRoOjAuMjMwNzAyIgogICAgICAgICBkPSJtIDEzMi4yOTE2Niw5My45MjcwNzIgdiAyMS4xNjY2NjggaCAxNS44NzUwMSBWIDk5LjIxODc0OCBsIC01LjI5MTY4LC01LjI5MTY3NiB6IiAvPgogICAgICA8cGF0aAogICAgICAgICBpZD0icGF0aDU4NjItMy03IgogICAgICAgICBkPSJtIDE0OS40ODk1OCw5Ny44OTU4MzIgYyAwLC0wLjI2NDU3NiAtMC4yNjQ1OCwtMC41MjkxNjQgLTAuNTI5MTcsLTAuNzkzNzUyIGwgLTQuNDk3OTEsLTMuOTY4NzQ4IGMgLTAuMjY0NTgsLTAuMjY0NTg4IC0wLjUyOTE3LC0wLjUyOTE2NCAtMC44Mjc4OCwtMC41MjkxNjQgaCAtMy40MDU0NSAtNy45Mzc1MSBjIC0wLjc5Mzc1LDAgLTEuMzIyOTIsMC41MjkxNjQgLTEuMzIyOTIsMS4zMjI5MTYgMCw3LjA1NTU1NiAwLDE0LjExMTEwNiAwLDIxLjE2NjY2NiAwLDAuNzkzNzUgMC41MjkxNywxLjMyMjkyIDEuMzIyOTIsMS4zMjI5MiBoIDcuOTM3NTEgNy45Mzc1IGMgMC43OTM3NCwwIDEuMzIyOTEsLTAuNTI5MTcgMS4zMjI5MSwtMS4zMjI5MiB6IG0gLTEuMzIyOTEsMTcuMTk3OTE4IEggMTMyLjI5MTY2IFYgOTMuOTI3MDg0IGggMTAuNTgzMzMgdiA0Ljc2MjUgYyAwLDAuMzE3NTA4IDAuMjAzNTMsMC41MjkxNjQgMC41MjkxNywwLjUyOTE2NCBoIDQuNzYyNTEgeiIKICAgICAgICAgc3R5bGU9InN0cm9rZS13aWR0aDowLjIzMTY3IiAvPgogICAgICA8cGF0aAogICAgICAgICBpZD0icmVjdDE4MzQ3LTYtMSIKICAgICAgICAgc3R5bGU9ImZpbGwtcnVsZTpldmVub2RkO3N0cm9rZS13aWR0aDowLjEyMjAyNztwYWludC1vcmRlcjpmaWxsIG1hcmtlcnMgc3Ryb2tlIgogICAgICAgICBkPSJtIDEzMS4wMTc1MiwxMDEuODY0NiBjIDYuMTQxMDksMCAxMi4yODIxNywwIDE4LjQyMzI2LDAgMC43NTk5MywwIDEuMzcxNzEsMC40OTcwNiAxLjM3MTcxLDEuMTE0NSB2IDIuODU0MjIgMi44NTQyNSBjIDAsMC42MTc0NCAtMC42MTE3OCwxLjExNDUgLTEuMzcxNzEsMS4xMTQ1IC02LjE0MTA5LDAgLTEyLjI4MjE3LDAgLTE4LjQyMzI2LDAgLTAuNzU5OTIsMCAtMS4zNzE3LC0wLjQ5NzA2IC0xLjM3MTcsLTEuMTE0NSB2IC0yLjg1NDI1IC0yLjg1NDIyIGMgMCwtMC42MTc0NCAwLjYxMTc4LC0xLjExNDUgMS4zNzE3LC0xLjExNDUgeiIgLz4KICAgIDwvZz4KICA8L2c+Cjwvc3ZnPgo=;" vertex="1" parent="1">
          <mxGeometry x="614.38" y="465" width="80" height="90" as="geometry" />
        </mxCell>
        <mxCell id="97y2HoLwPn8d9Kt8dTyg-546" value="&lt;font face=&quot;Maven Pro&quot; color=&quot;#ffffff&quot;&gt;&lt;span style=&quot;font-size: 20px;&quot;&gt;&lt;b&gt;csv&lt;/b&gt;&lt;/span&gt;&lt;/font&gt;" style="text;html=1;strokeColor=none;fillColor=none;align=center;verticalAlign=middle;whiteSpace=wrap;rounded=0;" vertex="1" parent="1">
          <mxGeometry x="624.38" y="498" width="60" height="30" as="geometry" />
        </mxCell>
        <mxCell id="97y2HoLwPn8d9Kt8dTyg-550" value="" style="group" vertex="1" connectable="0" parent="1">
          <mxGeometry x="610.38" y="600.0000000000001" width="90" height="100" as="geometry" />
        </mxCell>
        <mxCell id="97y2HoLwPn8d9Kt8dTyg-551" value="" style="shape=image;aspect=fixed;image=data:image/svg+xml,PD94bWwgdmVyc2lvbj0iMS4wIiBlbmNvZGluZz0iVVRGLTgiIHN0YW5kYWxvbmU9Im5vIj8+CjwhLS0gQ3JlYXRlZCB3aXRoIElua3NjYXBlIChodHRwOi8vd3d3Lmlua3NjYXBlLm9yZy8pIC0tPgoKPHN2ZwogICB3aWR0aD0iMjMuODEyNTFtbSIKICAgaGVpZ2h0PSIyNi40NTgzNDltbSIKICAgdmlld0JveD0iMCAwIDIzLjgxMjUxIDI2LjQ1ODM0OSIKICAgdmVyc2lvbj0iMS4xIgogICBpZD0ic3ZnNzM2MiIKICAgeG1sbnM9Imh0dHA6Ly93d3cudzMub3JnLzIwMDAvc3ZnIgogICB4bWxuczpzdmc9Imh0dHA6Ly93d3cudzMub3JnLzIwMDAvc3ZnIj4KICA8ZGVmcwogICAgIGlkPSJkZWZzNzM1OSIgLz4KICA8ZwogICAgIGlkPSJsYXllcjEiCiAgICAgc3R5bGU9ImRpc3BsYXk6aW5saW5lIgogICAgIHRyYW5zZm9ybT0idHJhbnNsYXRlKDM3LjA0MTY2NSwtMTY2LjY4NzUpIj4KICAgIDxnCiAgICAgICBpZD0iZzMtNC05IgogICAgICAgdHJhbnNmb3JtPSJ0cmFuc2xhdGUoLTE5MC40OTk5OSw3MS40Mzc1MDUpIgogICAgICAgc3R5bGU9ImRpc3BsYXk6aW5saW5lIj4KICAgICAgPGcKICAgICAgICAgaWQ9ImcxODQ4OC01NC00MS05IgogICAgICAgICB0cmFuc2Zvcm09InRyYW5zbGF0ZSgyNi40NTgzMzIsMi42NDU4NDQpIj4KICAgICAgICA8cGF0aAogICAgICAgICAgIGlkPSJwYXRoNjI3Ni00LTQtNS0yIgogICAgICAgICAgIHN0eWxlPSJmaWxsOiNmZmZmZmY7c3Ryb2tlLXdpZHRoOjAuMjMwNzAyIgogICAgICAgICAgIGQ9Im0gMTMyLjI5MTY2LDkzLjkyNzA3MiB2IDIxLjE2NjY2OCBoIDE1Ljg3NTAxIFYgOTkuMjE4NzQ4IGwgLTUuMjkxNjgsLTUuMjkxNjc2IHoiIC8+CiAgICAgICAgPHBhdGgKICAgICAgICAgICBpZD0icGF0aDU4NjItMS00LTEiCiAgICAgICAgICAgZD0ibSAxNDkuNDg5NTgsOTcuODk1ODMyIGMgMCwtMC4yNjQ1NzYgLTAuMjY0NTgsLTAuNTI5MTY0IC0wLjUyOTE3LC0wLjc5Mzc1MiBsIC00LjQ5NzkxLC0zLjk2ODc0OCBjIC0wLjI2NDU4LC0wLjI2NDU4OCAtMC41MjkxNywtMC41MjkxNjQgLTAuODI3ODgsLTAuNTI5MTY0IGwgLTQuNzI4MzcsLTJlLTUgLTYuNjE0NTksMmUtNSBjIC0wLjc5Mzc1LDJlLTYgLTEuMzIyOTIsMC41MjkxNjQgLTEuMzIyOTIsMS4zMjI5MTYgdiAyMS4xNjY2NjYgYyAwLDAuNzkzNzUgMC41MjkxNywxLjMyMjkyIDEuMzIyOTIsMS4zMjI5MiBoIDcuOTM3NTEgNy45Mzc1IGMgMC43OTM3NCwwIDEuMzIyOTEsLTAuNTI5MTcgMS4zMjI5MSwtMS4zMjI5MiB6IG0gLTEuMzIyOTEsMTcuMTk3OTE4IEggMTMyLjI5MTY2IFYgOTMuOTI3MDg0IGggMTAuNTgzMzMgdiA0Ljc2MjUgYyAwLDAuMzE3NTA4IDAuMjAzNTMsMC41MjkxNjQgMC41MjkxNywwLjUyOTE2NCBoIDQuNzYyNTEgeiIKICAgICAgICAgICBzdHlsZT0ic3Ryb2tlLXdpZHRoOjAuMjMxNjciIC8+CiAgICAgICAgPHBhdGgKICAgICAgICAgICBpZD0icmVjdDE4MzQ3LTItNy04IgogICAgICAgICAgIHN0eWxlPSJmaWxsLXJ1bGU6ZXZlbm9kZDtzdHJva2Utd2lkdGg6MC4xMjIwMjc7cGFpbnQtb3JkZXI6ZmlsbCBtYXJrZXJzIHN0cm9rZSIKICAgICAgICAgICBkPSJtIDEzMS4wMTc1MiwxMDEuODY0NiBoIDE4LjQyMzI2IGMgMC43NTk5MywwIDEuMzcxNzEsMC40OTcwNiAxLjM3MTcxLDEuMTE0NSBsIDFlLTUsMi44NTQyMSAtMWUtNSwyLjg1NDI2IGMgMCwwLjYxNzQ0IC0wLjYxMTc4LDEuMTE0NSAtMS4zNzE3MSwxLjExNDUgaCAtMTguNDIzMjYgYyAtMC43NTk5MiwwIC0xLjM3MTcsLTAuNDk3MDYgLTEuMzcxNywtMS4xMTQ1IHYgLTIuODU0MjUgLTIuODU0MjIgYyAwLC0wLjYxNzQ0IDAuNjExNzgsLTEuMTE0NSAxLjM3MTcsLTEuMTE0NSB6IiAvPgogICAgICAgIDx0ZXh0CiAgICAgICAgICAgeG1sOnNwYWNlPSJwcmVzZXJ2ZSIKICAgICAgICAgICBzdHlsZT0iZm9udC13ZWlnaHQ6Ym9sZDtmb250LXNpemU6NS4yOTE2N3B4O2ZvbnQtZmFtaWx5OidNYXZlbiBQcm8nOy1pbmtzY2FwZS1mb250LXNwZWNpZmljYXRpb246J01hdmVuIFBybywgQm9sZCc7dGV4dC1hbGlnbjpjZW50ZXI7dGV4dC1vcmllbnRhdGlvbjp1cHJpZ2h0O3RleHQtYW5jaG9yOm1pZGRsZTtmaWxsOiNmZmZmZmY7ZmlsbC1vcGFjaXR5OjE7c3Ryb2tlOm5vbmU7c3Ryb2tlLXdpZHRoOjAuMjI3OTUxO3N0cm9rZS1saW5lY2FwOnJvdW5kO3N0cm9rZS1saW5lam9pbjptaXRlcjtzdHJva2UtbWl0ZXJsaW1pdDowLjY7c3Ryb2tlLWRhc2hhcnJheTpub25lO3N0cm9rZS1kYXNob2Zmc2V0OjIuMDAwMDE7c3Ryb2tlLW9wYWNpdHk6MTtwYWludC1vcmRlcjpmaWxsIG1hcmtlcnMgc3Ryb2tlO3N0b3AtY29sb3I6IzAwMDAwMCIKICAgICAgICAgICB4PSIxNDAuMzM4OTYiCiAgICAgICAgICAgeT0iMTA3LjIxMTgiCiAgICAgICAgICAgaWQ9InRleHQxODU2OS02LTgtNCI+PHRzcGFuCiAgICAgICAgICAgICBpZD0idHNwYW4xODU2Ny00Mi02LTEiCiAgICAgICAgICAgICBzdHlsZT0iZmlsbDojZmZmZmZmO2ZpbGwtb3BhY2l0eToxO3N0cm9rZTpub25lO3N0cm9rZS13aWR0aDowLjIyNzk1MSIKICAgICAgICAgICAgIHg9IjE0MC4zMzg5NiIKICAgICAgICAgICAgIHk9IjEwNy4yMTE4Ij5mYXN0cTwvdHNwYW4+PC90ZXh0PgogICAgICA8L2c+CiAgICAgIDxnCiAgICAgICAgIGlkPSJnMTg0ODgtNTQtOC02LTEiCiAgICAgICAgIHRyYW5zZm9ybT0idHJhbnNsYXRlKDIzLjgxMjUwMiw1LjI5MTY2OTUpIj4KICAgICAgICA8cGF0aAogICAgICAgICAgIGlkPSJwYXRoNjI3Ni00LTQtNi03LTUiCiAgICAgICAgICAgc3R5bGU9ImZpbGw6I2ZmZmZmZjtzdHJva2Utd2lkdGg6MC4yMzA3MDIiCiAgICAgICAgICAgZD0ibSAxMzIuMjkxNjYsOTMuOTI3MDcyIHYgMjEuMTY2NjY4IGggMTUuODc1MDEgViA5OS4yMTg3NDggbCAtNS4yOTE2OCwtNS4yOTE2NzYgeiIgLz4KICAgICAgICA8cGF0aAogICAgICAgICAgIGlkPSJwYXRoNTg2Mi0xLTEtMC02IgogICAgICAgICAgIGQ9Im0gMTQ5LjQ4OTU4LDk3Ljg5NTgzMiBjIDAsLTAuMjY0NTc2IC0wLjI2NDU4LC0wLjUyOTE2NCAtMC41MjkxNywtMC43OTM3NTIgbCAtNC40OTc5MSwtMy45Njg3NDggYyAtMC4yNjQ1OCwtMC4yNjQ1ODggLTAuNTI5MTcsLTAuNTI5MTY0IC0wLjgyNzg4LC0wLjUyOTE2NCBoIC0zLjQwNTQ1IC03LjkzNzUxIGMgLTAuNzkzNzUsMCAtMS4zMjI5MiwwLjUyOTE2NCAtMS4zMjI5MiwxLjMyMjkxNiB2IDIxLjE2NjY2NiBjIDAsMC43OTM3NSAwLjUyOTE3LDEuMzIyOTIgMS4zMjI5MiwxLjMyMjkyIGwgOS4yNjA0MiwtMmUtNSA2LjYxNDU5LDJlLTUgYyAwLjc5Mzc0LDAgMS4zMjI5MSwtMC41MjkxNyAxLjMyMjkxLC0xLjMyMjkyIHogbSAtMS4zMjI5MSwxNy4xOTc5MTggSCAxMzIuMjkxNjYgViA5My45MjcwODQgaCAxMC41ODMzMyB2IDQuNzYyNSBjIDAsMC4zMTc1MDggMC4yMDM1MywwLjUyOTE2NCAwLjUyOTE3LDAuNTI5MTY0IGggNC43NjI1MSB6IgogICAgICAgICAgIHN0eWxlPSJzdHJva2Utd2lkdGg6MC4yMzE2NyIgLz4KICAgICAgICA8cGF0aAogICAgICAgICAgIGlkPSJyZWN0MTgzNDctMi01LTAtMiIKICAgICAgICAgICBzdHlsZT0iZmlsbC1ydWxlOmV2ZW5vZGQ7c3Ryb2tlLXdpZHRoOjAuMTIyMDI3O3BhaW50LW9yZGVyOmZpbGwgbWFya2VycyBzdHJva2UiCiAgICAgICAgICAgZD0ibSAxMzEuMDE3NTIsMTAxLjg2NDYgaCAxOC40MjMyNiBjIDAuNzU5OTMsMCAxLjM3MTcxLDAuNDk3MDYgMS4zNzE3MSwxLjExNDUgdiAyLjg1NDIyIDIuODU0MjUgYyAwLDAuNjE3NDQgLTAuNjExNzgsMS4xMTQ1IC0xLjM3MTcxLDEuMTE0NSBoIC0xOC40MjMyNiBjIC0wLjc1OTkyLDAgLTEuMzcxNywtMC40OTcwNiAtMS4zNzE3LC0xLjExNDUgbCAxZS01LC01LjUwMDA4IC0xZS01LC0wLjIwODM5IGMgLTJlLTUsLTAuNjE3NDQgMC42MTE3OCwtMS4xMTQ1IDEuMzcxNywtMS4xMTQ1IHoiIC8+CiAgICAgIDwvZz4KICAgIDwvZz4KICA8L2c+Cjwvc3ZnPgo=;imageBackground=default;" vertex="1" parent="97y2HoLwPn8d9Kt8dTyg-550">
          <mxGeometry width="90" height="100" as="geometry" />
        </mxCell>
        <mxCell id="97y2HoLwPn8d9Kt8dTyg-552" value="&lt;font face=&quot;Maven Pro&quot; color=&quot;#ffffff&quot;&gt;&lt;span style=&quot;font-size: 20px;&quot;&gt;&lt;b&gt;FASTA&lt;/b&gt;&lt;/span&gt;&lt;/font&gt;" style="text;html=1;strokeColor=none;fillColor=none;align=center;verticalAlign=middle;whiteSpace=wrap;rounded=0;" vertex="1" parent="97y2HoLwPn8d9Kt8dTyg-550">
          <mxGeometry x="10" y="50" width="60" height="25" as="geometry" />
        </mxCell>
        <mxCell id="97y2HoLwPn8d9Kt8dTyg-574" value="&lt;font face=&quot;Maven Pro&quot;&gt;&lt;span style=&quot;font-size: 20px;&quot;&gt;&lt;b&gt;Summary&lt;/b&gt;&lt;/span&gt;&lt;/font&gt;" style="text;html=1;strokeColor=none;fillColor=none;align=center;verticalAlign=middle;whiteSpace=wrap;rounded=0;fontColor=default;" vertex="1" parent="1">
          <mxGeometry x="579.38" y="555" width="150" height="32.73" as="geometry" />
        </mxCell>
        <mxCell id="97y2HoLwPn8d9Kt8dTyg-575" value="&lt;font face=&quot;Maven Pro&quot;&gt;&lt;span style=&quot;font-size: 20px;&quot;&gt;&lt;b&gt;Assemblies&lt;/b&gt;&lt;/span&gt;&lt;/font&gt;" style="text;html=1;strokeColor=none;fillColor=none;align=center;verticalAlign=middle;whiteSpace=wrap;rounded=0;fontColor=default;" vertex="1" parent="1">
          <mxGeometry x="580.38" y="699.5" width="150" height="32.73" as="geometry" />
        </mxCell>
        <mxCell id="97y2HoLwPn8d9Kt8dTyg-424" value="" style="endArrow=none;html=1;rounded=0;strokeWidth=10;strokeColor=#F18046;entryX=0.004;entryY=0.003;entryDx=0;entryDy=0;entryPerimeter=0;" edge="1" parent="1">
          <mxGeometry width="50" height="50" relative="1" as="geometry">
            <mxPoint x="315" y="369" as="sourcePoint" />
            <mxPoint x="1499" y="369" as="targetPoint" />
          </mxGeometry>
        </mxCell>
        <mxCell id="97y2HoLwPn8d9Kt8dTyg-344" value="" style="shape=image;verticalLabelPosition=bottom;verticalAlign=top;imageAspect=0;aspect=fixed;image=data:image/svg+xml,PHN2ZyB4bWxucz0iaHR0cDovL3d3dy53My5vcmcvMjAwMC9zdmciIGlkPSJzdmc3MzYyIiB2ZXJzaW9uPSIxLjEiIHZpZXdCb3g9IjAgMCA3LjkzNzQ5NjcgNy45Mzc0OTYyIiBoZWlnaHQ9IjcuOTM3NDk2Mm1tIiB3aWR0aD0iNy45Mzc0OTY3bW0iPiYjeGE7ICAmI3hhOyAgICAmI3hhOyAgJiN4YTsgIDxkZWZzIGlkPSJkZWZzNzM1OSIvPiYjeGE7ICA8ZyB0cmFuc2Zvcm09InRyYW5zbGF0ZSgtMy45ODk0MzAzLC0zMy4wNzI5MjEpIiBpZD0ibGF5ZXI1Ij4mI3hhOyAgICA8ZyBpZD0ibGF5ZXI2Ij4mI3hhOyAgICAgIDxjaXJjbGUgcj0iMi42NDU4MzMzIiBjeT0iMzcuMDQxNjY4IiBjeD0iNy45NTgxNzg1IiBpZD0icGF0aDM0NDciIHN0eWxlPSJmaWxsOiNmZmZmZmY7c3Ryb2tlOiMwMDAwMDA7c3Ryb2tlLXdpZHRoOjIuNjQ1ODM7c3Ryb2tlLWxpbmVjYXA6cm91bmQ7c3Ryb2tlLW1pdGVybGltaXQ6NDtzdHJva2UtZGFzaGFycmF5Om5vbmU7cGFpbnQtb3JkZXI6c3Ryb2tlIG1hcmtlcnMgZmlsbDtzdG9wLWNvbG9yOiMwMDAwMDAiLz4mI3hhOyAgICA8L2c+JiN4YTsgIDwvZz4mI3hhOzwvc3ZnPg==" vertex="1" parent="1">
          <mxGeometry x="1451.75" y="348" width="30" height="30" as="geometry" />
        </mxCell>
        <mxCell id="97y2HoLwPn8d9Kt8dTyg-592" value="" style="shape=stencil(nVTbboMwDP0aHhs5NiHwOLHtP1ibrtFoQIFe9vczJGiL2m5rrbxwbB/7OCYZ1cOu6U2G0Ay9WY8ZPWeIx8bb5q1lGNmzC6DMhWSDPKCngGIpcDIZ0GH03Yc52c0Ys6zbGW/HyUsvGTxxzHSoXnfOcUHbuSHx/PAzWWMd58I5kEEo8hkbCl898+/NaHyCZvj6b1qZ0MI9tFQzcksK1dvOm3ffHdzmajNb27ZhYr903DfTLC8ci3vfHc23lFzoIi/LiswKdDqt9PquV1tIW+tSUqCiosf51gcfupQhWYtCapCoIqW8ynnGCINQJbHF6AWWQqsK8zJGU0qiIBrGNFpqg5qtivaIAMkKiOcsUwEoSMkyX7ZlEYAgNCpQMhWwAgFASuWFTiUgCaZRUqedc/j9l7f8oOnt/UE1r/WNxeMn49bKzmkXOz+j4ZmZgS8=);whiteSpace=wrap;html=1;strokeWidth=10;fillColor=none;strokeColor=light-dark(#f18046, #dd5f5b);" vertex="1" parent="1">
          <mxGeometry x="1497.38" y="276" width="192.62" height="93" as="geometry" />
        </mxCell>
        <mxCell id="97y2HoLwPn8d9Kt8dTyg-593" value="" style="shape=stencil(nVTbboMwDP0aHhs5NiHwOLHtP1ibrtFoQIFe9vczJGiL2m5rrbxwbB/7OCYZ1cOu6U2G0Ay9WY8ZPWeIx8bb5q1lGNmzC6DMhWSDPKCngGIpcDIZ0GH03Yc52c0Ys6zbGW/HyUsvGTxxzHSoXnfOcUHbuSHx/PAzWWMd58I5kEEo8hkbCl898+/NaHyCZvj6b1qZ0MI9tFQzcksK1dvOm3ffHdzmajNb27ZhYr903DfTLC8ci3vfHc23lFzoIi/LiswKdDqt9PquV1tIW+tSUqCiosf51gcfupQhWYtCapCoIqW8ynnGCINQJbHF6AWWQqsK8zJGU0qiIBrGNFpqg5qtivaIAMkKiOcsUwEoSMkyX7ZlEYAgNCpQMhWwAgFASuWFTiUgCaZRUqedc/j9l7f8oOnt/UE1r/WNxeMn49bKzmkXOz+j4ZmZgS8=);whiteSpace=wrap;html=1;strokeWidth=10;fillColor=none;strokeColor=light-dark(#24b064, #dd5f5b);" vertex="1" parent="1">
          <mxGeometry x="1497.38" y="266.5" width="192.62" height="93" as="geometry" />
        </mxCell>
        <mxCell id="97y2HoLwPn8d9Kt8dTyg-597" value="" style="group" vertex="1" connectable="0" parent="1">
          <mxGeometry x="1619" y="223" width="136" height="117" as="geometry" />
        </mxCell>
        <mxCell id="97y2HoLwPn8d9Kt8dTyg-598" value="" style="shape=image;verticalLabelPosition=bottom;verticalAlign=top;imageAspect=0;aspect=fixed;image=data:image/svg+xml,PHN2ZyB4bWxucz0iaHR0cDovL3d3dy53My5vcmcvMjAwMC9zdmciIGlkPSJzdmc3MzYyIiB2ZXJzaW9uPSIxLjEiIHZpZXdCb3g9IjAgMCA3LjkzNzQ5ODEgMTUuODc1IiBoZWlnaHQ9IjE1Ljg3NW1tIiB3aWR0aD0iNy45Mzc0OTgxbW0iPiYjeGE7ICAmI3hhOyAgICAmI3hhOyAgJiN4YTsgIDxkZWZzIGlkPSJkZWZzNzM1OSIvPiYjeGE7ICA8ZyB0cmFuc2Zvcm09InRyYW5zbGF0ZSgtMjIuNTEwMjYyLC0zMy4wNzI5MTMpIiBpZD0ibGF5ZXI1Ij4mI3hhOyAgICA8ZyBpZD0ibGF5ZXI2Ij4mI3hhOyAgICAgIDxyZWN0IHRyYW5zZm9ybT0ic2NhbGUoLTEpIiByeT0iMi42NDU4MzMzIiB5PSItNDcuNjI0OTk2IiB4PSItMjkuMTI0ODQ2IiBoZWlnaHQ9IjEzLjIyOTE2NiIgd2lkdGg9IjUuMjkxNjY3OSIgaWQ9InJlY3Q5MTgiIHN0eWxlPSJmaWxsOiNmZmZmZmY7c3Ryb2tlOiMwMDAwMDA7c3Ryb2tlLXdpZHRoOjIuNjQ1ODM7c3Ryb2tlLWxpbmVjYXA6cm91bmQ7c3Ryb2tlLWRhc2hhcnJheTpub25lO3BhaW50LW9yZGVyOnN0cm9rZSBtYXJrZXJzIGZpbGw7c3RvcC1jb2xvcjojMDAwMDAwIi8+JiN4YTsgICAgPC9nPiYjeGE7ICA8L2c+JiN4YTs8L3N2Zz4=" vertex="1" parent="97y2HoLwPn8d9Kt8dTyg-597">
          <mxGeometry x="53.42857142857143" width="29.142857142857142" height="58.285714285714285" as="geometry" />
        </mxCell>
        <mxCell id="97y2HoLwPn8d9Kt8dTyg-599" value="" style="shape=image;verticalLabelPosition=bottom;verticalAlign=top;imageAspect=0;aspect=fixed;image=data:image/svg+xml,PHN2ZyB4bWxucz0iaHR0cDovL3d3dy53My5vcmcvMjAwMC9zdmciIGlkPSJzdmc3MzYyIiB2ZXJzaW9uPSIxLjEiIHZpZXdCb3g9IjAgMCA3LjkzNzQ5NjcgNy45Mzc0OTYyIiBoZWlnaHQ9IjcuOTM3NDk2Mm1tIiB3aWR0aD0iNy45Mzc0OTY3bW0iPiYjeGE7ICAmI3hhOyAgICAmI3hhOyAgJiN4YTsgIDxkZWZzIGlkPSJkZWZzNzM1OSIvPiYjeGE7ICA8ZyB0cmFuc2Zvcm09InRyYW5zbGF0ZSgtMy45ODk0MzAzLC0zMy4wNzI5MjEpIiBpZD0ibGF5ZXI1Ij4mI3hhOyAgICA8ZyBpZD0ibGF5ZXI2Ij4mI3hhOyAgICAgIDxjaXJjbGUgcj0iMi42NDU4MzMzIiBjeT0iMzcuMDQxNjY4IiBjeD0iNy45NTgxNzg1IiBpZD0icGF0aDM0NDciIHN0eWxlPSJmaWxsOiNmZmZmZmY7c3Ryb2tlOiMwMDAwMDA7c3Ryb2tlLXdpZHRoOjIuNjQ1ODM7c3Ryb2tlLWxpbmVjYXA6cm91bmQ7c3Ryb2tlLW1pdGVybGltaXQ6NDtzdHJva2UtZGFzaGFycmF5Om5vbmU7cGFpbnQtb3JkZXI6c3Ryb2tlIG1hcmtlcnMgZmlsbDtzdG9wLWNvbG9yOiMwMDAwMDAiLz4mI3hhOyAgICA8L2c+JiN4YTsgIDwvZz4mI3hhOzwvc3ZnPg==" vertex="1" parent="1">
          <mxGeometry x="1443.5162162162162" y="97.5" width="30" height="30" as="geometry" />
        </mxCell>
        <mxCell id="97y2HoLwPn8d9Kt8dTyg-600" value="&lt;font face=&quot;Maven Pro&quot;&gt;&lt;span style=&quot;font-size: 20px;&quot;&gt;&lt;b&gt;.filter{&amp;nbsp;&lt;/b&gt;&lt;/span&gt;&lt;/font&gt;&lt;b style=&quot;font-size: 20px; font-family: &amp;quot;Maven Pro&amp;quot;; background-color: transparent; color: light-dark(rgb(0, 0, 0), rgb(255, 255, 255));&quot;&gt;&quot;complete&quot; }&lt;/b&gt;" style="text;html=1;strokeColor=none;fillColor=none;align=center;verticalAlign=middle;whiteSpace=wrap;rounded=0;fontColor=default;" vertex="1" parent="1">
          <mxGeometry x="1338.5233513513513" y="127.5" width="258.1378378378378" height="30" as="geometry" />
        </mxCell>
        <mxCell id="97y2HoLwPn8d9Kt8dTyg-601" value="" style="shape=image;verticalLabelPosition=bottom;verticalAlign=top;imageAspect=0;aspect=fixed;image=data:image/svg+xml,PHN2ZyB4bWxucz0iaHR0cDovL3d3dy53My5vcmcvMjAwMC9zdmciIGlkPSJzdmc3MzYyIiB2ZXJzaW9uPSIxLjEiIHZpZXdCb3g9IjAgMCA3LjkzNzQ5NjcgNy45Mzc0OTYyIiBoZWlnaHQ9IjcuOTM3NDk2Mm1tIiB3aWR0aD0iNy45Mzc0OTY3bW0iPiYjeGE7ICAmI3hhOyAgICAmI3hhOyAgJiN4YTsgIDxkZWZzIGlkPSJkZWZzNzM1OSIvPiYjeGE7ICA8ZyB0cmFuc2Zvcm09InRyYW5zbGF0ZSgtMy45ODk0MzAzLC0zMy4wNzI5MjEpIiBpZD0ibGF5ZXI1Ij4mI3hhOyAgICA8ZyBpZD0ibGF5ZXI2Ij4mI3hhOyAgICAgIDxjaXJjbGUgcj0iMi42NDU4MzMzIiBjeT0iMzcuMDQxNjY4IiBjeD0iNy45NTgxNzg1IiBpZD0icGF0aDM0NDciIHN0eWxlPSJmaWxsOiNmZmZmZmY7c3Ryb2tlOiMwMDAwMDA7c3Ryb2tlLXdpZHRoOjIuNjQ1ODM7c3Ryb2tlLWxpbmVjYXA6cm91bmQ7c3Ryb2tlLW1pdGVybGltaXQ6NDtzdHJva2UtZGFzaGFycmF5Om5vbmU7cGFpbnQtb3JkZXI6c3Ryb2tlIG1hcmtlcnMgZmlsbDtzdG9wLWNvbG9yOiMwMDAwMDAiLz4mI3hhOyAgICA8L2c+JiN4YTsgIDwvZz4mI3hhOzwvc3ZnPg==" vertex="1" parent="1">
          <mxGeometry x="1072" y="350" width="30" height="30" as="geometry" />
        </mxCell>
        <mxCell id="97y2HoLwPn8d9Kt8dTyg-602" value="" style="shape=image;verticalLabelPosition=bottom;verticalAlign=top;imageAspect=0;aspect=fixed;image=data:image/svg+xml,PHN2ZyB4bWxucz0iaHR0cDovL3d3dy53My5vcmcvMjAwMC9zdmciIGlkPSJzdmc3MzYyIiB2ZXJzaW9uPSIxLjEiIHZpZXdCb3g9IjAgMCA3LjkzNzQ5NjcgNy45Mzc0OTYyIiBoZWlnaHQ9IjcuOTM3NDk2Mm1tIiB3aWR0aD0iNy45Mzc0OTY3bW0iPiYjeGE7ICAmI3hhOyAgICAmI3hhOyAgJiN4YTsgIDxkZWZzIGlkPSJkZWZzNzM1OSIvPiYjeGE7ICA8ZyB0cmFuc2Zvcm09InRyYW5zbGF0ZSgtMy45ODk0MzAzLC0zMy4wNzI5MjEpIiBpZD0ibGF5ZXI1Ij4mI3hhOyAgICA8ZyBpZD0ibGF5ZXI2Ij4mI3hhOyAgICAgIDxjaXJjbGUgcj0iMi42NDU4MzMzIiBjeT0iMzcuMDQxNjY4IiBjeD0iNy45NTgxNzg1IiBpZD0icGF0aDM0NDciIHN0eWxlPSJmaWxsOiNmZmZmZmY7c3Ryb2tlOiMwMDAwMDA7c3Ryb2tlLXdpZHRoOjIuNjQ1ODM7c3Ryb2tlLWxpbmVjYXA6cm91bmQ7c3Ryb2tlLW1pdGVybGltaXQ6NDtzdHJva2UtZGFzaGFycmF5Om5vbmU7cGFpbnQtb3JkZXI6c3Ryb2tlIG1hcmtlcnMgZmlsbDtzdG9wLWNvbG9yOiMwMDAwMDAiLz4mI3hhOyAgICA8L2c+JiN4YTsgIDwvZz4mI3hhOzwvc3ZnPg==" vertex="1" parent="1">
          <mxGeometry x="558.25" y="348" width="30" height="30" as="geometry" />
        </mxCell>
        <mxCell id="97y2HoLwPn8d9Kt8dTyg-606" value="&lt;font face=&quot;Maven Pro&quot;&gt;&lt;span style=&quot;font-size: 20px;&quot;&gt;&lt;b&gt;BWA MEM&lt;/b&gt;&lt;/span&gt;&lt;/font&gt;" style="text;html=1;strokeColor=none;fillColor=none;align=center;verticalAlign=middle;whiteSpace=wrap;rounded=0;fontColor=default;" vertex="1" parent="1">
          <mxGeometry x="1593.38" y="521" width="140" height="60" as="geometry" />
        </mxCell>
        <mxCell id="97y2HoLwPn8d9Kt8dTyg-610" value="" style="shape=image;verticalLabelPosition=bottom;verticalAlign=top;imageAspect=0;aspect=0;image=data:image/svg+xml,PHN2ZyB4bWxucz0iaHR0cDovL3d3dy53My5vcmcvMjAwMC9zdmciIGlkPSJzdmc3MzYyIiB2ZXJzaW9uPSIxLjEiIHZpZXdCb3g9IjAgMCA2LjYxNTEwMDkgNy45Mzc1IiBoZWlnaHQ9IjcuOTM3NW1tIiB3aWR0aD0iNi42MTUxMDA5bW0iPiYjeGE7ICAmI3hhOyAgICAmI3hhOyAgJiN4YTsgIDxkZWZzIGlkPSJkZWZzNzM1OSIvPiYjeGE7ICA8ZyB0cmFuc2Zvcm09InRyYW5zbGF0ZSgtNjAuODUzNjUxLC01Mi45MTYxNDgpIiBpZD0ibGF5ZXI5Ij4mI3hhOyAgICA8cGF0aCBkPSJtIDYwLjg1MzY1LDUyLjkxNjE1IHYgNy45Mzc1IEggNjMuNSBMIDY3LjQ2ODc1LDU2Ljg4NTQxNyA2My41LDUyLjkxNjY2NyB2IC01LjE3ZS00IHoiIHN0eWxlPSJjb2xvcjojMDAwMDAwO2ZpbGw6IzAwMDAwMCIgaWQ9InBhdGgyNTAwLTUtMjItMiIvPiYjeGE7ICA8L2c+JiN4YTs8L3N2Zz4=;points=[[0,0.5,0,0,0],[0.78,0.5,0,0,0],[1,0.5,0,0,0]];" vertex="1" parent="1">
          <mxGeometry x="314" y="353" width="21" height="21" as="geometry" />
        </mxCell>
        <mxCell id="97y2HoLwPn8d9Kt8dTyg-611" value="" style="shape=image;verticalLabelPosition=bottom;verticalAlign=top;imageAspect=0;image=data:image/svg+xml,PHN2ZyB4bWxucz0iaHR0cDovL3d3dy53My5vcmcvMjAwMC9zdmciIGlkPSJzdmc3MzYyIiB2ZXJzaW9uPSIxLjEiIHZpZXdCb3g9IjAgMCA2LjYxNTEwMDkgNy45Mzc1IiBoZWlnaHQ9IjcuOTM3NW1tIiB3aWR0aD0iNi42MTUxMDA5bW0iPiYjeGE7ICAmI3hhOyAgICAmI3hhOyAgJiN4YTsgIDxkZWZzIGlkPSJkZWZzNzM1OSIvPiYjeGE7ICA8ZyB0cmFuc2Zvcm09InRyYW5zbGF0ZSgtNjAuODUzNjUxLC01Mi45MTYxNDgpIiBpZD0ibGF5ZXI5Ij4mI3hhOyAgICA8cGF0aCBkPSJtIDYwLjg1MzY1LDUyLjkxNjE1IHYgNy45Mzc1IEggNjMuNSBMIDY3LjQ2ODc1LDU2Ljg4NTQxNyA2My41LDUyLjkxNjY2NyB2IC01LjE3ZS00IHoiIHN0eWxlPSJjb2xvcjojMDAwMDAwO2ZpbGw6IzAwMDAwMCIgaWQ9InBhdGgyNTAwLTUtMjItMiIvPiYjeGE7ICA8L2c+JiN4YTs8L3N2Zz4=;points=[[0,0.5,0,0,0],[0.78,0.5,0,0,0],[1,0.5,0,0,0]];" vertex="1" parent="1">
          <mxGeometry x="312" y="217.5" width="21" height="39" as="geometry" />
        </mxCell>
        <mxCell id="97y2HoLwPn8d9Kt8dTyg-612" value="&lt;font face=&quot;Maven Pro&quot;&gt;&lt;span style=&quot;font-size: 20px;&quot;&gt;&lt;b&gt;Samtools&lt;/b&gt;&lt;/span&gt;&lt;/font&gt;&lt;div&gt;&lt;font face=&quot;Maven Pro&quot;&gt;&lt;span style=&quot;font-size: 20px;&quot;&gt;&lt;b&gt;stats + coverage&lt;/b&gt;&lt;/span&gt;&lt;/font&gt;&lt;/div&gt;" style="text;html=1;strokeColor=none;fillColor=none;align=center;verticalAlign=middle;whiteSpace=wrap;rounded=0;fontColor=default;" vertex="1" parent="1">
          <mxGeometry x="1324" y="615" width="160" height="60" as="geometry" />
        </mxCell>
      </root>
    </mxGraphModel>
  </diagram>
</mxfile>
